{"glyphs":{"0":{"ha":835,"x_min":58,"x_max":776,"o":"m 776 508 q 683 117 776 251 q 418 -17 590 -17 q 152 117 246 -17 q 58 508 58 251 q 152 901 58 767 q 418 1036 246 1036 q 683 901 590 1036 q 776 508 776 767 m 272 508 q 308 252 272 336 q 418 168 343 168 q 528 252 493 168 q 563 508 563 336 q 528 767 563 682 q 418 851 493 851 q 308 767 343 851 q 272 508 272 683 z "},"1":{"ha":835,"x_min":122,"x_max":590,"o":"m 122 649 l 122 842 l 433 1018 l 590 1018 l 590 0 l 386 0 l 386 796 l 122 649 z "},"2":{"ha":835,"x_min":64,"x_max":769,"o":"m 363 176 l 769 176 l 769 0 l 68 0 l 68 131 l 375 475 q 485 615 454 564 q 517 719 517 665 q 483 815 517 779 q 393 851 450 851 q 290 809 335 851 q 222 689 246 767 l 64 781 q 194 970 100 904 q 413 1036 289 1036 q 581 997 510 1036 q 691 888 653 957 q 729 729 729 818 q 687 566 729 642 q 536 369 644 490 l 363 176 z "},"3":{"ha":835,"x_min":51,"x_max":761,"o":"m 588 531 q 717 437 672 499 q 761 283 761 375 q 713 122 761 189 q 584 19 665 54 q 404 -17 503 -17 q 184 43 278 -17 q 51 217 90 103 l 211 308 q 285 199 233 236 q 400 163 336 163 q 505 199 463 163 q 547 299 547 235 q 333 439 547 439 l 296 439 l 296 606 l 350 606 q 472 644 429 606 q 514 739 514 682 q 479 824 514 792 q 389 856 444 856 q 285 817 329 856 q 218 708 242 779 l 65 796 q 192 974 101 913 q 406 1036 282 1036 q 574 1001 501 1036 q 688 901 647 965 q 728 754 728 838 q 692 619 728 676 q 588 531 657 563 z "},"4":{"ha":835,"x_min":49,"x_max":819,"o":"m 682 617 l 682 379 l 819 379 l 819 207 l 682 207 l 682 0 l 485 0 l 485 207 l 49 207 l 49 344 l 399 1018 l 610 1018 l 275 379 l 485 379 l 485 617 l 682 617 z "},"5":{"ha":835,"x_min":92,"x_max":761,"o":"m 446 661 q 606 620 533 661 q 719 503 678 579 q 761 329 761 428 q 715 144 761 222 q 588 24 668 65 q 410 -17 507 -17 q 210 36 294 -17 q 92 196 126 89 l 254 289 q 313 194 272 226 q 407 163 353 163 q 512 208 475 163 q 549 322 549 253 q 510 438 549 392 q 401 485 472 485 q 256 394 310 485 l 111 465 l 181 1018 l 714 1018 l 714 846 l 350 846 l 322 636 q 446 661 382 661 z "},"6":{"ha":835,"x_min":67,"x_max":783,"o":"m 461 647 q 629 606 556 647 q 743 492 703 565 q 783 324 783 418 q 735 147 783 225 q 605 26 688 69 q 425 -17 522 -17 q 243 27 325 -17 q 114 150 161 71 q 67 333 67 229 q 96 483 67 411 q 199 671 125 554 l 418 1018 l 636 1018 l 438 713 q 386 638 414 675 q 461 647 419 647 m 424 164 q 529 208 489 164 q 569 321 569 251 q 529 434 569 390 q 424 478 489 478 q 317 434 357 478 q 276 321 276 390 q 317 207 276 250 q 424 164 358 164 z "},"7":{"ha":835,"x_min":75,"x_max":757,"o":"m 531 842 l 75 842 l 75 1018 l 757 1018 l 757 893 l 406 0 l 186 0 l 531 842 z "},"8":{"ha":835,"x_min":57,"x_max":778,"o":"m 614 553 q 734 449 690 515 q 778 292 778 383 q 734 131 778 201 q 609 22 690 61 q 421 -17 528 -17 q 228 22 311 -17 q 101 131 146 61 q 57 292 57 201 q 101 449 57 383 q 224 551 146 515 q 126 638 161 585 q 92 761 92 692 q 131 899 92 836 q 244 999 169 963 q 421 1036 319 1036 q 594 999 522 1036 q 702 901 665 963 q 739 761 739 839 q 706 638 739 692 q 614 553 672 585 m 421 868 q 334 835 367 868 q 301 751 301 801 q 334 668 301 701 q 421 635 367 635 q 507 668 474 635 q 540 751 540 701 q 507 834 540 800 q 421 868 474 868 m 421 163 q 525 202 485 163 q 565 310 565 242 q 526 421 565 379 q 421 463 486 463 q 313 421 353 463 q 272 310 272 379 q 313 202 272 242 q 421 163 354 163 z "},"9":{"ha":835,"x_min":51,"x_max":769,"o":"m 411 1036 q 593 992 511 1036 q 722 869 675 949 q 769 686 769 790 q 740 537 769 608 q 638 349 711 465 l 418 1 l 200 1 l 399 307 q 450 382 422 344 q 375 372 417 372 q 207 413 281 372 q 92 528 133 454 q 51 696 51 601 q 100 872 51 794 q 231 993 149 950 q 411 1036 314 1036 m 413 542 q 519 585 479 542 q 560 699 560 629 q 519 813 560 769 q 413 856 478 856 q 307 812 347 856 q 267 699 267 768 q 307 585 267 629 q 413 542 347 542 z "},"\u0000":{"ha":833,"x_min":0,"x_max":0,"o":""}," ":{"ha":375,"x_min":0,"x_max":0,"o":""},"A":{"ha":1004,"x_min":8,"x_max":994,"o":"m 583 1017 l 994 0 l 781 0 l 692 232 l 296 232 l 210 0 l 8 0 l 407 1017 l 583 1017 m 626 404 l 490 761 l 358 404 l 626 404 z "},"Á":{"ha":1004,"x_min":8,"x_max":994,"o":"m 439 1111 l 568 1289 l 768 1289 l 596 1111 l 439 1111 m 583 1017 l 994 0 l 781 0 l 692 232 l 296 232 l 210 0 l 8 0 l 407 1017 l 583 1017 m 626 404 l 490 761 l 358 404 l 626 404 z "},"Ă":{"ha":1004,"x_min":8,"x_max":994,"o":"m 510 1110 q 333 1158 399 1110 q 267 1289 267 1206 l 417 1289 q 444 1226 421 1249 q 510 1204 468 1204 q 606 1289 594 1204 l 756 1289 q 690 1158 756 1206 q 510 1110 624 1110 m 583 1017 l 994 0 l 781 0 l 692 232 l 296 232 l 210 0 l 8 0 l 407 1017 l 583 1017 m 626 404 l 490 761 l 358 404 l 626 404 z "},"Ắ":{"ha":1004,"x_min":8,"x_max":994,"o":"m 439 1200 l 568 1289 l 768 1289 l 596 1200 l 439 1200 m 510 1082 q 333 1106 399 1082 q 267 1172 267 1131 l 417 1172 q 510 1142 425 1142 q 606 1172 594 1142 l 756 1172 q 690 1106 756 1131 q 510 1082 624 1082 m 583 1017 l 994 0 l 781 0 l 692 232 l 296 232 l 210 0 l 8 0 l 407 1017 l 583 1017 m 626 404 l 490 761 l 358 404 l 626 404 z "},"Ặ":{"ha":1004,"x_min":8,"x_max":994,"o":"m 510 1110 q 333 1158 399 1110 q 267 1289 267 1206 l 417 1289 q 444 1226 421 1249 q 510 1204 468 1204 q 606 1289 594 1204 l 756 1289 q 690 1158 756 1206 q 510 1110 624 1110 m 583 1017 l 994 0 l 781 0 l 692 232 l 296 232 l 210 0 l 8 0 l 407 1017 l 583 1017 m 626 404 l 490 761 l 358 404 l 626 404 m 510 -308 q 429 -274 463 -308 q 396 -194 396 -240 q 429 -115 396 -149 q 510 -82 463 -82 q 591 -115 557 -82 q 625 -194 625 -149 q 591 -274 625 -240 q 510 -308 557 -308 z "},"Ằ":{"ha":1004,"x_min":8,"x_max":994,"o":"m 253 1289 l 453 1289 l 582 1200 l 425 1200 l 253 1289 m 510 1082 q 333 1106 399 1082 q 267 1172 267 1131 l 417 1172 q 510 1142 425 1142 q 606 1172 594 1142 l 756 1172 q 690 1106 756 1131 q 510 1082 624 1082 m 583 1017 l 994 0 l 781 0 l 692 232 l 296 232 l 210 0 l 8 0 l 407 1017 l 583 1017 m 626 404 l 490 761 l 358 404 l 626 404 z "},"Ẳ":{"ha":1004,"x_min":8,"x_max":994,"o":"m 344 1272 q 488 1288 403 1288 q 614 1275 565 1288 q 663 1238 663 1263 q 500 1172 663 1192 l 438 1208 q 532 1226 532 1215 q 472 1238 532 1238 q 369 1229 424 1238 l 344 1272 m 510 1082 q 333 1105 399 1082 q 267 1167 267 1128 l 417 1167 q 510 1139 425 1139 q 606 1167 594 1139 l 756 1167 q 690 1105 756 1128 q 510 1082 624 1082 m 583 1017 l 994 0 l 781 0 l 692 232 l 296 232 l 210 0 l 8 0 l 407 1017 l 583 1017 m 626 404 l 490 761 l 358 404 l 626 404 z "},"Ẵ":{"ha":1004,"x_min":8,"x_max":994,"o":"m 244 1207 q 294 1266 247 1243 q 414 1289 340 1289 q 486 1283 458 1289 q 544 1267 514 1278 q 596 1256 581 1256 q 644 1281 633 1256 l 776 1281 q 728 1222 774 1244 q 607 1199 682 1199 q 535 1204 563 1199 q 476 1221 507 1210 q 425 1232 440 1232 q 376 1207 388 1232 l 244 1207 m 510 1082 q 333 1106 399 1082 q 267 1172 267 1131 l 417 1172 q 510 1142 425 1142 q 606 1172 594 1142 l 756 1172 q 690 1106 756 1131 q 510 1082 624 1082 m 583 1017 l 994 0 l 781 0 l 692 232 l 296 232 l 210 0 l 8 0 l 407 1017 l 583 1017 m 626 404 l 490 761 l 358 404 l 626 404 z "},"Ǎ":{"ha":1004,"x_min":8,"x_max":994,"o":"m 419 1289 l 510 1199 l 600 1289 l 769 1289 l 585 1110 l 435 1110 l 250 1289 l 419 1289 m 583 1017 l 994 0 l 781 0 l 692 232 l 296 232 l 210 0 l 8 0 l 407 1017 l 583 1017 m 626 404 l 490 761 l 358 404 l 626 404 z "},"Â":{"ha":1004,"x_min":8,"x_max":994,"o":"m 435 1289 l 585 1289 l 769 1110 l 600 1110 l 510 1201 l 419 1110 l 250 1110 l 435 1289 m 583 1017 l 994 0 l 781 0 l 692 232 l 296 232 l 210 0 l 8 0 l 407 1017 l 583 1017 m 626 404 l 490 761 l 358 404 l 626 404 z "},"Ấ":{"ha":1004,"x_min":8,"x_max":994,"o":"m 628 1193 l 757 1289 l 957 1289 l 786 1193 l 628 1193 m 435 1178 l 585 1178 l 769 1082 l 589 1082 l 510 1122 l 431 1082 l 250 1082 l 435 1178 m 583 1017 l 994 0 l 781 0 l 692 232 l 296 232 l 210 0 l 8 0 l 407 1017 l 583 1017 m 626 404 l 490 761 l 358 404 l 626 404 z "},"Ậ":{"ha":1004,"x_min":8,"x_max":994,"o":"m 435 1289 l 585 1289 l 769 1110 l 600 1110 l 510 1201 l 419 1110 l 250 1110 l 435 1289 m 583 1017 l 994 0 l 781 0 l 692 232 l 296 232 l 210 0 l 8 0 l 407 1017 l 583 1017 m 626 404 l 490 761 l 358 404 l 626 404 m 510 -308 q 429 -274 463 -308 q 396 -194 396 -240 q 429 -115 396 -149 q 510 -82 463 -82 q 591 -115 557 -82 q 625 -194 625 -149 q 591 -274 625 -240 q 510 -308 557 -308 z "},"Ầ":{"ha":1004,"x_min":8,"x_max":994,"o":"m 443 1289 l 643 1289 l 772 1193 l 614 1193 l 443 1289 m 435 1178 l 585 1178 l 769 1082 l 594 1082 l 510 1125 l 425 1082 l 250 1082 l 435 1178 m 583 1017 l 994 0 l 781 0 l 692 232 l 296 232 l 210 0 l 8 0 l 407 1017 l 583 1017 m 626 404 l 490 761 l 358 404 l 626 404 z "},"Ẩ":{"ha":1004,"x_min":8,"x_max":994,"o":"m 535 1272 q 676 1289 597 1289 q 803 1275 754 1289 q 853 1233 853 1261 q 809 1191 853 1207 q 690 1164 765 1175 l 628 1201 q 722 1222 722 1211 q 706 1231 722 1228 q 663 1235 689 1235 q 558 1225 608 1235 l 535 1272 m 435 1175 l 585 1175 l 769 1082 l 589 1082 l 510 1121 l 431 1082 l 250 1082 l 435 1175 m 583 1017 l 994 0 l 781 0 l 692 232 l 296 232 l 210 0 l 8 0 l 407 1017 l 583 1017 m 626 404 l 490 761 l 358 404 l 626 404 z "},"Ẫ":{"ha":1004,"x_min":8,"x_max":994,"o":"m 244 1203 q 293 1265 247 1242 q 414 1289 339 1289 q 486 1283 458 1289 q 544 1267 514 1278 q 596 1254 576 1254 q 644 1281 633 1254 l 776 1281 q 728 1218 774 1242 q 607 1194 682 1194 q 535 1200 563 1194 q 476 1217 507 1206 q 425 1229 444 1229 q 376 1203 388 1229 l 244 1203 m 435 1176 l 585 1176 l 769 1082 l 589 1082 l 510 1121 l 431 1082 l 250 1082 l 435 1176 m 583 1017 l 994 0 l 781 0 l 692 232 l 296 232 l 210 0 l 8 0 l 407 1017 l 583 1017 m 626 404 l 490 761 l 358 404 l 626 404 z "},"Ä":{"ha":1004,"x_min":8,"x_max":994,"o":"m 353 1075 q 280 1106 310 1075 q 250 1182 250 1138 q 280 1258 250 1226 q 353 1289 310 1289 q 428 1258 397 1289 q 458 1182 458 1226 q 428 1106 458 1138 q 353 1075 397 1075 m 665 1075 q 592 1107 622 1075 q 561 1182 561 1139 q 592 1258 561 1226 q 665 1289 622 1289 q 739 1258 708 1289 q 769 1182 769 1226 q 739 1106 769 1138 q 665 1075 708 1075 m 583 1017 l 994 0 l 781 0 l 692 232 l 296 232 l 210 0 l 8 0 l 407 1017 l 583 1017 m 626 404 l 490 761 l 358 404 l 626 404 z "},"Ạ":{"ha":1004,"x_min":8,"x_max":994,"o":"m 583 1017 l 994 0 l 781 0 l 692 232 l 296 232 l 210 0 l 8 0 l 407 1017 l 583 1017 m 626 404 l 490 761 l 358 404 l 626 404 m 510 -308 q 429 -274 463 -308 q 396 -194 396 -240 q 429 -115 396 -149 q 510 -82 463 -82 q 591 -115 557 -82 q 625 -194 625 -149 q 591 -274 625 -240 q 510 -308 557 -308 z "},"À":{"ha":1004,"x_min":8,"x_max":994,"o":"m 253 1289 l 453 1289 l 582 1111 l 425 1111 l 253 1289 m 583 1017 l 994 0 l 781 0 l 692 232 l 296 232 l 210 0 l 8 0 l 407 1017 l 583 1017 m 626 404 l 490 761 l 358 404 l 626 404 z "},"Ả":{"ha":1004,"x_min":8,"x_max":994,"o":"m 344 1261 q 488 1289 403 1289 q 613 1265 564 1289 q 663 1193 663 1242 q 500 1074 663 1108 l 433 1138 q 524 1183 524 1158 q 508 1203 524 1196 q 467 1210 493 1210 q 369 1186 421 1210 l 344 1261 m 583 1017 l 994 0 l 781 0 l 692 232 l 296 232 l 210 0 l 8 0 l 407 1017 l 583 1017 m 626 404 l 490 761 l 358 404 l 626 404 z "},"Ā":{"ha":1004,"x_min":8,"x_max":994,"o":"m 272 1154 l 272 1286 l 747 1286 l 747 1154 l 272 1154 m 583 1017 l 994 0 l 781 0 l 692 232 l 296 232 l 210 0 l 8 0 l 407 1017 l 583 1017 m 626 404 l 490 761 l 358 404 l 626 404 z "},"Ą":{"ha":1004,"x_min":8,"x_max":1082,"o":"m 1082 -268 q 1003 -322 1046 -304 q 900 -339 960 -339 q 762 -301 817 -339 q 707 -187 707 -264 q 735 -87 707 -132 q 815 0 764 -42 l 781 0 l 692 232 l 296 232 l 210 0 l 8 0 l 407 1017 l 583 1017 l 994 0 q 881 -81 917 -43 q 844 -161 844 -119 q 864 -210 844 -194 q 915 -226 883 -226 q 1018 -179 971 -226 l 1082 -268 m 490 761 l 358 404 l 626 404 l 490 761 z "},"Å":{"ha":1004,"x_min":8,"x_max":994,"o":"m 343 1190 q 391 1261 343 1233 q 510 1289 439 1289 q 627 1261 581 1289 q 674 1190 674 1233 q 627 1119 674 1147 q 510 1090 581 1090 q 391 1119 439 1090 q 343 1190 343 1147 m 446 1190 q 463 1160 446 1172 q 510 1149 481 1149 q 555 1160 538 1149 q 572 1190 572 1172 q 555 1219 572 1208 q 510 1231 538 1231 q 463 1219 481 1231 q 446 1190 446 1208 m 583 1017 l 994 0 l 781 0 l 692 232 l 296 232 l 210 0 l 8 0 l 407 1017 l 583 1017 m 626 404 l 490 761 l 358 404 l 626 404 z "},"Ǻ":{"ha":1004,"x_min":8,"x_max":994,"o":"m 428 1211 l 544 1289 l 735 1289 l 579 1211 l 428 1211 m 357 1124 q 400 1169 357 1151 q 510 1188 443 1188 q 618 1169 576 1188 q 660 1124 660 1151 q 618 1078 660 1096 q 510 1060 576 1060 q 400 1078 443 1060 q 357 1124 357 1096 m 454 1122 q 469 1110 454 1115 q 510 1104 485 1104 q 548 1110 533 1104 q 563 1122 563 1115 q 549 1136 563 1131 q 510 1142 535 1142 q 469 1136 485 1142 q 454 1122 454 1131 m 583 1017 l 994 0 l 781 0 l 692 232 l 296 232 l 210 0 l 8 0 l 407 1017 l 583 1017 m 626 404 l 490 761 l 358 404 l 626 404 z "},"Ḁ":{"ha":1004,"x_min":8,"x_max":994,"o":"m 583 1017 l 994 0 l 781 0 l 692 232 l 296 232 l 210 0 l 8 0 l 407 1017 l 583 1017 m 626 404 l 490 761 l 358 404 l 626 404 m 342 -187 q 390 -78 342 -119 q 508 -36 438 -36 q 627 -78 581 -36 q 674 -187 674 -119 q 627 -297 674 -256 q 508 -339 581 -339 q 390 -297 438 -339 q 342 -187 342 -256 m 446 -187 q 463 -229 446 -212 q 508 -246 479 -246 q 553 -229 536 -246 q 571 -187 571 -212 q 553 -145 571 -161 q 508 -129 536 -129 q 463 -144 479 -129 q 446 -187 446 -160 z "},"Ã":{"ha":1004,"x_min":8,"x_max":994,"o":"m 244 1126 q 293 1244 247 1199 q 414 1289 339 1289 q 487 1276 458 1289 q 544 1239 515 1263 q 572 1220 561 1226 q 596 1214 583 1214 q 644 1272 633 1214 l 776 1272 q 728 1155 774 1200 q 607 1110 682 1110 q 534 1123 563 1110 q 476 1160 506 1136 q 449 1178 460 1172 q 425 1185 438 1185 q 376 1126 388 1185 l 244 1126 m 583 1017 l 994 0 l 781 0 l 692 232 l 296 232 l 210 0 l 8 0 l 407 1017 l 583 1017 m 626 404 l 490 761 l 358 404 l 626 404 z "},"Æ":{"ha":1463,"x_min":1,"x_max":1403,"o":"m 1339 429 l 926 429 l 926 176 l 1403 176 l 1403 0 l 724 0 l 724 235 l 372 235 l 226 0 l 1 0 l 657 1017 l 1388 1017 l 1388 842 l 926 842 l 926 603 l 1339 603 l 1339 429 m 724 407 l 724 807 l 478 407 l 724 407 z "},"Ǽ":{"ha":1463,"x_min":1,"x_max":1403,"o":"m 828 1113 l 957 1289 l 1157 1289 l 986 1113 l 828 1113 m 1339 429 l 926 429 l 926 176 l 1403 176 l 1403 0 l 724 0 l 724 235 l 372 235 l 226 0 l 1 0 l 657 1017 l 1388 1017 l 1388 842 l 926 842 l 926 603 l 1339 603 l 1339 429 m 724 407 l 724 807 l 478 407 l 724 407 z "},"B":{"ha":944,"x_min":107,"x_max":896,"o":"m 728 528 q 896 293 896 468 q 795 78 896 156 q 513 0 694 0 l 107 0 l 107 1017 l 475 1017 q 740 942 638 1017 q 842 733 842 868 q 728 528 842 593 m 304 842 l 304 601 l 456 601 q 585 635 538 601 q 633 726 633 669 q 586 812 633 782 q 456 842 539 842 l 304 842 m 496 175 q 637 208 588 175 q 686 303 686 242 q 637 399 686 364 q 494 433 588 433 l 304 433 l 304 175 l 496 175 z "},"C":{"ha":946,"x_min":58,"x_max":922,"o":"m 542 168 q 669 207 615 168 q 754 315 722 246 l 922 218 q 785 49 885 115 q 546 -17 685 -17 q 300 49 411 -17 q 124 234 189 114 q 58 510 58 354 q 123 785 58 665 q 299 969 188 904 q 546 1035 411 1035 q 785 969 685 1035 q 922 800 885 903 l 754 703 q 669 811 722 772 q 542 850 615 850 q 403 808 464 850 q 306 690 342 767 q 271 510 271 613 q 306 329 271 407 q 403 210 342 251 q 542 168 464 168 z "},"Ć":{"ha":946,"x_min":58,"x_max":922,"o":"m 435 1111 l 564 1289 l 765 1289 l 593 1111 l 435 1111 m 542 168 q 669 207 615 168 q 754 315 722 246 l 922 218 q 785 49 885 115 q 546 -17 685 -17 q 300 49 411 -17 q 124 234 189 114 q 58 510 58 354 q 123 785 58 665 q 299 969 188 904 q 546 1035 411 1035 q 785 969 685 1035 q 922 800 885 903 l 754 703 q 669 811 722 772 q 542 850 615 850 q 403 808 464 850 q 306 690 342 767 q 271 510 271 613 q 306 329 271 407 q 403 210 342 251 q 542 168 464 168 z "},"Č":{"ha":946,"x_min":58,"x_max":922,"o":"m 417 1289 l 507 1199 l 597 1289 l 765 1289 l 582 1110 l 431 1110 l 247 1289 l 417 1289 m 542 168 q 669 207 615 168 q 754 315 722 246 l 922 218 q 785 49 885 115 q 546 -17 685 -17 q 300 49 411 -17 q 124 234 189 114 q 58 510 58 354 q 123 785 58 665 q 299 969 188 904 q 546 1035 411 1035 q 785 969 685 1035 q 922 800 885 903 l 754 703 q 669 811 722 772 q 542 850 615 850 q 403 808 464 850 q 306 690 342 767 q 271 510 271 613 q 306 329 271 407 q 403 210 342 251 q 542 168 464 168 z "},"Ç":{"ha":946,"x_min":58,"x_max":922,"o":"m 542 168 q 669 207 615 168 q 754 315 722 246 l 922 218 q 800 59 889 124 q 588 -15 711 -6 l 560 -79 q 669 -111 626 -79 q 713 -203 713 -143 q 653 -305 713 -271 q 508 -339 593 -339 q 397 -322 457 -339 l 397 -225 q 504 -242 451 -242 q 579 -206 579 -242 q 559 -178 579 -187 q 504 -169 539 -169 q 428 -178 469 -169 l 415 -112 l 461 -10 q 254 79 346 10 q 110 260 163 149 q 58 510 58 371 q 123 785 58 665 q 299 969 188 904 q 546 1035 411 1035 q 785 969 685 1035 q 922 800 885 903 l 754 703 q 669 811 722 772 q 542 850 615 850 q 403 808 464 850 q 306 690 342 767 q 271 510 271 613 q 306 329 271 407 q 403 210 342 251 q 542 168 464 168 z "},"Ĉ":{"ha":946,"x_min":58,"x_max":922,"o":"m 431 1289 l 582 1289 l 765 1110 l 597 1110 l 507 1200 l 417 1110 l 247 1110 l 431 1289 m 542 168 q 669 207 615 168 q 754 315 722 246 l 922 218 q 785 49 885 115 q 546 -17 685 -17 q 300 49 411 -17 q 124 234 189 114 q 58 510 58 354 q 123 785 58 665 q 299 969 188 904 q 546 1035 411 1035 q 785 969 685 1035 q 922 800 885 903 l 754 703 q 669 811 722 772 q 542 850 615 850 q 403 808 464 850 q 306 690 342 767 q 271 510 271 613 q 306 329 271 407 q 403 210 342 251 q 542 168 464 168 z "},"Ċ":{"ha":946,"x_min":58,"x_max":922,"o":"m 507 1113 q 435 1139 465 1113 q 404 1201 404 1165 q 434 1263 404 1238 q 507 1289 464 1289 q 582 1263 551 1289 q 613 1201 613 1238 q 581 1139 613 1165 q 507 1113 550 1113 m 542 168 q 669 207 615 168 q 754 315 722 246 l 922 218 q 785 49 885 115 q 546 -17 685 -17 q 300 49 411 -17 q 124 234 189 114 q 58 510 58 354 q 123 785 58 665 q 299 969 188 904 q 546 1035 411 1035 q 785 969 685 1035 q 922 800 885 903 l 754 703 q 669 811 722 772 q 542 850 615 850 q 403 808 464 850 q 306 690 342 767 q 271 510 271 613 q 306 329 271 407 q 403 210 342 251 q 542 168 464 168 z "},"D":{"ha":1032,"x_min":107,"x_max":974,"o":"m 446 1017 q 715 957 594 1017 q 904 783 835 897 q 974 510 974 668 q 904 236 974 351 q 715 60 835 121 q 446 0 596 0 l 107 0 l 107 1017 l 446 1017 m 422 172 q 674 260 586 172 q 761 510 761 347 q 673 758 761 669 q 422 846 585 846 l 308 846 l 308 172 l 422 172 z "},"Ð":{"ha":1072,"x_min":29,"x_max":1013,"o":"m 485 1017 q 753 957 633 1017 q 943 783 874 897 q 1013 510 1013 668 q 943 236 1013 351 q 754 60 874 121 q 485 0 635 0 l 146 0 l 146 429 l 29 429 l 29 607 l 146 607 l 146 1017 l 485 1017 m 461 172 q 713 260 625 172 q 800 510 800 347 q 712 758 800 669 q 461 846 624 846 l 347 846 l 347 607 l 524 607 l 524 429 l 347 429 l 347 172 l 461 172 z "},"Ď":{"ha":1032,"x_min":107,"x_max":974,"o":"m 344 1289 l 436 1199 l 526 1289 l 694 1289 l 511 1110 l 360 1110 l 176 1289 l 344 1289 m 446 1017 q 715 957 594 1017 q 904 783 835 897 q 974 510 974 668 q 904 236 974 351 q 715 60 835 121 q 446 0 596 0 l 107 0 l 107 1017 l 446 1017 m 422 172 q 674 260 586 172 q 761 510 761 347 q 673 758 761 669 q 422 846 585 846 l 308 846 l 308 172 l 422 172 z "},"Đ":{"ha":1072,"x_min":29,"x_max":1013,"o":"m 485 1017 q 753 957 633 1017 q 943 783 874 897 q 1013 510 1013 668 q 943 236 1013 351 q 754 60 874 121 q 485 0 635 0 l 146 0 l 146 429 l 29 429 l 29 607 l 146 607 l 146 1017 l 485 1017 m 461 172 q 713 260 625 172 q 800 510 800 347 q 712 758 800 669 q 461 846 624 846 l 347 846 l 347 607 l 524 607 l 524 429 l 347 429 l 347 172 l 461 172 z "},"E":{"ha":844,"x_min":107,"x_max":785,"o":"m 721 429 l 308 429 l 308 176 l 785 176 l 785 0 l 107 0 l 107 1017 l 769 1017 l 769 842 l 308 842 l 308 603 l 721 603 l 721 429 z "},"É":{"ha":844,"x_min":107,"x_max":785,"o":"m 363 1111 l 492 1289 l 693 1289 l 521 1111 l 363 1111 m 721 429 l 308 429 l 308 176 l 785 176 l 785 0 l 107 0 l 107 1017 l 769 1017 l 769 842 l 308 842 l 308 603 l 721 603 l 721 429 z "},"Ĕ":{"ha":844,"x_min":107,"x_max":785,"o":"m 435 1108 q 257 1157 324 1108 q 190 1289 190 1206 l 342 1289 q 369 1226 346 1249 q 435 1204 393 1204 q 529 1289 521 1204 l 681 1289 q 614 1157 681 1206 q 435 1108 547 1108 m 721 429 l 308 429 l 308 176 l 785 176 l 785 0 l 107 0 l 107 1017 l 769 1017 l 769 842 l 308 842 l 308 603 l 721 603 l 721 429 z "},"Ě":{"ha":844,"x_min":107,"x_max":785,"o":"m 344 1289 l 435 1199 l 525 1289 l 693 1289 l 510 1110 l 358 1110 l 175 1289 l 344 1289 m 721 429 l 308 429 l 308 176 l 785 176 l 785 0 l 107 0 l 107 1017 l 769 1017 l 769 842 l 308 842 l 308 603 l 721 603 l 721 429 z "},"Ê":{"ha":844,"x_min":107,"x_max":785,"o":"m 358 1289 l 510 1289 l 693 1110 l 525 1110 l 435 1200 l 344 1110 l 175 1110 l 358 1289 m 721 429 l 308 429 l 308 176 l 785 176 l 785 0 l 107 0 l 107 1017 l 769 1017 l 769 842 l 308 842 l 308 603 l 721 603 l 721 429 z "},"Ế":{"ha":844,"x_min":107,"x_max":882,"o":"m 553 1193 l 682 1289 l 882 1289 l 711 1193 l 553 1193 m 358 1178 l 510 1178 l 693 1082 l 513 1082 l 435 1122 l 356 1082 l 175 1082 l 358 1178 m 721 429 l 308 429 l 308 176 l 785 176 l 785 0 l 107 0 l 107 1017 l 769 1017 l 769 842 l 308 842 l 308 603 l 721 603 l 721 429 z "},"Ệ":{"ha":844,"x_min":107,"x_max":785,"o":"m 358 1289 l 510 1289 l 693 1110 l 525 1110 l 435 1201 l 344 1110 l 175 1110 l 358 1289 m 721 429 l 308 429 l 308 176 l 785 176 l 785 0 l 107 0 l 107 1017 l 769 1017 l 769 842 l 308 842 l 308 603 l 721 603 l 721 429 m 435 -308 q 354 -274 388 -308 q 321 -194 321 -240 q 354 -115 321 -149 q 435 -82 388 -82 q 517 -115 482 -82 q 551 -194 551 -149 q 517 -274 551 -240 q 435 -308 482 -308 z "},"Ề":{"ha":844,"x_min":107,"x_max":785,"o":"m 367 1289 l 568 1289 l 697 1193 l 539 1193 l 367 1289 m 358 1178 l 510 1178 l 693 1082 l 519 1082 l 435 1125 l 350 1082 l 175 1082 l 358 1178 m 721 429 l 308 429 l 308 176 l 785 176 l 785 0 l 107 0 l 107 1017 l 769 1017 l 769 842 l 308 842 l 308 603 l 721 603 l 721 429 z "},"Ể":{"ha":856,"x_min":107,"x_max":785,"o":"m 458 1272 q 601 1289 522 1289 q 728 1275 678 1289 q 778 1233 778 1261 q 734 1191 778 1207 q 614 1164 690 1175 l 551 1201 q 646 1222 646 1211 q 629 1231 646 1228 q 588 1235 613 1235 q 483 1225 533 1235 l 458 1272 m 358 1175 l 510 1175 l 693 1082 l 513 1082 l 435 1121 l 356 1082 l 175 1082 l 358 1175 m 721 429 l 308 429 l 308 176 l 785 176 l 785 0 l 107 0 l 107 1017 l 769 1017 l 769 842 l 308 842 l 308 603 l 721 603 l 721 429 z "},"Ễ":{"ha":844,"x_min":107,"x_max":785,"o":"m 175 1203 q 224 1265 178 1242 q 346 1289 271 1289 q 419 1283 390 1289 q 475 1267 447 1276 q 528 1254 507 1254 q 576 1281 564 1254 l 708 1281 q 659 1218 706 1242 q 538 1194 613 1194 q 465 1201 493 1194 q 408 1217 436 1207 q 356 1229 376 1229 q 307 1203 321 1229 l 175 1203 m 365 1176 l 517 1176 l 700 1082 l 519 1082 l 442 1121 l 363 1082 l 182 1082 l 365 1176 m 721 429 l 308 429 l 308 176 l 785 176 l 785 0 l 107 0 l 107 1017 l 769 1017 l 769 842 l 308 842 l 308 603 l 721 603 l 721 429 z "},"Ë":{"ha":844,"x_min":107,"x_max":785,"o":"m 278 1113 q 205 1139 235 1113 q 175 1201 175 1165 q 205 1263 175 1238 q 278 1289 235 1289 q 353 1263 322 1289 q 383 1201 383 1238 q 353 1139 383 1165 q 278 1113 322 1113 m 589 1113 q 516 1139 546 1113 q 486 1201 486 1165 q 516 1263 486 1238 q 589 1289 546 1289 q 663 1263 632 1289 q 694 1201 694 1238 q 663 1139 694 1165 q 589 1113 632 1113 m 721 429 l 308 429 l 308 176 l 785 176 l 785 0 l 107 0 l 107 1017 l 769 1017 l 769 842 l 308 842 l 308 603 l 721 603 l 721 429 z "},"Ė":{"ha":844,"x_min":107,"x_max":785,"o":"m 435 1113 q 363 1139 393 1113 q 332 1201 332 1165 q 362 1263 332 1238 q 435 1289 392 1289 q 510 1263 479 1289 q 540 1201 540 1238 q 509 1139 540 1165 q 435 1113 478 1113 m 721 429 l 308 429 l 308 176 l 785 176 l 785 0 l 107 0 l 107 1017 l 769 1017 l 769 842 l 308 842 l 308 603 l 721 603 l 721 429 z "},"Ẹ":{"ha":844,"x_min":107,"x_max":785,"o":"m 721 429 l 308 429 l 308 176 l 785 176 l 785 0 l 107 0 l 107 1017 l 769 1017 l 769 842 l 308 842 l 308 603 l 721 603 l 721 429 m 435 -308 q 354 -274 388 -308 q 321 -194 321 -240 q 354 -115 321 -149 q 435 -82 388 -82 q 517 -115 482 -82 q 551 -194 551 -149 q 517 -274 551 -240 q 435 -308 482 -308 z "},"È":{"ha":844,"x_min":107,"x_max":785,"o":"m 178 1289 l 378 1289 l 507 1111 l 349 1111 l 178 1289 m 721 429 l 308 429 l 308 176 l 785 176 l 785 0 l 107 0 l 107 1017 l 769 1017 l 769 842 l 308 842 l 308 603 l 721 603 l 721 429 z "},"Ẻ":{"ha":844,"x_min":107,"x_max":785,"o":"m 269 1261 q 413 1289 325 1289 q 538 1265 489 1289 q 588 1193 588 1242 q 425 1072 588 1108 l 358 1136 q 426 1158 403 1147 q 449 1182 449 1169 q 433 1202 449 1194 q 392 1210 417 1210 q 294 1186 346 1210 l 269 1261 m 721 429 l 308 429 l 308 176 l 785 176 l 785 0 l 107 0 l 107 1017 l 769 1017 l 769 842 l 308 842 l 308 603 l 721 603 l 721 429 z "},"Ē":{"ha":844,"x_min":107,"x_max":785,"o":"m 197 1154 l 197 1286 l 672 1286 l 672 1154 l 197 1154 m 721 429 l 308 429 l 308 176 l 785 176 l 785 0 l 107 0 l 107 1017 l 769 1017 l 769 842 l 308 842 l 308 603 l 721 603 l 721 429 z "},"Ę":{"ha":844,"x_min":107,"x_max":872,"o":"m 872 -269 q 793 -322 836 -304 q 690 -339 750 -339 q 552 -301 607 -339 q 497 -187 497 -264 q 607 0 497 -83 l 107 0 l 107 1017 l 769 1017 l 769 842 l 308 842 l 308 603 l 721 603 l 721 429 l 308 429 l 308 176 l 785 176 l 785 0 q 671 -81 707 -43 q 635 -162 635 -119 q 654 -210 635 -194 q 706 -226 674 -226 q 808 -179 761 -226 l 872 -269 z "},"Ẽ":{"ha":844,"x_min":107,"x_max":785,"o":"m 168 1126 q 217 1244 171 1199 q 339 1289 264 1289 q 412 1276 383 1289 q 468 1239 440 1263 q 497 1219 486 1225 q 521 1213 508 1213 q 569 1272 557 1213 l 701 1272 q 653 1153 699 1199 q 532 1108 607 1108 q 458 1122 486 1108 q 400 1158 429 1135 q 350 1185 371 1185 q 300 1126 314 1185 l 168 1126 m 721 429 l 308 429 l 308 176 l 785 176 l 785 0 l 107 0 l 107 1017 l 769 1017 l 769 842 l 308 842 l 308 603 l 721 603 l 721 429 z "},"F":{"ha":804,"x_min":107,"x_max":769,"o":"m 107 1017 l 769 1017 l 769 840 l 308 840 l 308 581 l 721 581 l 721 406 l 308 406 l 308 0 l 107 0 l 107 1017 z "},"G":{"ha":1003,"x_min":58,"x_max":944,"o":"m 556 390 l 556 564 l 944 564 l 944 150 q 794 28 897 74 q 565 -17 690 -17 q 301 50 417 -17 q 122 236 186 117 q 58 510 58 356 q 124 785 58 665 q 306 969 190 904 q 561 1035 421 1035 q 805 972 701 1035 q 944 810 908 908 l 778 714 q 690 815 747 778 q 556 851 633 851 q 408 810 474 851 q 306 690 343 768 q 268 510 268 613 q 306 326 268 404 q 415 207 344 249 q 578 165 485 165 q 747 225 686 165 l 747 390 l 556 390 z "},"Ğ":{"ha":1003,"x_min":58,"x_max":944,"o":"m 551 1110 q 374 1158 440 1110 q 307 1288 307 1206 l 458 1288 q 551 1204 467 1204 q 646 1288 638 1204 l 797 1288 q 731 1158 797 1206 q 551 1110 664 1110 m 556 390 l 556 564 l 944 564 l 944 150 q 794 28 897 74 q 565 -17 690 -17 q 301 50 417 -17 q 122 236 186 117 q 58 510 58 356 q 124 785 58 665 q 306 969 190 904 q 561 1035 421 1035 q 805 972 701 1035 q 944 810 908 908 l 778 714 q 690 815 747 778 q 556 851 633 851 q 408 810 474 851 q 306 690 343 768 q 268 510 268 613 q 306 326 268 404 q 415 207 344 249 q 578 165 485 165 q 747 225 686 165 l 747 390 l 556 390 z "},"Ĝ":{"ha":1003,"x_min":58,"x_max":944,"o":"m 475 1289 l 626 1289 l 810 1111 l 642 1111 l 551 1201 l 460 1111 l 292 1111 l 475 1289 m 556 390 l 556 564 l 944 564 l 944 150 q 794 28 897 74 q 565 -17 690 -17 q 301 50 417 -17 q 122 236 186 117 q 58 510 58 356 q 124 785 58 665 q 306 969 190 904 q 561 1035 421 1035 q 805 972 701 1035 q 944 810 908 908 l 778 714 q 690 815 747 778 q 556 851 633 851 q 408 810 474 851 q 306 690 343 768 q 268 510 268 613 q 306 326 268 404 q 415 207 344 249 q 578 165 485 165 q 747 225 686 165 l 747 390 l 556 390 z "},"Ģ":{"ha":1003,"x_min":58,"x_max":944,"o":"m 747 390 l 556 390 l 556 564 l 944 564 l 944 150 q 794 28 897 74 q 565 -17 690 -17 q 301 50 417 -17 q 122 236 186 117 q 58 510 58 356 q 124 785 58 665 q 306 969 190 904 q 561 1035 421 1035 q 805 972 701 1035 q 944 810 908 908 l 778 714 q 690 815 747 778 q 556 851 633 851 q 408 810 474 851 q 306 690 343 768 q 268 510 268 613 q 306 326 268 404 q 415 207 344 249 q 578 165 485 165 q 747 225 686 165 l 747 390 m 546 -46 q 633 -76 600 -46 q 665 -167 665 -107 q 609 -289 665 -244 q 449 -339 553 -333 l 449 -264 q 551 -207 536 -251 l 544 -207 q 472 -186 499 -207 q 444 -129 444 -165 q 473 -69 444 -92 q 546 -46 501 -46 z "},"Ġ":{"ha":1003,"x_min":58,"x_max":944,"o":"m 550 1114 q 478 1140 508 1114 q 449 1203 449 1167 q 478 1263 449 1238 q 550 1289 508 1289 q 625 1263 594 1289 q 656 1203 656 1238 q 625 1140 656 1167 q 550 1114 594 1114 m 556 390 l 556 564 l 944 564 l 944 150 q 794 28 897 74 q 565 -17 690 -17 q 301 50 417 -17 q 122 236 186 117 q 58 510 58 356 q 124 785 58 665 q 306 969 190 904 q 561 1035 421 1035 q 805 972 701 1035 q 944 810 908 908 l 778 714 q 690 815 747 778 q 556 851 633 851 q 408 810 474 851 q 306 690 343 768 q 268 510 268 613 q 306 326 268 404 q 415 207 344 249 q 578 165 485 165 q 747 225 686 165 l 747 390 l 556 390 z "},"H":{"ha":1076,"x_min":107,"x_max":969,"o":"m 308 617 l 767 617 l 767 1017 l 969 1017 l 969 0 l 767 0 l 767 438 l 308 438 l 308 0 l 107 0 l 107 1017 l 308 1017 l 308 617 z "},"Ħ":{"ha":1128,"x_min":36,"x_max":1090,"o":"m 996 1017 l 996 876 l 1090 876 l 1090 732 l 996 732 l 996 0 l 793 0 l 793 432 l 335 432 l 335 0 l 132 0 l 132 732 l 36 732 l 36 876 l 132 876 l 132 1017 l 335 1017 l 335 876 l 793 876 l 793 1017 l 996 1017 m 335 732 l 335 611 l 793 611 l 793 732 l 335 732 z "},"Ĥ":{"ha":1075,"x_min":107,"x_max":969,"o":"m 461 1289 l 613 1289 l 797 1110 l 628 1110 l 538 1200 l 447 1110 l 278 1110 l 461 1289 m 308 617 l 767 617 l 767 1017 l 969 1017 l 969 0 l 767 0 l 767 438 l 308 438 l 308 0 l 107 0 l 107 1017 l 308 1017 l 308 617 z "},"I":{"ha":414,"x_min":107,"x_max":308,"o":"m 308 0 l 107 0 l 107 1017 l 308 1017 l 308 0 z "},"Ĳ":{"ha":1138,"x_min":107,"x_max":1042,"o":"m 308 0 l 107 0 l 107 1017 l 308 1017 l 308 0 m 711 -17 q 517 37 599 -17 q 410 203 436 90 l 578 292 q 626 199 593 229 q 713 168 660 168 q 809 219 781 168 q 838 376 838 269 l 838 1017 l 1042 1017 l 1042 357 q 948 72 1042 160 q 711 -17 854 -17 z "},"Í":{"ha":414,"x_min":107,"x_max":465,"o":"m 136 1111 l 265 1289 l 465 1289 l 293 1111 l 136 1111 m 308 0 l 107 0 l 107 1017 l 308 1017 l 308 0 z "},"Ĭ":{"ha":414,"x_min":-36,"x_max":454,"o":"m 208 1108 q 31 1157 97 1108 q -36 1289 -36 1206 l 114 1289 q 208 1204 125 1204 q 303 1289 294 1204 l 454 1289 q 388 1157 454 1206 q 208 1108 321 1108 m 308 0 l 107 0 l 107 1017 l 308 1017 l 308 0 z "},"Ǐ":{"ha":414,"x_min":-53,"x_max":467,"o":"m 117 1289 l 208 1199 l 297 1289 l 467 1289 l 283 1110 l 132 1110 l -53 1289 l 117 1289 m 308 0 l 107 0 l 107 1017 l 308 1017 l 308 0 z "},"Î":{"ha":414,"x_min":-53,"x_max":467,"o":"m 132 1289 l 283 1289 l 467 1110 l 297 1110 l 208 1200 l 117 1110 l -53 1110 l 132 1289 m 308 0 l 107 0 l 107 1017 l 308 1017 l 308 0 z "},"Ï":{"ha":414,"x_min":-51,"x_max":467,"o":"m 50 1113 q -22 1139 8 1113 q -51 1201 -51 1165 q -22 1263 -51 1238 q 50 1289 8 1289 q 125 1263 94 1289 q 156 1201 156 1238 q 125 1139 156 1165 q 50 1113 94 1113 m 363 1113 q 290 1139 319 1113 q 260 1201 260 1165 q 290 1263 260 1238 q 363 1289 319 1289 q 436 1263 406 1289 q 467 1201 467 1238 q 436 1139 467 1165 q 363 1113 406 1113 m 308 0 l 107 0 l 107 1017 l 308 1017 l 308 0 z "},"İ":{"ha":414,"x_min":104,"x_max":313,"o":"m 207 1113 q 135 1139 165 1113 q 104 1201 104 1165 q 134 1263 104 1238 q 207 1289 164 1289 q 282 1263 251 1289 q 313 1201 313 1238 q 282 1139 313 1165 q 207 1113 251 1113 m 308 0 l 107 0 l 107 1017 l 308 1017 l 308 0 z "},"Ị":{"ha":414,"x_min":93,"x_max":324,"o":"m 308 0 l 107 0 l 107 1017 l 308 1017 l 308 0 m 208 -308 q 127 -274 161 -308 q 93 -194 93 -240 q 127 -115 93 -149 q 208 -82 161 -82 q 290 -115 256 -82 q 324 -194 324 -149 q 290 -274 324 -240 q 208 -308 256 -308 z "},"Ì":{"ha":414,"x_min":-50,"x_max":308,"o":"m -50 1289 l 151 1289 l 281 1111 l 122 1111 l -50 1289 m 308 0 l 107 0 l 107 1017 l 308 1017 l 308 0 z "},"Ỉ":{"ha":414,"x_min":42,"x_max":361,"o":"m 42 1261 q 185 1289 100 1289 q 311 1265 261 1289 q 361 1193 361 1242 q 197 1072 361 1107 l 132 1136 q 199 1158 176 1147 q 221 1182 221 1169 q 206 1202 221 1194 q 164 1210 190 1210 q 67 1186 118 1210 l 42 1261 m 308 0 l 107 0 l 107 1017 l 308 1017 l 308 0 z "},"Ī":{"ha":414,"x_min":-29,"x_max":446,"o":"m -29 1154 l -29 1286 l 446 1286 l 446 1154 l -29 1154 m 308 0 l 107 0 l 107 1017 l 308 1017 l 308 0 z "},"Į":{"ha":414,"x_min":21,"x_max":394,"o":"m 394 -269 q 214 -339 325 -339 q 75 -301 129 -339 q 21 -187 21 -264 q 49 -86 21 -132 q 129 0 78 -40 l 107 0 l 107 1017 l 308 1017 l 308 0 q 194 -81 231 -43 q 158 -162 158 -119 q 178 -210 158 -194 q 229 -226 197 -226 q 331 -179 283 -226 l 394 -269 z "},"Ĩ":{"ha":414,"x_min":-58,"x_max":475,"o":"m -58 1126 q -10 1244 -56 1199 q 111 1289 36 1289 q 185 1276 157 1289 q 243 1239 214 1263 q 293 1213 272 1213 q 343 1272 331 1213 l 475 1272 q 426 1153 472 1199 q 304 1108 379 1108 q 231 1122 260 1108 q 175 1158 203 1135 q 146 1178 157 1172 q 122 1185 135 1185 q 74 1126 88 1185 l -58 1126 m 308 0 l 107 0 l 107 1017 l 308 1017 l 308 0 z "},"J":{"ha":726,"x_min":0,"x_max":631,"o":"m 300 -17 q 107 38 188 -17 q 0 203 26 92 l 167 292 q 216 199 183 229 q 301 168 249 168 q 400 219 371 168 q 429 376 429 269 l 429 1017 l 631 1017 l 631 357 q 538 71 631 158 q 300 -17 444 -17 z "},"Ĵ":{"ha":722,"x_min":-4,"x_max":783,"o":"m 449 1289 l 600 1289 l 783 1110 l 615 1110 l 525 1200 l 433 1110 l 265 1110 l 449 1289 m 296 -17 q 103 38 183 -17 q -4 203 22 92 l 163 292 q 212 199 179 229 q 297 168 244 168 q 396 219 367 168 q 425 376 425 269 l 425 1017 l 626 1017 l 626 357 q 533 71 626 158 q 296 -17 440 -17 z "},"K":{"ha":1031,"x_min":107,"x_max":1024,"o":"m 592 601 l 1024 0 l 764 0 l 447 447 l 308 299 l 308 0 l 107 0 l 107 1017 l 308 1017 l 308 543 l 731 1017 l 982 1017 l 592 601 z "},"Ķ":{"ha":1031,"x_min":107,"x_max":1024,"o":"m 731 1017 l 982 1017 l 592 601 l 1024 0 l 764 0 l 447 447 l 308 299 l 308 0 l 107 0 l 107 1017 l 308 1017 l 308 543 l 731 1017 m 536 -46 q 623 -76 590 -46 q 656 -167 656 -107 q 599 -289 656 -244 q 439 -339 543 -333 l 439 -264 q 542 -207 526 -251 l 535 -207 q 462 -186 489 -207 q 435 -129 435 -165 q 463 -69 435 -92 q 536 -46 492 -46 z "},"L":{"ha":806,"x_min":107,"x_max":771,"o":"m 107 1017 l 308 1017 l 308 181 l 771 181 l 771 0 l 107 0 l 107 1017 z "},"Ĺ":{"ha":806,"x_min":107,"x_max":771,"o":"m 136 1113 l 265 1289 l 465 1289 l 293 1113 l 136 1113 m 107 1017 l 308 1017 l 308 181 l 771 181 l 771 0 l 107 0 l 107 1017 z "},"Ľ":{"ha":806,"x_min":107,"x_max":771,"o":"m 678 883 q 617 722 678 786 q 461 644 557 658 l 461 739 q 530 766 504 747 q 564 817 556 785 l 560 817 q 485 849 514 818 q 457 926 457 881 q 485 1003 457 972 q 558 1035 514 1035 q 643 996 608 1035 q 678 883 678 957 m 107 1017 l 308 1017 l 308 181 l 771 181 l 771 0 l 107 0 l 107 1017 z "},"Ļ":{"ha":806,"x_min":107,"x_max":771,"o":"m 107 1017 l 308 1017 l 308 181 l 771 181 l 771 0 l 107 0 l 107 1017 m 451 -46 q 538 -76 506 -46 q 571 -167 571 -107 q 515 -289 571 -244 q 354 -339 458 -333 l 354 -264 q 457 -207 442 -251 l 450 -207 q 377 -186 404 -207 q 350 -129 350 -165 q 378 -69 350 -92 q 451 -46 407 -46 z "},"Ŀ":{"ha":806,"x_min":107,"x_max":771,"o":"m 107 1017 l 308 1017 l 308 181 l 771 181 l 771 0 l 107 0 l 107 1017 m 550 442 q 470 477 504 442 q 436 560 436 513 q 469 643 436 608 q 550 678 503 678 q 633 643 599 678 q 667 560 667 608 q 633 477 667 513 q 550 442 599 442 z "},"Ł":{"ha":835,"x_min":19,"x_max":801,"o":"m 536 563 l 338 464 l 338 181 l 801 181 l 801 0 l 136 0 l 136 364 l 19 306 l 19 500 l 136 558 l 136 1017 l 338 1017 l 338 658 l 536 757 l 536 563 z "},"M":{"ha":1219,"x_min":107,"x_max":1113,"o":"m 960 1017 l 1113 1017 l 1113 0 l 921 0 l 921 656 l 663 271 l 557 271 l 297 658 l 297 0 l 107 0 l 107 1017 l 267 1017 l 614 490 l 960 1017 z "},"Ḿ":{"ha":1219,"x_min":107,"x_max":1113,"o":"m 539 1111 l 668 1289 l 868 1289 l 696 1111 l 539 1111 m 960 1017 l 1113 1017 l 1113 0 l 921 0 l 921 656 l 663 271 l 557 271 l 297 658 l 297 0 l 107 0 l 107 1017 l 267 1017 l 614 490 l 960 1017 z "},"N":{"ha":1056,"x_min":107,"x_max":950,"o":"m 269 1017 l 763 344 l 763 1017 l 950 1017 l 950 0 l 786 0 l 292 674 l 292 0 l 107 0 l 107 1017 l 269 1017 z "},"Ń":{"ha":1056,"x_min":107,"x_max":950,"o":"m 457 1111 l 586 1288 l 786 1288 l 614 1111 l 457 1111 m 269 1017 l 763 344 l 763 1017 l 950 1017 l 950 0 l 786 0 l 292 674 l 292 0 l 107 0 l 107 1017 l 269 1017 z "},"Ň":{"ha":1056,"x_min":107,"x_max":950,"o":"m 438 1289 l 528 1199 l 618 1289 l 788 1289 l 603 1110 l 453 1110 l 268 1289 l 438 1289 m 269 1017 l 763 344 l 763 1017 l 950 1017 l 950 0 l 786 0 l 292 674 l 292 0 l 107 0 l 107 1017 l 269 1017 z "},"Ņ":{"ha":1056,"x_min":107,"x_max":950,"o":"m 269 1017 l 763 344 l 763 1017 l 950 1017 l 950 0 l 786 0 l 292 674 l 292 0 l 107 0 l 107 1017 l 269 1017 m 524 -46 q 609 -76 576 -46 q 642 -167 642 -107 q 586 -289 642 -244 q 426 -339 531 -333 l 426 -264 q 529 -207 514 -250 l 522 -207 q 449 -186 476 -207 q 421 -129 421 -165 q 450 -69 421 -92 q 524 -46 479 -46 z "},"Ŋ":{"ha":1056,"x_min":107,"x_max":950,"o":"m 763 1017 l 950 1017 l 950 -28 q 874 -260 950 -182 q 681 -339 797 -339 q 513 -283 582 -339 l 586 -144 q 665 -171 621 -171 q 740 -130 717 -171 q 763 -11 763 -89 l 763 31 l 292 674 l 292 0 l 107 0 l 107 1017 l 269 1017 l 763 344 l 763 1017 z "},"Ñ":{"ha":1056,"x_min":107,"x_max":950,"o":"m 261 1126 q 310 1244 264 1199 q 432 1289 357 1289 q 505 1276 476 1289 q 563 1239 533 1263 q 590 1220 579 1226 q 614 1214 601 1214 q 663 1272 651 1214 l 794 1272 q 746 1155 792 1200 q 625 1110 700 1110 q 552 1123 581 1110 q 494 1160 524 1136 q 467 1178 478 1172 q 443 1185 456 1185 q 394 1126 406 1185 l 261 1126 m 269 1017 l 763 344 l 763 1017 l 950 1017 l 950 0 l 786 0 l 292 674 l 292 0 l 107 0 l 107 1017 l 269 1017 z "},"O":{"ha":1088,"x_min":58,"x_max":1029,"o":"m 58 510 q 122 789 58 669 q 297 972 186 908 q 543 1035 407 1035 q 790 972 679 1035 q 965 789 900 908 q 1029 510 1029 669 q 965 229 1029 349 q 790 47 900 110 q 543 -17 679 -17 q 297 47 407 -17 q 122 229 186 110 q 58 510 58 349 m 271 510 q 305 331 271 408 q 401 210 339 253 q 543 168 463 168 q 685 210 624 168 q 781 331 747 253 q 815 510 815 408 q 781 688 815 611 q 685 808 747 765 q 543 850 624 850 q 401 808 463 850 q 305 688 339 765 q 271 510 271 611 z "},"Ó":{"ha":1088,"x_min":58,"x_max":1029,"o":"m 472 1111 l 601 1289 l 801 1289 l 629 1111 l 472 1111 m 58 510 q 122 789 58 669 q 297 972 186 908 q 543 1035 407 1035 q 790 972 679 1035 q 965 789 900 908 q 1029 510 1029 669 q 965 229 1029 349 q 790 47 900 110 q 543 -17 679 -17 q 297 47 407 -17 q 122 229 186 110 q 58 510 58 349 m 271 510 q 305 331 271 408 q 401 210 339 253 q 543 168 463 168 q 685 210 624 168 q 781 331 747 253 q 815 510 815 408 q 781 688 815 611 q 685 808 747 765 q 543 850 624 850 q 401 808 463 850 q 305 688 339 765 q 271 510 271 611 z "},"Ŏ":{"ha":1088,"x_min":58,"x_max":1029,"o":"m 543 1108 q 366 1157 432 1108 q 300 1289 300 1206 l 450 1289 q 478 1226 454 1249 q 543 1204 501 1204 q 639 1289 628 1204 l 789 1289 q 723 1156 789 1204 q 543 1108 657 1108 m 58 510 q 122 789 58 669 q 297 972 186 908 q 543 1035 407 1035 q 790 972 679 1035 q 965 789 900 908 q 1029 510 1029 669 q 965 229 1029 349 q 790 47 900 110 q 543 -17 679 -17 q 297 47 407 -17 q 122 229 186 110 q 58 510 58 349 m 271 510 q 305 331 271 408 q 401 210 339 253 q 543 168 463 168 q 685 210 624 168 q 781 331 747 253 q 815 510 815 408 q 781 688 815 611 q 685 808 747 765 q 543 850 624 850 q 401 808 463 850 q 305 688 339 765 q 271 510 271 611 z "},"Ǒ":{"ha":1088,"x_min":58,"x_max":1029,"o":"m 453 1289 l 543 1199 l 633 1289 l 803 1289 l 618 1110 l 468 1110 l 283 1289 l 453 1289 m 58 510 q 122 789 58 669 q 297 972 186 908 q 543 1035 407 1035 q 790 972 679 1035 q 965 789 900 908 q 1029 510 1029 669 q 965 229 1029 349 q 790 47 900 110 q 543 -17 679 -17 q 297 47 407 -17 q 122 229 186 110 q 58 510 58 349 m 271 510 q 305 331 271 408 q 401 210 339 253 q 543 168 463 168 q 685 210 624 168 q 781 331 747 253 q 815 510 815 408 q 781 688 815 611 q 685 808 747 765 q 543 850 624 850 q 401 808 463 850 q 305 688 339 765 q 271 510 271 611 z "},"Ô":{"ha":1088,"x_min":58,"x_max":1029,"o":"m 468 1289 l 618 1289 l 803 1110 l 633 1110 l 543 1200 l 453 1110 l 283 1110 l 468 1289 m 58 510 q 122 789 58 669 q 297 972 186 908 q 543 1035 407 1035 q 790 972 679 1035 q 965 789 900 908 q 1029 510 1029 669 q 965 229 1029 349 q 790 47 900 110 q 543 -17 679 -17 q 297 47 407 -17 q 122 229 186 110 q 58 510 58 349 m 271 510 q 305 331 271 408 q 401 210 339 253 q 543 168 463 168 q 685 210 624 168 q 781 331 747 253 q 815 510 815 408 q 781 688 815 611 q 685 808 747 765 q 543 850 624 850 q 401 808 463 850 q 305 688 339 765 q 271 510 271 611 z "},"Ố":{"ha":1088,"x_min":58,"x_max":1029,"o":"m 661 1193 l 790 1289 l 990 1289 l 819 1193 l 661 1193 m 468 1178 l 618 1178 l 803 1082 l 622 1082 l 543 1122 l 464 1082 l 283 1082 l 468 1178 m 58 510 q 122 789 58 669 q 297 972 186 908 q 543 1035 407 1035 q 790 972 679 1035 q 965 789 900 908 q 1029 510 1029 669 q 965 229 1029 349 q 790 47 900 110 q 543 -17 679 -17 q 297 47 407 -17 q 122 229 186 110 q 58 510 58 349 m 271 510 q 305 331 271 408 q 401 210 339 253 q 543 168 463 168 q 685 210 624 168 q 781 331 747 253 q 815 510 815 408 q 781 688 815 611 q 685 808 747 765 q 543 850 624 850 q 401 808 463 850 q 305 688 339 765 q 271 510 271 611 z "},"Ộ":{"ha":1088,"x_min":58,"x_max":1029,"o":"m 468 1289 l 618 1289 l 803 1110 l 633 1110 l 543 1201 l 453 1110 l 283 1110 l 468 1289 m 58 510 q 122 789 58 669 q 297 972 186 908 q 543 1035 407 1035 q 790 972 679 1035 q 965 789 900 908 q 1029 510 1029 669 q 965 229 1029 349 q 790 47 900 110 q 543 -17 679 -17 q 297 47 407 -17 q 122 229 186 110 q 58 510 58 349 m 271 510 q 305 331 271 408 q 401 210 339 253 q 543 168 463 168 q 685 210 624 168 q 781 331 747 253 q 815 510 815 408 q 781 688 815 611 q 685 808 747 765 q 543 850 624 850 q 401 808 463 850 q 305 688 339 765 q 271 510 271 611 m 543 -308 q 463 -274 496 -308 q 429 -194 429 -240 q 463 -115 429 -149 q 543 -82 496 -82 q 625 -115 590 -82 q 660 -194 660 -149 q 625 -274 660 -240 q 543 -308 590 -308 z "},"Ồ":{"ha":1088,"x_min":58,"x_max":1029,"o":"m 476 1289 l 676 1289 l 806 1193 l 647 1193 l 476 1289 m 468 1178 l 618 1178 l 803 1082 l 628 1082 l 543 1125 l 458 1082 l 283 1082 l 468 1178 m 58 510 q 122 789 58 669 q 297 972 186 908 q 543 1035 407 1035 q 790 972 679 1035 q 965 789 900 908 q 1029 510 1029 669 q 965 229 1029 349 q 790 47 900 110 q 543 -17 679 -17 q 297 47 407 -17 q 122 229 186 110 q 58 510 58 349 m 271 510 q 305 331 271 408 q 401 210 339 253 q 543 168 463 168 q 685 210 624 168 q 781 331 747 253 q 815 510 815 408 q 781 688 815 611 q 685 808 747 765 q 543 850 624 850 q 401 808 463 850 q 305 688 339 765 q 271 510 271 611 z "},"Ổ":{"ha":1088,"x_min":58,"x_max":1029,"o":"m 568 1272 q 710 1288 625 1288 q 836 1274 786 1288 q 886 1233 886 1260 q 841 1191 886 1208 q 722 1164 796 1174 l 660 1201 q 732 1210 708 1206 q 756 1222 756 1215 q 739 1231 756 1228 q 696 1235 722 1235 q 592 1224 650 1235 l 568 1272 m 468 1174 l 618 1174 l 803 1082 l 622 1082 l 543 1121 l 464 1082 l 283 1082 l 468 1174 m 58 510 q 122 789 58 669 q 297 972 186 908 q 543 1035 407 1035 q 790 972 679 1035 q 965 789 900 908 q 1029 510 1029 669 q 965 229 1029 349 q 790 47 900 110 q 543 -17 679 -17 q 297 47 407 -17 q 122 229 186 110 q 58 510 58 349 m 271 510 q 305 331 271 408 q 401 210 339 253 q 543 168 463 168 q 685 210 624 168 q 781 331 747 253 q 815 510 815 408 q 781 688 815 611 q 685 808 747 765 q 543 850 624 850 q 401 808 463 850 q 305 688 339 765 q 271 510 271 611 z "},"Ỗ":{"ha":1088,"x_min":58,"x_max":1029,"o":"m 278 1203 q 327 1265 281 1242 q 449 1289 374 1289 q 521 1283 493 1289 q 579 1267 549 1278 q 631 1254 611 1254 q 679 1281 668 1254 l 811 1281 q 763 1218 808 1242 q 642 1194 717 1194 q 569 1200 597 1194 q 511 1217 542 1206 q 460 1229 479 1229 q 411 1203 422 1229 l 278 1203 m 469 1176 l 619 1176 l 804 1082 l 624 1082 l 544 1121 l 465 1082 l 285 1082 l 469 1176 m 58 510 q 122 789 58 669 q 297 972 186 908 q 543 1035 407 1035 q 790 972 679 1035 q 965 789 900 908 q 1029 510 1029 669 q 965 229 1029 349 q 790 47 900 110 q 543 -17 679 -17 q 297 47 407 -17 q 122 229 186 110 q 58 510 58 349 m 271 510 q 305 331 271 408 q 401 210 339 253 q 543 168 463 168 q 685 210 624 168 q 781 331 747 253 q 815 510 815 408 q 781 688 815 611 q 685 808 747 765 q 543 850 624 850 q 401 808 463 850 q 305 688 339 765 q 271 510 271 611 z "},"Ö":{"ha":1088,"x_min":58,"x_max":1029,"o":"m 386 1113 q 313 1139 343 1113 q 283 1201 283 1165 q 313 1263 283 1238 q 386 1289 343 1289 q 461 1263 431 1289 q 492 1201 492 1238 q 461 1139 492 1165 q 386 1113 431 1113 m 699 1113 q 625 1139 656 1113 q 594 1201 594 1165 q 625 1263 594 1238 q 699 1289 656 1289 q 772 1263 742 1289 q 803 1201 803 1238 q 772 1139 803 1165 q 699 1113 742 1113 m 58 510 q 122 789 58 669 q 297 972 186 908 q 543 1035 407 1035 q 790 972 679 1035 q 965 789 900 908 q 1029 510 1029 669 q 965 229 1029 349 q 790 47 900 110 q 543 -17 679 -17 q 297 47 407 -17 q 122 229 186 110 q 58 510 58 349 m 271 510 q 305 331 271 408 q 401 210 339 253 q 543 168 463 168 q 685 210 624 168 q 781 331 747 253 q 815 510 815 408 q 781 688 815 611 q 685 808 747 765 q 543 850 624 850 q 401 808 463 850 q 305 688 339 765 q 271 510 271 611 z "},"Ọ":{"ha":1088,"x_min":58,"x_max":1029,"o":"m 58 510 q 122 789 58 669 q 297 972 186 908 q 543 1035 407 1035 q 790 972 679 1035 q 965 789 900 908 q 1029 510 1029 669 q 965 229 1029 349 q 790 47 900 110 q 543 -17 679 -17 q 297 47 407 -17 q 122 229 186 110 q 58 510 58 349 m 271 510 q 305 331 271 408 q 401 210 339 253 q 543 168 463 168 q 685 210 624 168 q 781 331 747 253 q 815 510 815 408 q 781 688 815 611 q 685 808 747 765 q 543 850 624 850 q 401 808 463 850 q 305 688 339 765 q 271 510 271 611 m 543 -308 q 463 -274 496 -308 q 429 -194 429 -240 q 463 -115 429 -149 q 543 -82 496 -82 q 625 -115 590 -82 q 660 -194 660 -149 q 625 -274 660 -240 q 543 -308 590 -308 z "},"Ò":{"ha":1088,"x_min":58,"x_max":1029,"o":"m 286 1289 l 486 1289 l 615 1111 l 458 1111 l 286 1289 m 58 510 q 122 789 58 669 q 297 972 186 908 q 543 1035 407 1035 q 790 972 679 1035 q 965 789 900 908 q 1029 510 1029 669 q 965 229 1029 349 q 790 47 900 110 q 543 -17 679 -17 q 297 47 407 -17 q 122 229 186 110 q 58 510 58 349 m 271 510 q 305 331 271 408 q 401 210 339 253 q 543 168 463 168 q 685 210 624 168 q 781 331 747 253 q 815 510 815 408 q 781 688 815 611 q 685 808 747 765 q 543 850 624 850 q 401 808 463 850 q 305 688 339 765 q 271 510 271 611 z "},"Ỏ":{"ha":1088,"x_min":58,"x_max":1029,"o":"m 378 1261 q 521 1289 436 1289 q 647 1265 597 1289 q 696 1193 696 1242 q 533 1072 696 1107 l 467 1136 q 534 1158 511 1147 q 557 1182 557 1169 q 542 1202 557 1194 q 500 1210 526 1210 q 403 1186 454 1210 l 378 1261 m 58 510 q 122 789 58 669 q 297 972 186 908 q 543 1035 407 1035 q 790 972 679 1035 q 965 789 900 908 q 1029 510 1029 669 q 965 229 1029 349 q 790 47 900 110 q 543 -17 679 -17 q 297 47 407 -17 q 122 229 186 110 q 58 510 58 349 m 271 510 q 305 331 271 408 q 401 210 339 253 q 543 168 463 168 q 685 210 624 168 q 781 331 747 253 q 815 510 815 408 q 781 688 815 611 q 685 808 747 765 q 543 850 624 850 q 401 808 463 850 q 305 688 339 765 q 271 510 271 611 z "},"Ơ":{"ha":1088,"x_min":58,"x_max":1063,"o":"m 874 892 q 988 730 947 826 q 1029 510 1029 633 q 965 233 1029 353 q 789 49 900 114 q 543 -17 678 -17 q 298 49 408 -17 q 123 233 188 114 q 58 510 58 353 q 124 785 58 667 q 303 969 189 904 q 561 1035 418 1035 q 676 1026 604 1035 q 790 1017 738 1017 q 876 1035 850 1017 q 901 1111 901 1054 q 892 1194 901 1154 l 1053 1194 q 1063 1099 1063 1150 q 1019 945 1063 992 q 874 892 975 899 m 543 168 q 685 210 624 168 q 781 331 747 253 q 814 510 814 408 q 780 688 814 611 q 685 808 746 765 q 543 850 624 850 q 401 808 463 850 q 305 688 339 765 q 271 510 271 611 q 305 331 271 408 q 401 210 339 253 q 543 168 463 168 z "},"Ớ":{"ha":1088,"x_min":58,"x_max":1063,"o":"m 601 1289 l 801 1289 l 629 1111 l 472 1111 l 601 1289 m 874 892 q 988 730 947 826 q 1029 510 1029 633 q 965 233 1029 353 q 789 49 900 114 q 543 -17 678 -17 q 298 49 408 -17 q 123 233 188 114 q 58 510 58 353 q 124 785 58 667 q 303 969 189 904 q 561 1035 418 1035 q 676 1026 604 1035 q 790 1017 738 1017 q 876 1035 850 1017 q 901 1111 901 1054 q 892 1194 901 1154 l 1053 1194 q 1063 1099 1063 1150 q 1019 945 1063 992 q 874 892 975 899 m 543 168 q 685 210 624 168 q 781 331 747 253 q 814 510 814 408 q 780 688 814 611 q 685 808 746 765 q 543 850 624 850 q 401 808 463 850 q 305 688 339 765 q 271 510 271 611 q 305 331 271 408 q 401 210 339 253 q 543 168 463 168 z "},"Ợ":{"ha":1088,"x_min":58,"x_max":1063,"o":"m 874 892 q 988 730 947 826 q 1029 510 1029 633 q 965 233 1029 353 q 789 49 900 114 q 543 -17 678 -17 q 298 49 408 -17 q 123 233 188 114 q 58 510 58 353 q 124 785 58 667 q 303 969 189 904 q 561 1035 418 1035 q 676 1026 604 1035 q 790 1017 738 1017 q 876 1035 850 1017 q 901 1111 901 1054 q 892 1194 901 1154 l 1053 1194 q 1063 1099 1063 1150 q 1019 945 1063 992 q 874 892 975 899 m 543 168 q 685 210 624 168 q 781 331 747 253 q 814 510 814 408 q 780 688 814 611 q 685 808 746 765 q 543 850 624 850 q 401 808 463 850 q 305 688 339 765 q 271 510 271 611 q 305 331 271 408 q 401 210 339 253 q 543 168 463 168 m 543 -82 q 625 -115 590 -82 q 660 -194 660 -149 q 625 -274 660 -240 q 543 -308 590 -308 q 463 -274 496 -308 q 429 -194 429 -240 q 463 -115 429 -149 q 543 -82 496 -82 z "},"Ờ":{"ha":1088,"x_min":58,"x_max":1063,"o":"m 486 1289 l 615 1111 l 458 1111 l 286 1289 l 486 1289 m 874 892 q 988 730 947 826 q 1029 510 1029 633 q 965 233 1029 353 q 789 49 900 114 q 543 -17 678 -17 q 298 49 408 -17 q 123 233 188 114 q 58 510 58 353 q 124 785 58 667 q 303 969 189 904 q 561 1035 418 1035 q 676 1026 604 1035 q 790 1017 738 1017 q 876 1035 850 1017 q 901 1111 901 1054 q 892 1194 901 1154 l 1053 1194 q 1063 1099 1063 1150 q 1019 945 1063 992 q 874 892 975 899 m 543 168 q 685 210 624 168 q 781 331 747 253 q 814 510 814 408 q 780 688 814 611 q 685 808 746 765 q 543 850 624 850 q 401 808 463 850 q 305 688 339 765 q 271 510 271 611 q 305 331 271 408 q 401 210 339 253 q 543 168 463 168 z "},"Ở":{"ha":1088,"x_min":58,"x_max":1063,"o":"m 500 1210 q 403 1186 454 1210 l 378 1261 q 521 1289 436 1289 q 647 1265 597 1289 q 696 1193 696 1242 q 533 1072 696 1107 l 467 1136 q 534 1158 511 1147 q 557 1182 557 1169 q 542 1202 557 1194 q 500 1210 526 1210 m 874 892 q 988 730 947 826 q 1029 510 1029 633 q 965 233 1029 353 q 789 49 900 114 q 543 -17 678 -17 q 298 49 408 -17 q 123 233 188 114 q 58 510 58 353 q 124 785 58 667 q 303 969 189 904 q 561 1035 418 1035 q 676 1026 604 1035 q 790 1017 738 1017 q 876 1035 850 1017 q 901 1111 901 1054 q 892 1194 901 1154 l 1053 1194 q 1063 1099 1063 1150 q 1019 945 1063 992 q 874 892 975 899 m 543 168 q 685 210 624 168 q 781 331 747 253 q 814 510 814 408 q 780 688 814 611 q 685 808 746 765 q 543 850 624 850 q 401 808 463 850 q 305 688 339 765 q 271 510 271 611 q 305 331 271 408 q 401 210 339 253 q 543 168 463 168 z "},"Ỡ":{"ha":1088,"x_min":58,"x_max":1063,"o":"m 458 1185 q 410 1126 421 1185 l 276 1126 q 326 1244 279 1199 q 447 1289 372 1289 q 520 1276 492 1289 q 578 1239 549 1263 q 606 1219 596 1225 q 629 1213 617 1213 q 678 1272 668 1213 l 810 1272 q 761 1153 807 1199 q 640 1108 715 1108 q 567 1122 596 1108 q 510 1158 539 1135 q 481 1178 492 1172 q 458 1185 471 1185 m 874 892 q 988 730 947 826 q 1029 510 1029 633 q 965 233 1029 353 q 789 49 900 114 q 543 -17 678 -17 q 298 49 408 -17 q 123 233 188 114 q 58 510 58 353 q 124 785 58 667 q 303 969 189 904 q 561 1035 418 1035 q 676 1026 604 1035 q 790 1017 738 1017 q 876 1035 850 1017 q 901 1111 901 1054 q 892 1194 901 1154 l 1053 1194 q 1063 1099 1063 1150 q 1019 945 1063 992 q 874 892 975 899 m 543 168 q 685 210 624 168 q 781 331 747 253 q 814 510 814 408 q 780 688 814 611 q 685 808 746 765 q 543 850 624 850 q 401 808 463 850 q 305 688 339 765 q 271 510 271 611 q 305 331 271 408 q 401 210 339 253 q 543 168 463 168 z "},"Ő":{"ha":1088,"x_min":58,"x_max":1029,"o":"m 349 1110 l 474 1289 l 654 1289 l 488 1110 l 349 1110 m 596 1110 l 721 1289 l 901 1289 l 735 1110 l 596 1110 m 58 510 q 122 789 58 669 q 297 972 186 908 q 543 1035 407 1035 q 790 972 679 1035 q 965 789 900 908 q 1029 510 1029 669 q 965 229 1029 349 q 790 47 900 110 q 543 -17 679 -17 q 297 47 407 -17 q 122 229 186 110 q 58 510 58 349 m 271 510 q 305 331 271 408 q 401 210 339 253 q 543 168 463 168 q 685 210 624 168 q 781 331 747 253 q 815 510 815 408 q 781 688 815 611 q 685 808 747 765 q 543 850 624 850 q 401 808 463 850 q 305 688 339 765 q 271 510 271 611 z "},"Ō":{"ha":1088,"x_min":58,"x_max":1029,"o":"m 306 1154 l 306 1286 l 781 1286 l 781 1154 l 306 1154 m 58 510 q 122 789 58 669 q 297 972 186 908 q 543 1035 407 1035 q 790 972 679 1035 q 965 789 900 908 q 1029 510 1029 669 q 965 229 1029 349 q 790 47 900 110 q 543 -17 679 -17 q 297 47 407 -17 q 122 229 186 110 q 58 510 58 349 m 271 510 q 305 331 271 408 q 401 210 339 253 q 543 168 463 168 q 685 210 624 168 q 781 331 747 253 q 815 510 815 408 q 781 688 815 611 q 685 808 747 765 q 543 850 624 850 q 401 808 463 850 q 305 688 339 765 q 271 510 271 611 z "},"Ø":{"ha":1090,"x_min":58,"x_max":1032,"o":"m 828 1067 l 1032 1067 l 901 878 q 997 715 963 808 q 1031 510 1031 621 q 966 233 1031 353 q 791 49 901 114 q 546 -17 681 -17 q 322 39 422 -17 l 263 -49 l 58 -49 l 189 140 q 94 303 128 210 q 61 510 61 397 q 126 785 61 665 q 301 969 190 904 q 546 1035 411 1035 q 768 979 665 1035 l 828 1067 m 265 510 q 308 317 265 400 l 660 821 q 546 850 610 850 q 399 808 463 850 q 301 688 336 765 q 265 510 265 611 m 824 510 q 781 701 824 619 l 431 197 q 546 168 481 168 q 691 210 628 168 q 789 331 754 253 q 824 510 824 408 z "},"Ǿ":{"ha":1090,"x_min":58,"x_max":1032,"o":"m 474 1111 l 603 1289 l 803 1289 l 632 1111 l 474 1111 m 828 1067 l 1032 1067 l 901 878 q 997 715 963 808 q 1031 510 1031 621 q 966 233 1031 353 q 791 49 901 114 q 546 -17 681 -17 q 322 39 422 -17 l 263 -49 l 58 -49 l 189 140 q 94 303 128 210 q 61 510 61 397 q 126 785 61 665 q 301 969 190 904 q 546 1035 411 1035 q 768 979 665 1035 l 828 1067 m 265 510 q 308 317 265 400 l 660 821 q 546 850 610 850 q 399 808 463 850 q 301 688 336 765 q 265 510 265 611 m 824 510 q 781 701 824 619 l 431 197 q 546 168 481 168 q 691 210 628 168 q 789 331 754 253 q 824 510 824 408 z "},"Õ":{"ha":1088,"x_min":58,"x_max":1029,"o":"m 276 1126 q 326 1244 279 1199 q 447 1289 372 1289 q 520 1276 492 1289 q 578 1239 549 1263 q 606 1219 596 1225 q 629 1213 617 1213 q 678 1272 668 1213 l 810 1272 q 761 1153 807 1199 q 640 1108 715 1108 q 567 1122 596 1108 q 510 1158 539 1135 q 481 1178 492 1172 q 458 1185 471 1185 q 410 1126 421 1185 l 276 1126 m 58 510 q 122 789 58 669 q 297 972 186 908 q 543 1035 407 1035 q 790 972 679 1035 q 965 789 900 908 q 1029 510 1029 669 q 965 229 1029 349 q 790 47 900 110 q 543 -17 679 -17 q 297 47 407 -17 q 122 229 186 110 q 58 510 58 349 m 271 510 q 305 331 271 408 q 401 210 339 253 q 543 168 463 168 q 685 210 624 168 q 781 331 747 253 q 815 510 815 408 q 781 688 815 611 q 685 808 747 765 q 543 850 624 850 q 401 808 463 850 q 305 688 339 765 q 271 510 271 611 z "},"Œ":{"ha":1553,"x_min":58,"x_max":1493,"o":"m 1017 429 l 1017 176 l 1493 176 l 1493 0 l 814 0 l 814 110 q 685 16 760 49 q 525 -17 611 -17 q 292 49 399 -17 q 122 233 185 114 q 58 510 58 353 q 122 785 58 665 q 292 969 185 904 q 525 1035 399 1035 q 685 1002 611 1035 q 814 908 760 969 l 814 1017 l 1478 1017 l 1478 842 l 1017 842 l 1017 603 l 1429 603 l 1429 429 l 1017 429 m 543 168 q 685 210 624 168 q 781 331 747 253 q 814 510 814 408 q 780 688 814 611 q 685 808 746 765 q 543 850 624 850 q 401 808 463 850 q 305 688 339 765 q 271 510 271 611 q 305 331 271 408 q 401 210 339 253 q 543 168 463 168 z "},"P":{"ha":885,"x_min":107,"x_max":857,"o":"m 457 1017 q 668 975 578 1017 q 808 858 758 933 q 857 681 857 782 q 808 505 857 581 q 668 388 758 429 q 457 347 578 347 l 308 347 l 308 0 l 107 0 l 107 1017 l 457 1017 m 435 518 q 586 559 529 518 q 643 681 643 600 q 586 803 643 761 q 435 846 529 846 l 308 846 l 308 518 l 435 518 z "},"Þ":{"ha":885,"x_min":107,"x_max":857,"o":"m 457 844 q 668 803 578 844 q 808 685 758 761 q 857 508 857 610 q 808 333 857 408 q 668 216 758 257 q 457 175 578 175 l 308 175 l 308 0 l 107 0 l 107 1017 l 308 1017 l 308 844 l 457 844 m 433 346 q 581 383 518 346 q 643 508 643 421 q 585 633 643 592 q 433 674 526 674 l 308 674 l 308 346 l 433 346 z "},"Q":{"ha":1090,"x_min":58,"x_max":1129,"o":"m 1129 -232 l 850 -232 l 594 -14 q 543 -17 561 -17 q 297 47 407 -17 q 122 229 186 110 q 58 510 58 349 q 122 789 58 669 q 297 972 186 908 q 543 1035 407 1035 q 790 972 679 1035 q 965 789 900 908 q 1029 510 1029 669 q 968 237 1029 354 q 803 54 907 119 l 1129 -232 m 271 510 q 305 331 271 408 q 401 210 339 253 q 543 168 463 168 q 685 210 624 168 q 781 331 747 253 q 815 510 815 408 q 781 688 815 611 q 685 808 747 765 q 543 850 624 850 q 401 808 463 850 q 305 688 339 765 q 271 510 271 611 z "},"R":{"ha":951,"x_min":107,"x_max":951,"o":"m 951 0 l 711 1 l 464 367 l 456 367 l 308 367 l 308 0 l 107 0 l 107 1017 l 458 1017 q 668 976 578 1017 q 807 862 758 936 q 856 692 856 788 q 806 521 856 594 q 665 408 756 447 l 951 0 m 308 846 l 308 538 l 435 538 q 583 576 524 538 q 642 692 642 614 q 583 808 642 771 q 435 846 525 846 l 308 846 z "},"Ŕ":{"ha":931,"x_min":107,"x_max":951,"o":"m 349 1113 l 478 1289 l 678 1289 l 506 1113 l 349 1113 m 951 0 l 711 1 l 464 367 l 456 367 l 308 367 l 308 0 l 107 0 l 107 1017 l 458 1017 q 668 976 578 1017 q 807 862 758 936 q 856 692 856 788 q 806 521 856 594 q 665 408 756 447 l 951 0 m 308 846 l 308 538 l 435 538 q 583 576 524 538 q 642 692 642 614 q 583 808 642 771 q 435 846 525 846 l 308 846 z "},"Ř":{"ha":931,"x_min":107,"x_max":951,"o":"m 329 1289 l 421 1199 l 510 1289 l 679 1289 l 494 1111 l 344 1111 l 160 1289 l 329 1289 m 951 0 l 711 1 l 464 367 l 456 367 l 308 367 l 308 0 l 107 0 l 107 1017 l 458 1017 q 668 976 578 1017 q 807 862 758 936 q 856 692 856 788 q 806 521 856 594 q 665 408 756 447 l 951 0 m 308 846 l 308 538 l 435 538 q 583 576 524 538 q 642 692 642 614 q 583 808 642 771 q 435 846 525 846 l 308 846 z "},"Ŗ":{"ha":931,"x_min":107,"x_max":951,"o":"m 951 0 l 711 1 l 464 367 l 456 367 l 308 367 l 308 0 l 107 0 l 107 1017 l 458 1017 q 668 976 578 1017 q 807 862 758 936 q 856 692 856 788 q 806 521 856 594 q 665 408 756 447 l 951 0 m 435 538 q 583 576 524 538 q 642 692 642 614 q 583 808 642 771 q 435 846 525 846 l 308 846 l 308 538 l 435 538 m 511 -46 q 597 -76 564 -46 q 631 -167 631 -107 q 574 -289 631 -244 q 414 -339 518 -333 l 414 -264 q 517 -207 501 -251 l 510 -207 q 437 -186 464 -207 q 410 -129 410 -165 q 438 -69 410 -92 q 511 -46 467 -46 z "},"S":{"ha":822,"x_min":11,"x_max":793,"o":"m 793 294 q 740 120 793 190 q 601 17 686 50 q 418 -17 515 -17 q 163 49 276 -17 q 11 236 49 115 l 175 329 q 272 208 208 251 q 425 165 336 165 q 540 194 497 165 q 582 279 582 224 q 553 353 582 324 q 483 399 525 382 q 367 438 440 415 q 206 495 268 467 q 99 581 143 524 q 54 731 54 638 q 106 898 54 829 q 244 1001 158 967 q 428 1035 329 1035 q 658 974 563 1035 q 782 808 754 913 l 618 715 q 543 817 593 781 q 418 854 493 854 q 308 823 350 854 q 265 740 265 792 q 292 676 265 701 q 359 634 318 650 q 469 597 400 618 q 635 538 569 568 q 747 449 700 508 q 793 294 793 390 z "},"Ś":{"ha":822,"x_min":11,"x_max":793,"o":"m 354 1111 l 483 1289 l 683 1289 l 511 1111 l 354 1111 m 793 294 q 740 120 793 190 q 601 17 686 50 q 418 -17 515 -17 q 163 49 276 -17 q 11 236 49 115 l 175 329 q 272 208 208 251 q 425 165 336 165 q 540 194 497 165 q 582 279 582 224 q 553 353 582 324 q 483 399 525 382 q 367 438 440 415 q 206 495 268 467 q 99 581 143 524 q 54 731 54 638 q 106 898 54 829 q 244 1001 158 967 q 428 1035 329 1035 q 658 974 563 1035 q 782 808 754 913 l 618 715 q 543 817 593 781 q 418 854 493 854 q 308 823 350 854 q 265 740 265 792 q 292 676 265 701 q 359 634 318 650 q 469 597 400 618 q 635 538 569 568 q 747 449 700 508 q 793 294 793 390 z "},"Š":{"ha":822,"x_min":11,"x_max":793,"o":"m 335 1289 l 425 1199 l 515 1289 l 685 1289 l 500 1110 l 349 1110 l 165 1289 l 335 1289 m 793 294 q 740 120 793 190 q 601 17 686 50 q 418 -17 515 -17 q 163 49 276 -17 q 11 236 49 115 l 175 329 q 272 208 208 251 q 425 165 336 165 q 540 194 497 165 q 582 279 582 224 q 553 353 582 324 q 483 399 525 382 q 367 438 440 415 q 206 495 268 467 q 99 581 143 524 q 54 731 54 638 q 106 898 54 829 q 244 1001 158 967 q 428 1035 329 1035 q 658 974 563 1035 q 782 808 754 913 l 618 715 q 543 817 593 781 q 418 854 493 854 q 308 823 350 854 q 265 740 265 792 q 292 676 265 701 q 359 634 318 650 q 469 597 400 618 q 635 538 569 568 q 747 449 700 508 q 793 294 793 390 z "},"Ş":{"ha":822,"x_min":11,"x_max":793,"o":"m 793 294 q 743 124 793 193 q 613 22 693 56 q 439 -17 533 -12 l 411 -78 q 522 -111 478 -79 q 565 -203 565 -143 q 506 -305 565 -271 q 361 -339 446 -339 q 249 -322 308 -339 l 249 -225 q 356 -242 306 -242 q 431 -206 431 -242 q 410 -178 431 -187 q 356 -169 390 -169 q 281 -178 322 -169 l 268 -112 l 314 -7 q 124 76 204 14 q 11 236 43 139 l 175 329 q 272 208 208 251 q 425 165 336 165 q 540 194 497 165 q 582 279 582 224 q 553 353 582 324 q 483 399 525 382 q 367 438 440 415 q 206 495 268 467 q 99 581 143 524 q 54 731 54 638 q 106 898 54 829 q 244 1001 158 967 q 428 1035 329 1035 q 658 974 563 1035 q 782 808 754 913 l 618 715 q 543 817 593 781 q 418 854 493 854 q 308 823 350 854 q 265 740 265 792 q 292 676 265 701 q 359 634 318 650 q 469 597 400 618 q 635 538 569 568 q 747 449 700 508 q 793 294 793 390 z "},"Ŝ":{"ha":822,"x_min":11,"x_max":793,"o":"m 349 1289 l 500 1289 l 685 1110 l 515 1110 l 425 1201 l 335 1110 l 165 1110 l 349 1289 m 793 294 q 740 120 793 190 q 601 17 686 50 q 418 -17 515 -17 q 163 49 276 -17 q 11 236 49 115 l 175 329 q 272 208 208 251 q 425 165 336 165 q 540 194 497 165 q 582 279 582 224 q 553 353 582 324 q 483 399 525 382 q 367 438 440 415 q 206 495 268 467 q 99 581 143 524 q 54 731 54 638 q 106 898 54 829 q 244 1001 158 967 q 428 1035 329 1035 q 658 974 563 1035 q 782 808 754 913 l 618 715 q 543 817 593 781 q 418 854 493 854 q 308 823 350 854 q 265 740 265 792 q 292 676 265 701 q 359 634 318 650 q 469 597 400 618 q 635 538 569 568 q 747 449 700 508 q 793 294 793 390 z "},"Ș":{"ha":822,"x_min":11,"x_max":793,"o":"m 793 294 q 740 120 793 190 q 601 17 686 50 q 418 -17 515 -17 q 163 49 276 -17 q 11 236 49 115 l 175 329 q 272 208 208 251 q 425 165 336 165 q 540 194 497 165 q 582 279 582 224 q 553 353 582 324 q 483 399 525 382 q 367 438 440 415 q 206 495 268 467 q 99 581 143 524 q 54 731 54 638 q 106 898 54 829 q 244 1001 158 967 q 428 1035 329 1035 q 658 974 563 1035 q 782 808 754 913 l 618 715 q 543 817 593 781 q 418 854 493 854 q 308 823 350 854 q 265 740 265 792 q 292 676 265 701 q 359 634 318 650 q 469 597 400 618 q 635 538 569 568 q 747 449 700 508 q 793 294 793 390 m 392 -46 q 478 -76 446 -46 q 511 -167 511 -107 q 455 -289 511 -244 q 294 -339 399 -333 l 294 -264 q 399 -207 382 -251 l 390 -207 q 317 -186 344 -207 q 290 -129 290 -165 q 319 -69 290 -92 q 392 -46 347 -46 z "},"Ə":{"ha":1026,"x_min":64,"x_max":967,"o":"m 497 1035 q 740 975 633 1035 q 906 797 846 915 q 967 507 967 678 q 905 221 967 339 q 736 43 843 103 q 496 -17 629 -17 q 267 40 365 -17 q 117 201 169 97 q 64 440 64 304 q 76 575 64 504 l 750 575 q 671 783 736 713 q 489 854 606 854 q 347 815 406 854 q 243 696 288 775 l 93 800 q 253 974 144 914 q 497 1035 361 1035 m 500 163 q 669 224 607 163 q 747 401 732 285 l 278 401 q 338 223 279 283 q 500 163 397 163 z "},"T":{"ha":843,"x_min":11,"x_max":831,"o":"m 11 1017 l 831 1017 l 831 838 l 522 838 l 522 0 l 319 0 l 319 838 l 11 838 l 11 1017 z "},"Ŧ":{"ha":844,"x_min":11,"x_max":831,"o":"m 11 1017 l 831 1017 l 831 838 l 522 838 l 522 574 l 721 574 l 721 394 l 522 394 l 522 0 l 319 0 l 319 394 l 124 394 l 124 574 l 319 574 l 319 838 l 11 838 l 11 1017 z "},"Ť":{"ha":843,"x_min":11,"x_max":831,"o":"m 331 1289 l 422 1199 l 511 1289 l 681 1289 l 496 1110 l 346 1110 l 161 1289 l 331 1289 m 11 1017 l 831 1017 l 831 838 l 522 838 l 522 0 l 319 0 l 319 838 l 11 838 l 11 1017 z "},"Ţ":{"ha":844,"x_min":11,"x_max":831,"o":"m 522 838 l 522 0 l 490 0 l 456 -78 q 566 -111 522 -79 q 610 -201 610 -143 q 550 -305 610 -271 q 406 -339 490 -339 q 294 -322 351 -339 l 294 -225 q 400 -242 349 -242 q 476 -206 476 -242 q 456 -178 476 -187 q 400 -169 436 -169 q 325 -178 367 -169 l 313 -112 l 363 0 l 319 0 l 319 838 l 11 838 l 11 1017 l 831 1017 l 831 838 l 522 838 z "},"Ț":{"ha":843,"x_min":11,"x_max":831,"o":"m 319 838 l 11 838 l 11 1017 l 831 1017 l 831 838 l 522 838 l 522 0 l 319 0 l 319 838 m 417 -46 q 503 -76 469 -46 q 536 -167 536 -107 q 480 -289 536 -244 q 319 -339 424 -333 l 319 -264 q 422 -207 407 -250 l 415 -207 q 342 -186 369 -207 q 315 -129 315 -165 q 344 -69 315 -92 q 417 -46 372 -46 z "},"U":{"ha":1054,"x_min":96,"x_max":958,"o":"m 757 1017 l 958 1017 l 958 411 q 907 184 958 281 q 758 35 856 88 q 528 -17 661 -17 q 296 35 393 -17 q 147 184 199 88 q 96 411 96 281 l 96 1017 l 297 1017 l 297 460 q 358 240 297 313 q 528 168 418 168 q 697 240 636 168 q 757 460 757 313 l 757 1017 z "},"Ú":{"ha":1054,"x_min":96,"x_max":958,"o":"m 456 1111 l 585 1289 l 785 1289 l 613 1111 l 456 1111 m 757 1017 l 958 1017 l 958 411 q 907 184 958 281 q 758 35 856 88 q 528 -17 661 -17 q 296 35 393 -17 q 147 184 199 88 q 96 411 96 281 l 96 1017 l 297 1017 l 297 460 q 358 240 297 313 q 528 168 418 168 q 697 240 636 168 q 757 460 757 313 l 757 1017 z "},"Ŭ":{"ha":1054,"x_min":96,"x_max":958,"o":"m 528 1108 q 349 1157 415 1108 q 283 1289 283 1206 l 433 1289 q 528 1204 444 1204 q 622 1289 614 1204 l 774 1289 q 707 1157 774 1206 q 528 1108 640 1108 m 757 1017 l 958 1017 l 958 411 q 907 184 958 281 q 758 35 856 88 q 528 -17 661 -17 q 296 35 393 -17 q 147 184 199 88 q 96 411 96 281 l 96 1017 l 297 1017 l 297 460 q 358 240 297 313 q 528 168 418 168 q 697 240 636 168 q 757 460 757 313 l 757 1017 z "},"Ǔ":{"ha":1054,"x_min":96,"x_max":958,"o":"m 436 1289 l 528 1199 l 617 1289 l 786 1289 l 603 1110 l 451 1110 l 267 1289 l 436 1289 m 757 1017 l 958 1017 l 958 411 q 907 184 958 281 q 758 35 856 88 q 528 -17 661 -17 q 296 35 393 -17 q 147 184 199 88 q 96 411 96 281 l 96 1017 l 297 1017 l 297 460 q 358 240 297 313 q 528 168 418 168 q 697 240 636 168 q 757 460 757 313 l 757 1017 z "},"Û":{"ha":1054,"x_min":96,"x_max":958,"o":"m 451 1289 l 603 1289 l 786 1110 l 617 1110 l 528 1200 l 436 1110 l 267 1110 l 451 1289 m 757 1017 l 958 1017 l 958 411 q 907 184 958 281 q 758 35 856 88 q 528 -17 661 -17 q 296 35 393 -17 q 147 184 199 88 q 96 411 96 281 l 96 1017 l 297 1017 l 297 460 q 358 240 297 313 q 528 168 418 168 q 697 240 636 168 q 757 460 757 313 l 757 1017 z "},"Ü":{"ha":1054,"x_min":96,"x_max":958,"o":"m 369 1113 q 297 1139 326 1113 q 268 1201 268 1165 q 298 1263 268 1238 q 369 1289 328 1289 q 444 1263 414 1289 q 475 1201 475 1238 q 444 1139 475 1165 q 369 1113 414 1113 m 682 1113 q 609 1139 639 1113 q 579 1201 579 1165 q 609 1263 579 1238 q 682 1289 639 1289 q 756 1263 725 1289 q 786 1201 786 1238 q 756 1139 786 1165 q 682 1113 725 1113 m 757 1017 l 958 1017 l 958 411 q 907 184 958 281 q 758 35 856 88 q 528 -17 661 -17 q 296 35 393 -17 q 147 184 199 88 q 96 411 96 281 l 96 1017 l 297 1017 l 297 460 q 358 240 297 313 q 528 168 418 168 q 697 240 636 168 q 757 460 757 313 l 757 1017 z "},"Ǘ":{"ha":1054,"x_min":96,"x_max":958,"o":"m 454 1204 l 583 1289 l 783 1289 l 613 1204 l 454 1204 m 369 1075 q 297 1091 326 1075 q 268 1131 268 1107 q 298 1171 268 1154 q 369 1188 328 1188 q 444 1171 414 1188 q 475 1131 475 1154 q 444 1091 475 1107 q 369 1075 414 1075 m 682 1075 q 609 1091 639 1075 q 579 1131 579 1107 q 609 1171 579 1154 q 682 1188 639 1188 q 756 1171 725 1188 q 786 1131 786 1154 q 756 1091 786 1107 q 682 1075 725 1075 m 757 1017 l 958 1017 l 958 411 q 907 184 958 281 q 758 35 856 88 q 528 -17 661 -17 q 296 35 393 -17 q 147 184 199 88 q 96 411 96 281 l 96 1017 l 297 1017 l 297 460 q 358 240 297 313 q 528 168 418 168 q 697 240 636 168 q 757 460 757 313 l 757 1017 z "},"Ǚ":{"ha":1054,"x_min":96,"x_max":958,"o":"m 785 1289 l 601 1204 l 450 1204 l 267 1289 l 447 1289 l 526 1253 l 604 1289 l 785 1289 m 369 1075 q 297 1091 326 1075 q 268 1131 268 1107 q 298 1171 268 1154 q 369 1188 328 1188 q 444 1171 414 1188 q 475 1131 475 1154 q 444 1091 475 1107 q 369 1075 414 1075 m 682 1075 q 609 1091 639 1075 q 579 1131 579 1107 q 609 1171 579 1154 q 682 1188 639 1188 q 756 1171 725 1188 q 786 1131 786 1154 q 756 1091 786 1107 q 682 1075 725 1075 m 757 1017 l 958 1017 l 958 411 q 907 184 958 281 q 758 35 856 88 q 528 -17 661 -17 q 296 35 393 -17 q 147 184 199 88 q 96 411 96 281 l 96 1017 l 297 1017 l 297 460 q 358 240 297 313 q 528 168 418 168 q 697 240 636 168 q 757 460 757 313 l 757 1017 z "},"Ǜ":{"ha":1054,"x_min":96,"x_max":958,"o":"m 269 1289 l 469 1289 l 599 1204 l 440 1204 l 269 1289 m 369 1075 q 297 1091 326 1075 q 268 1131 268 1107 q 298 1171 268 1154 q 369 1188 328 1188 q 444 1171 414 1188 q 475 1131 475 1154 q 444 1091 475 1107 q 369 1075 414 1075 m 682 1075 q 609 1091 639 1075 q 579 1131 579 1107 q 609 1171 579 1154 q 682 1188 639 1188 q 756 1171 725 1188 q 786 1131 786 1154 q 756 1091 786 1107 q 682 1075 725 1075 m 757 1017 l 958 1017 l 958 411 q 907 184 958 281 q 758 35 856 88 q 528 -17 661 -17 q 296 35 393 -17 q 147 184 199 88 q 96 411 96 281 l 96 1017 l 297 1017 l 297 460 q 358 240 297 313 q 528 168 418 168 q 697 240 636 168 q 757 460 757 313 l 757 1017 z "},"Ǖ":{"ha":1054,"x_min":96,"x_max":958,"o":"m 289 1224 l 289 1289 l 764 1289 l 764 1224 l 289 1224 m 369 1075 q 297 1092 326 1075 q 268 1135 268 1110 q 297 1176 268 1158 q 369 1193 326 1193 q 444 1176 414 1193 q 475 1135 475 1158 q 444 1092 475 1110 q 369 1075 414 1075 m 682 1075 q 609 1092 639 1075 q 579 1135 579 1110 q 609 1176 579 1158 q 682 1193 639 1193 q 756 1176 725 1193 q 786 1135 786 1158 q 756 1092 786 1110 q 682 1075 725 1075 m 757 1017 l 958 1017 l 958 411 q 907 184 958 281 q 758 35 856 88 q 528 -17 661 -17 q 296 35 393 -17 q 147 184 199 88 q 96 411 96 281 l 96 1017 l 297 1017 l 297 460 q 358 240 297 313 q 528 168 418 168 q 697 240 636 168 q 757 460 757 313 l 757 1017 z "},"Ụ":{"ha":1054,"x_min":96,"x_max":958,"o":"m 757 1017 l 958 1017 l 958 411 q 907 184 958 281 q 758 35 856 88 q 528 -17 661 -17 q 296 35 393 -17 q 147 184 199 88 q 96 411 96 281 l 96 1017 l 297 1017 l 297 460 q 358 240 297 313 q 528 168 418 168 q 697 240 636 168 q 757 460 757 313 l 757 1017 m 528 -308 q 447 -274 481 -308 q 413 -194 413 -240 q 447 -115 413 -149 q 528 -82 481 -82 q 609 -115 575 -82 q 643 -194 643 -149 q 609 -274 643 -240 q 528 -308 575 -308 z "},"Ù":{"ha":1054,"x_min":96,"x_max":958,"o":"m 269 1289 l 469 1289 l 599 1111 l 442 1111 l 269 1289 m 757 1017 l 958 1017 l 958 411 q 907 184 958 281 q 758 35 856 88 q 528 -17 661 -17 q 296 35 393 -17 q 147 184 199 88 q 96 411 96 281 l 96 1017 l 297 1017 l 297 460 q 358 240 297 313 q 528 168 418 168 q 697 240 636 168 q 757 460 757 313 l 757 1017 z "},"Ủ":{"ha":1054,"x_min":96,"x_max":958,"o":"m 361 1261 q 504 1289 419 1289 q 631 1265 581 1289 q 681 1193 681 1242 q 517 1072 681 1107 l 451 1136 q 518 1158 496 1147 q 540 1182 540 1169 q 525 1202 540 1194 q 483 1210 510 1210 q 386 1186 438 1210 l 361 1261 m 757 1017 l 958 1017 l 958 411 q 907 184 958 281 q 758 35 856 88 q 528 -17 661 -17 q 296 35 393 -17 q 147 184 199 88 q 96 411 96 281 l 96 1017 l 297 1017 l 297 460 q 358 240 297 313 q 528 168 418 168 q 697 240 636 168 q 757 460 757 313 l 757 1017 z "},"Ư":{"ha":1054,"x_min":96,"x_max":1154,"o":"m 1154 1099 q 1110 946 1154 992 q 958 890 1065 900 l 958 411 q 907 184 958 281 q 758 35 856 88 q 528 -17 661 -17 q 296 35 393 -17 q 147 184 199 88 q 96 411 96 281 l 96 1017 l 297 1017 l 297 460 q 358 240 297 313 q 528 168 418 168 q 696 240 636 168 q 756 460 756 313 l 756 1017 l 846 1017 q 937 1023 907 1017 q 979 1049 967 1029 q 992 1108 992 1068 q 982 1194 992 1151 l 1144 1194 q 1154 1099 1154 1147 z "},"Ứ":{"ha":1054,"x_min":96,"x_max":1154,"o":"m 456 1111 l 585 1289 l 785 1289 l 613 1111 l 456 1111 m 1154 1099 q 1110 946 1154 992 q 958 890 1065 900 l 958 411 q 907 184 958 281 q 758 35 856 88 q 528 -17 661 -17 q 296 35 393 -17 q 147 184 199 88 q 96 411 96 281 l 96 1017 l 297 1017 l 297 460 q 358 240 297 313 q 528 168 418 168 q 696 240 636 168 q 756 460 756 313 l 756 1017 l 846 1017 q 937 1023 907 1017 q 979 1049 967 1029 q 992 1108 992 1068 q 982 1194 992 1151 l 1144 1194 q 1154 1099 1154 1147 z "},"Ự":{"ha":1054,"x_min":96,"x_max":1154,"o":"m 1154 1099 q 1110 946 1154 992 q 958 890 1065 900 l 958 411 q 907 184 958 281 q 758 35 856 88 q 528 -17 661 -17 q 296 35 393 -17 q 147 184 199 88 q 96 411 96 281 l 96 1017 l 297 1017 l 297 460 q 358 240 297 313 q 528 168 418 168 q 696 240 636 168 q 756 460 756 313 l 756 1017 l 846 1017 q 937 1023 907 1017 q 979 1049 967 1029 q 992 1108 992 1068 q 982 1194 992 1151 l 1144 1194 q 1154 1099 1154 1147 m 528 -308 q 447 -274 481 -308 q 413 -194 413 -240 q 447 -115 413 -149 q 528 -82 481 -82 q 609 -115 575 -82 q 643 -194 643 -149 q 609 -274 643 -240 q 528 -308 575 -308 z "},"Ừ":{"ha":1054,"x_min":96,"x_max":1154,"o":"m 269 1289 l 469 1289 l 599 1111 l 442 1111 l 269 1289 m 1154 1099 q 1110 946 1154 992 q 958 890 1065 900 l 958 411 q 907 184 958 281 q 758 35 856 88 q 528 -17 661 -17 q 296 35 393 -17 q 147 184 199 88 q 96 411 96 281 l 96 1017 l 297 1017 l 297 460 q 358 240 297 313 q 528 168 418 168 q 696 240 636 168 q 756 460 756 313 l 756 1017 l 846 1017 q 937 1023 907 1017 q 979 1049 967 1029 q 992 1108 992 1068 q 982 1194 992 1151 l 1144 1194 q 1154 1099 1154 1147 z "},"Ử":{"ha":1054,"x_min":96,"x_max":1154,"o":"m 361 1261 q 504 1289 419 1289 q 631 1265 581 1289 q 681 1193 681 1242 q 517 1072 681 1107 l 451 1136 q 518 1158 496 1147 q 540 1182 540 1169 q 525 1202 540 1194 q 483 1210 510 1210 q 386 1186 438 1210 l 361 1261 m 1154 1099 q 1110 946 1154 992 q 958 890 1065 900 l 958 411 q 907 184 958 281 q 758 35 856 88 q 528 -17 661 -17 q 296 35 393 -17 q 147 184 199 88 q 96 411 96 281 l 96 1017 l 297 1017 l 297 460 q 358 240 297 313 q 528 168 418 168 q 696 240 636 168 q 756 460 756 313 l 756 1017 l 846 1017 q 937 1023 907 1017 q 979 1049 967 1029 q 992 1108 992 1068 q 982 1194 992 1151 l 1144 1194 q 1154 1099 1154 1147 z "},"Ữ":{"ha":1054,"x_min":96,"x_max":1154,"o":"m 261 1126 q 310 1244 264 1199 q 431 1289 356 1289 q 505 1276 476 1289 q 563 1239 533 1263 q 613 1213 592 1213 q 663 1272 650 1213 l 794 1272 q 745 1153 792 1199 q 624 1108 699 1108 q 551 1122 579 1108 q 494 1158 522 1135 q 465 1178 476 1172 q 442 1185 454 1185 q 393 1126 404 1185 l 261 1126 m 1154 1099 q 1110 946 1154 992 q 958 890 1065 900 l 958 411 q 907 184 958 281 q 758 35 856 88 q 528 -17 661 -17 q 296 35 393 -17 q 147 184 199 88 q 96 411 96 281 l 96 1017 l 297 1017 l 297 460 q 358 240 297 313 q 528 168 418 168 q 696 240 636 168 q 756 460 756 313 l 756 1017 l 846 1017 q 937 1023 907 1017 q 979 1049 967 1029 q 992 1108 992 1068 q 982 1194 992 1151 l 1144 1194 q 1154 1099 1154 1147 z "},"Ű":{"ha":1054,"x_min":96,"x_max":958,"o":"m 332 1110 l 457 1289 l 639 1289 l 471 1110 l 332 1110 m 579 1110 l 704 1289 l 886 1289 l 718 1110 l 579 1110 m 757 1017 l 958 1017 l 958 411 q 907 184 958 281 q 758 35 856 88 q 528 -17 661 -17 q 296 35 393 -17 q 147 184 199 88 q 96 411 96 281 l 96 1017 l 297 1017 l 297 460 q 358 240 297 313 q 528 168 418 168 q 697 240 636 168 q 757 460 757 313 l 757 1017 z "},"Ū":{"ha":1054,"x_min":96,"x_max":958,"o":"m 290 1154 l 290 1286 l 765 1286 l 765 1154 l 290 1154 m 757 1017 l 958 1017 l 958 411 q 907 184 958 281 q 758 35 856 88 q 528 -17 661 -17 q 296 35 393 -17 q 147 184 199 88 q 96 411 96 281 l 96 1017 l 297 1017 l 297 460 q 358 240 297 313 q 528 168 418 168 q 697 240 636 168 q 757 460 757 313 l 757 1017 z "},"Ų":{"ha":1054,"x_min":96,"x_max":958,"o":"m 958 411 q 913 194 958 288 q 781 47 867 101 q 662 -55 694 -8 q 629 -147 629 -101 q 649 -207 629 -187 q 703 -226 669 -226 q 801 -179 751 -226 l 865 -268 q 688 -339 797 -339 q 546 -299 600 -339 q 492 -172 492 -258 q 549 -17 492 -86 l 528 -17 q 296 35 393 -17 q 147 184 199 88 q 96 411 96 281 l 96 1017 l 297 1017 l 297 460 q 358 240 297 313 q 528 168 418 168 q 696 240 636 168 q 756 460 756 313 l 756 1017 l 958 1017 l 958 411 z "},"Ů":{"ha":1054,"x_min":96,"x_max":958,"o":"m 360 1190 q 408 1261 360 1233 q 528 1289 457 1289 q 645 1261 599 1289 q 692 1190 692 1233 q 645 1119 692 1147 q 528 1090 599 1090 q 408 1119 457 1090 q 360 1190 360 1147 m 464 1190 q 481 1160 464 1171 q 528 1149 499 1149 q 572 1160 556 1149 q 589 1190 589 1171 q 572 1219 589 1208 q 528 1231 556 1231 q 481 1219 499 1231 q 464 1190 464 1208 m 757 1017 l 958 1017 l 958 411 q 907 184 958 281 q 758 35 856 88 q 528 -17 661 -17 q 296 35 393 -17 q 147 184 199 88 q 96 411 96 281 l 96 1017 l 297 1017 l 297 460 q 358 240 297 313 q 528 168 418 168 q 697 240 636 168 q 757 460 757 313 l 757 1017 z "},"Ũ":{"ha":1054,"x_min":96,"x_max":958,"o":"m 261 1126 q 310 1244 264 1199 q 431 1289 356 1289 q 505 1276 476 1289 q 563 1239 533 1263 q 613 1213 592 1213 q 663 1272 650 1213 l 794 1272 q 745 1153 792 1199 q 624 1108 699 1108 q 551 1122 579 1108 q 494 1158 522 1135 q 465 1178 476 1172 q 442 1185 454 1185 q 393 1126 404 1185 l 261 1126 m 757 1017 l 958 1017 l 958 411 q 907 184 958 281 q 758 35 856 88 q 528 -17 661 -17 q 296 35 393 -17 q 147 184 199 88 q 96 411 96 281 l 96 1017 l 297 1017 l 297 460 q 358 240 297 313 q 528 168 418 168 q 697 240 636 168 q 757 460 757 313 l 757 1017 z "},"V":{"ha":996,"x_min":8,"x_max":986,"o":"m 238 1017 l 510 282 l 771 1017 l 986 1017 l 590 0 l 419 0 l 8 1017 l 238 1017 z "},"W":{"ha":1397,"x_min":10,"x_max":1388,"o":"m 788 1017 l 999 333 l 1193 1017 l 1388 1017 l 1071 0 l 915 0 l 701 664 l 494 0 l 340 0 l 10 1017 l 218 1017 l 426 333 l 626 1017 l 788 1017 z "},"Ẃ":{"ha":1397,"x_min":10,"x_max":1388,"o":"m 635 1111 l 764 1289 l 964 1289 l 793 1111 l 635 1111 m 788 1017 l 999 333 l 1193 1017 l 1388 1017 l 1071 0 l 915 0 l 701 664 l 494 0 l 340 0 l 10 1017 l 218 1017 l 426 333 l 626 1017 l 788 1017 z "},"Ŵ":{"ha":1397,"x_min":10,"x_max":1388,"o":"m 631 1289 l 782 1289 l 965 1110 l 796 1110 l 707 1200 l 615 1110 l 447 1110 l 631 1289 m 788 1017 l 999 333 l 1193 1017 l 1388 1017 l 1071 0 l 915 0 l 701 664 l 494 0 l 340 0 l 10 1017 l 218 1017 l 426 333 l 626 1017 l 788 1017 z "},"Ẅ":{"ha":1397,"x_min":10,"x_max":1388,"o":"m 549 1113 q 477 1139 507 1113 q 447 1201 447 1165 q 477 1263 447 1238 q 549 1289 507 1289 q 624 1263 593 1289 q 654 1201 654 1238 q 624 1139 654 1165 q 549 1113 593 1113 m 861 1113 q 788 1139 818 1113 q 758 1201 758 1165 q 788 1263 758 1238 q 861 1289 818 1289 q 935 1263 904 1289 q 965 1201 965 1238 q 935 1139 965 1165 q 861 1113 904 1113 m 788 1017 l 999 333 l 1193 1017 l 1388 1017 l 1071 0 l 915 0 l 701 664 l 494 0 l 340 0 l 10 1017 l 218 1017 l 426 333 l 626 1017 l 788 1017 z "},"Ẁ":{"ha":1397,"x_min":10,"x_max":1388,"o":"m 449 1289 l 650 1289 l 779 1111 l 621 1111 l 449 1289 m 788 1017 l 999 333 l 1193 1017 l 1388 1017 l 1071 0 l 915 0 l 701 664 l 494 0 l 340 0 l 10 1017 l 218 1017 l 426 333 l 626 1017 l 788 1017 z "},"X":{"ha":993,"x_min":7,"x_max":986,"o":"m 969 1017 l 613 521 l 986 0 l 736 0 l 489 357 l 240 0 l 7 0 l 379 517 l 24 1017 l 269 1017 l 503 681 l 736 1017 l 969 1017 z "},"Y":{"ha":942,"x_min":8,"x_max":933,"o":"m 485 600 l 715 1017 l 933 1017 l 579 400 l 579 0 l 378 0 l 378 401 l 8 1017 l 246 1017 l 485 600 z "},"Ý":{"ha":942,"x_min":8,"x_max":933,"o":"m 410 1111 l 539 1289 l 739 1289 l 567 1111 l 410 1111 m 485 600 l 715 1017 l 933 1017 l 579 400 l 579 0 l 378 0 l 378 401 l 8 1017 l 246 1017 l 485 600 z "},"Ŷ":{"ha":942,"x_min":8,"x_max":933,"o":"m 406 1289 l 556 1289 l 740 1110 l 571 1110 l 481 1201 l 390 1110 l 221 1110 l 406 1289 m 485 600 l 715 1017 l 933 1017 l 579 400 l 579 0 l 378 0 l 378 401 l 8 1017 l 246 1017 l 485 600 z "},"Ÿ":{"ha":942,"x_min":8,"x_max":933,"o":"m 324 1114 q 251 1140 281 1114 q 221 1201 221 1165 q 251 1263 221 1238 q 324 1289 281 1289 q 399 1263 368 1289 q 429 1201 429 1238 q 399 1140 429 1165 q 324 1114 368 1114 m 636 1114 q 563 1140 593 1114 q 532 1201 532 1165 q 563 1263 532 1238 q 636 1289 593 1289 q 710 1263 679 1289 q 740 1201 740 1238 q 710 1140 740 1165 q 636 1114 679 1114 m 485 600 l 715 1017 l 933 1017 l 579 400 l 579 0 l 378 0 l 378 401 l 8 1017 l 246 1017 l 485 600 z "},"Ỵ":{"ha":942,"x_min":8,"x_max":933,"o":"m 485 600 l 715 1017 l 933 1017 l 579 400 l 579 0 l 378 0 l 378 401 l 8 1017 l 246 1017 l 485 600 m 479 -308 q 399 -274 432 -308 q 365 -194 365 -240 q 399 -115 365 -149 q 479 -82 432 -82 q 561 -115 526 -82 q 596 -194 596 -149 q 561 -274 596 -240 q 479 -308 526 -308 z "},"Ỳ":{"ha":942,"x_min":8,"x_max":933,"o":"m 224 1289 l 424 1289 l 553 1111 l 396 1111 l 224 1289 m 485 600 l 715 1017 l 933 1017 l 579 400 l 579 0 l 378 0 l 378 401 l 8 1017 l 246 1017 l 485 600 z "},"Ỷ":{"ha":942,"x_min":8,"x_max":933,"o":"m 315 1261 q 458 1289 374 1289 q 584 1265 535 1289 q 633 1193 633 1242 q 471 1074 633 1108 l 404 1138 q 494 1183 494 1158 q 479 1203 494 1196 q 438 1210 464 1210 q 340 1186 392 1210 l 315 1261 m 485 600 l 715 1017 l 933 1017 l 579 400 l 579 0 l 378 0 l 378 401 l 8 1017 l 246 1017 l 485 600 z "},"Ỹ":{"ha":942,"x_min":8,"x_max":933,"o":"m 215 1126 q 264 1244 218 1199 q 385 1289 310 1289 q 458 1276 429 1289 q 515 1239 486 1263 q 543 1220 532 1226 q 567 1214 554 1214 q 615 1272 604 1214 l 747 1272 q 699 1155 744 1200 q 578 1110 653 1110 q 505 1123 533 1110 q 447 1160 476 1136 q 419 1178 431 1172 q 396 1185 408 1185 q 347 1126 358 1185 l 215 1126 m 485 600 l 715 1017 l 933 1017 l 579 400 l 579 0 l 378 0 l 378 401 l 8 1017 l 246 1017 l 485 600 z "},"Z":{"ha":821,"x_min":24,"x_max":796,"o":"m 776 1017 l 776 906 l 304 181 l 796 181 l 796 0 l 24 0 l 24 113 l 497 838 l 67 838 l 67 1017 l 776 1017 z "},"Ź":{"ha":821,"x_min":24,"x_max":796,"o":"m 350 1113 l 479 1289 l 679 1289 l 507 1113 l 350 1113 m 776 1017 l 776 906 l 304 181 l 796 181 l 796 0 l 24 0 l 24 113 l 497 838 l 67 838 l 67 1017 l 776 1017 z "},"Ž":{"ha":821,"x_min":24,"x_max":796,"o":"m 331 1289 l 422 1203 l 511 1289 l 681 1289 l 496 1111 l 346 1111 l 161 1289 l 331 1289 m 776 1017 l 776 906 l 304 181 l 796 181 l 796 0 l 24 0 l 24 113 l 497 838 l 67 838 l 67 1017 l 776 1017 z "},"Ż":{"ha":821,"x_min":24,"x_max":796,"o":"m 421 1114 q 349 1140 379 1114 q 318 1203 318 1167 q 349 1263 318 1238 q 421 1289 379 1289 q 496 1263 465 1289 q 526 1203 526 1238 q 496 1140 526 1167 q 421 1114 465 1114 m 776 1017 l 776 906 l 304 181 l 796 181 l 796 0 l 24 0 l 24 113 l 497 838 l 67 838 l 67 1017 l 776 1017 z "},"a":{"ha":783,"x_min":56,"x_max":704,"o":"m 394 738 q 622 655 540 738 q 704 419 704 572 l 704 0 l 542 0 q 538 37 540 11 q 532 82 536 63 q 449 8 500 32 q 326 -17 399 -17 q 190 10 251 -17 q 92 87 128 36 q 56 207 56 138 q 97 333 56 279 q 207 415 138 386 q 360 444 276 444 q 514 419 435 444 q 378 579 510 579 q 224 485 272 579 l 86 564 q 206 691 125 644 q 394 738 286 738 m 514 292 q 393 308 444 308 q 288 284 325 308 q 250 215 250 260 q 280 153 250 175 q 357 131 310 131 q 467 166 419 131 q 514 264 514 201 l 514 292 z "},"á":{"ha":783,"x_min":56,"x_max":704,"o":"m 426 1039 l 621 1039 l 454 810 l 301 810 l 426 1039 m 394 738 q 622 655 540 738 q 704 419 704 572 l 704 0 l 542 0 q 538 37 540 11 q 532 82 536 63 q 449 8 500 32 q 326 -17 399 -17 q 190 10 251 -17 q 92 87 128 36 q 56 207 56 138 q 97 333 56 279 q 207 415 138 386 q 360 444 276 444 q 514 419 435 444 q 378 579 510 579 q 224 485 272 579 l 86 564 q 206 691 125 644 q 394 738 286 738 m 514 292 q 393 308 444 308 q 288 284 325 308 q 250 215 250 260 q 280 153 250 175 q 357 131 310 131 q 467 166 419 131 q 514 264 514 201 l 514 292 z "},"ă":{"ha":783,"x_min":56,"x_max":704,"o":"m 389 808 q 210 870 278 808 q 142 1038 142 932 l 293 1038 q 389 929 303 929 q 485 1038 476 929 l 636 1038 q 569 870 636 932 q 389 808 501 808 m 394 738 q 622 655 540 738 q 704 419 704 572 l 704 0 l 542 0 q 538 37 540 11 q 532 82 536 63 q 449 8 500 32 q 326 -17 399 -17 q 190 10 251 -17 q 92 87 128 36 q 56 207 56 138 q 97 333 56 279 q 207 415 138 386 q 360 444 276 444 q 514 419 435 444 q 378 579 510 579 q 224 485 272 579 l 86 564 q 206 691 125 644 q 394 738 286 738 m 514 292 q 393 308 444 308 q 288 284 325 308 q 250 215 250 260 q 280 153 250 175 q 357 131 310 131 q 467 166 419 131 q 514 264 514 201 l 514 292 z "},"ắ":{"ha":783,"x_min":56,"x_max":704,"o":"m 414 1275 l 604 1275 l 454 1079 l 301 1079 l 414 1275 m 389 808 q 210 870 278 808 q 142 1038 142 932 l 293 1038 q 389 929 303 929 q 485 1038 476 929 l 636 1038 q 569 870 636 932 q 389 808 501 808 m 394 738 q 622 655 540 738 q 704 419 704 572 l 704 0 l 542 0 q 538 37 540 11 q 532 82 536 63 q 449 8 500 32 q 326 -17 399 -17 q 190 10 251 -17 q 92 87 128 36 q 56 207 56 138 q 97 333 56 279 q 207 415 138 386 q 360 444 276 444 q 514 419 435 444 q 378 579 510 579 q 224 485 272 579 l 86 564 q 206 691 125 644 q 394 738 286 738 m 514 292 q 393 308 444 308 q 288 284 325 308 q 250 215 250 260 q 280 153 250 175 q 357 131 310 131 q 467 166 419 131 q 514 264 514 201 l 514 292 z "},"ặ":{"ha":783,"x_min":56,"x_max":704,"o":"m 389 808 q 210 870 278 808 q 142 1038 142 932 l 293 1038 q 389 929 303 929 q 485 1038 476 929 l 636 1038 q 569 870 636 932 q 389 808 501 808 m 394 738 q 622 655 540 738 q 704 419 704 572 l 704 0 l 542 0 q 538 37 540 11 q 532 82 536 63 q 449 8 500 32 q 326 -17 399 -17 q 190 10 251 -17 q 92 87 128 36 q 56 207 56 138 q 97 333 56 279 q 207 415 138 386 q 360 444 276 444 q 514 419 435 444 q 378 579 508 579 q 224 485 272 579 l 86 564 q 206 691 125 644 q 394 738 286 738 m 514 292 q 393 308 444 308 q 288 284 325 308 q 250 215 250 260 q 280 153 250 175 q 357 131 310 131 q 467 166 419 131 q 514 264 514 201 l 514 292 m 396 -82 q 477 -115 443 -82 q 511 -194 511 -149 q 477 -274 511 -240 q 396 -308 443 -308 q 315 -274 349 -308 q 282 -194 282 -240 q 315 -115 282 -149 q 396 -82 349 -82 z "},"ằ":{"ha":783,"x_min":56,"x_max":704,"o":"m 363 1275 l 475 1079 l 324 1079 l 172 1275 l 363 1275 m 389 808 q 210 870 278 808 q 142 1038 142 932 l 293 1038 q 389 929 303 929 q 485 1038 476 929 l 636 1038 q 569 870 636 932 q 389 808 501 808 m 394 738 q 622 655 540 738 q 704 419 704 572 l 704 0 l 542 0 q 538 37 540 11 q 532 82 536 63 q 449 8 500 32 q 326 -17 399 -17 q 190 10 251 -17 q 92 87 128 36 q 56 207 56 138 q 97 333 56 279 q 207 415 138 386 q 360 444 276 444 q 514 419 435 444 q 378 579 510 579 q 224 485 272 579 l 86 564 q 206 691 125 644 q 394 738 286 738 m 514 292 q 393 308 444 308 q 288 284 325 308 q 250 215 250 260 q 280 153 250 175 q 357 131 310 131 q 467 166 419 131 q 514 264 514 201 l 514 292 z "},"ẳ":{"ha":783,"x_min":56,"x_max":704,"o":"m 344 1193 q 247 1164 301 1193 l 222 1254 q 288 1280 250 1271 q 365 1289 325 1289 q 492 1258 442 1289 q 542 1168 542 1228 q 378 1018 542 1064 l 313 1093 q 401 1156 401 1121 q 386 1183 401 1174 q 344 1193 371 1193 m 389 808 q 210 863 278 808 q 142 1011 142 918 l 293 1011 q 389 914 303 914 q 485 1011 475 914 l 636 1011 q 569 863 636 918 q 389 808 501 808 m 394 738 q 622 655 540 738 q 704 419 704 572 l 704 0 l 542 0 q 538 37 540 11 q 532 82 536 63 q 449 8 500 32 q 326 -17 399 -17 q 190 10 251 -17 q 92 87 128 36 q 56 207 56 138 q 97 333 56 279 q 207 415 138 386 q 360 444 276 444 q 514 419 435 444 q 378 579 510 579 q 224 485 272 579 l 86 564 q 206 691 125 644 q 394 738 286 738 m 514 292 q 393 308 444 308 q 288 284 325 308 q 250 215 250 260 q 280 153 250 175 q 357 131 310 131 q 467 166 419 131 q 514 264 514 201 l 514 292 z "},"ẵ":{"ha":783,"x_min":56,"x_max":704,"o":"m 303 1156 q 254 1085 264 1156 l 122 1085 q 171 1226 125 1172 q 292 1281 217 1281 q 366 1265 338 1281 q 424 1221 394 1249 q 450 1198 439 1206 q 474 1190 461 1190 q 524 1261 511 1190 l 656 1261 q 606 1121 653 1175 q 485 1067 560 1067 q 410 1083 439 1067 q 356 1125 382 1099 q 327 1148 339 1140 q 303 1156 315 1156 m 389 922 q 485 1025 476 922 l 636 1025 q 569 867 636 925 q 389 808 501 808 q 210 867 278 808 q 142 1025 142 926 l 293 1025 q 389 922 301 922 m 394 738 q 622 655 540 738 q 704 419 704 572 l 704 0 l 542 0 q 538 37 540 11 q 532 82 536 63 q 449 8 500 32 q 326 -17 399 -17 q 190 10 251 -17 q 92 87 128 36 q 56 207 56 138 q 97 333 56 279 q 207 415 138 386 q 360 444 276 444 q 514 419 435 444 q 378 579 510 579 q 224 485 272 579 l 86 564 q 206 691 125 644 q 394 738 286 738 m 514 292 q 393 308 444 308 q 288 284 325 308 q 250 215 250 260 q 280 153 250 175 q 357 131 310 131 q 467 166 419 131 q 514 264 514 201 l 514 292 z "},"ǎ":{"ha":783,"x_min":56,"x_max":704,"o":"m 638 1039 l 460 810 l 315 810 l 138 1039 l 304 1039 l 389 928 l 472 1039 l 638 1039 m 394 738 q 622 655 540 738 q 704 419 704 572 l 704 0 l 542 0 q 538 37 540 11 q 532 82 536 63 q 449 8 500 32 q 326 -17 399 -17 q 190 10 251 -17 q 92 87 128 36 q 56 207 56 138 q 97 333 56 279 q 207 415 138 386 q 360 444 276 444 q 514 419 435 444 q 378 579 510 579 q 224 485 272 579 l 86 564 q 206 691 125 644 q 394 738 286 738 m 514 292 q 393 308 444 308 q 288 284 325 308 q 250 215 250 260 q 280 153 250 175 q 357 131 310 131 q 467 166 419 131 q 514 264 514 201 l 514 292 z "},"â":{"ha":783,"x_min":56,"x_max":704,"o":"m 472 810 l 388 919 l 303 810 l 138 810 l 315 1039 l 460 1039 l 638 810 l 472 810 m 394 738 q 622 655 540 738 q 704 419 704 572 l 704 0 l 542 0 q 538 37 540 11 q 532 82 536 63 q 449 8 500 32 q 326 -17 399 -17 q 190 10 251 -17 q 92 87 128 36 q 56 207 56 138 q 97 333 56 279 q 207 415 138 386 q 360 444 276 444 q 514 419 435 444 q 378 579 510 579 q 224 485 272 579 l 86 564 q 206 691 125 644 q 394 738 286 738 m 514 292 q 393 308 444 308 q 288 284 325 308 q 250 215 250 260 q 280 153 250 175 q 357 131 310 131 q 467 166 419 131 q 514 264 514 201 l 514 292 z "},"ấ":{"ha":783,"x_min":56,"x_max":776,"o":"m 588 1269 l 776 1269 l 626 1072 l 475 1072 l 588 1269 m 467 810 l 383 919 l 299 810 l 133 810 l 311 1039 l 456 1039 l 633 810 l 467 810 m 394 738 q 622 655 540 738 q 704 419 704 572 l 704 0 l 542 0 q 538 37 540 11 q 532 82 536 63 q 449 8 500 32 q 326 -17 399 -17 q 190 10 251 -17 q 92 87 128 36 q 56 207 56 138 q 97 333 56 279 q 207 415 138 386 q 360 444 276 444 q 514 419 435 444 q 378 579 510 579 q 224 485 272 579 l 86 564 q 206 691 125 644 q 394 738 286 738 m 514 292 q 393 308 444 308 q 288 284 325 308 q 250 215 250 260 q 280 153 250 175 q 357 131 310 131 q 467 166 419 131 q 514 264 514 201 l 514 292 z "},"ậ":{"ha":783,"x_min":56,"x_max":704,"o":"m 472 810 l 388 919 l 303 810 l 138 810 l 315 1039 l 460 1039 l 638 810 l 472 810 m 394 738 q 622 655 540 738 q 704 419 704 572 l 704 0 l 542 0 q 538 37 540 11 q 532 82 536 63 q 449 8 500 32 q 326 -17 399 -17 q 190 10 251 -17 q 92 87 128 36 q 56 207 56 138 q 97 333 56 279 q 207 415 138 386 q 360 444 276 444 q 514 419 435 444 q 378 579 508 579 q 224 485 272 579 l 86 564 q 206 691 125 644 q 394 738 286 738 m 514 292 q 393 308 444 308 q 288 284 325 308 q 250 215 250 260 q 280 153 250 175 q 357 131 310 131 q 467 166 419 131 q 514 264 514 201 l 514 292 m 396 -82 q 477 -115 443 -82 q 511 -194 511 -149 q 477 -274 511 -240 q 396 -308 443 -308 q 315 -274 349 -308 q 282 -194 282 -240 q 315 -115 282 -149 q 396 -82 349 -82 z "},"ầ":{"ha":783,"x_min":56,"x_max":704,"o":"m 535 1269 l 647 1072 l 496 1072 l 346 1269 l 535 1269 m 467 810 l 383 919 l 299 810 l 133 810 l 311 1039 l 456 1039 l 633 810 l 467 810 m 394 738 q 622 655 540 738 q 704 419 704 572 l 704 0 l 542 0 q 538 37 540 11 q 532 82 536 63 q 449 8 500 32 q 326 -17 399 -17 q 190 10 251 -17 q 92 87 128 36 q 56 207 56 138 q 97 333 56 279 q 207 415 138 386 q 360 444 276 444 q 514 419 435 444 q 378 579 510 579 q 224 485 272 579 l 86 564 q 206 691 125 644 q 394 738 286 738 m 514 292 q 393 308 444 308 q 288 284 325 308 q 250 215 250 260 q 280 153 250 175 q 357 131 310 131 q 467 166 419 131 q 514 264 514 201 l 514 292 z "},"ẩ":{"ha":783,"x_min":56,"x_max":729,"o":"m 533 1181 q 436 1149 490 1181 l 411 1247 q 554 1285 471 1285 q 680 1251 631 1285 q 729 1154 729 1218 q 567 990 729 1040 l 500 1074 q 567 1104 544 1089 q 590 1140 590 1119 q 575 1169 590 1158 q 533 1181 560 1181 m 467 810 l 383 915 l 299 810 l 133 810 l 311 1028 l 456 1028 l 633 810 l 467 810 m 394 738 q 622 655 540 738 q 704 419 704 572 l 704 0 l 542 0 q 538 37 540 11 q 532 82 536 63 q 449 8 500 32 q 326 -17 399 -17 q 190 10 251 -17 q 92 87 128 36 q 56 207 56 138 q 97 333 56 279 q 207 415 138 386 q 360 444 276 444 q 514 419 435 444 q 378 579 510 579 q 224 485 272 579 l 86 564 q 206 691 125 644 q 394 738 286 738 m 514 292 q 393 308 444 308 q 288 284 325 308 q 250 215 250 260 q 280 153 250 175 q 357 131 310 131 q 467 166 419 131 q 514 264 514 201 l 514 292 z "},"ẫ":{"ha":783,"x_min":56,"x_max":704,"o":"m 301 1154 q 251 1082 264 1154 l 119 1082 q 169 1225 122 1169 q 290 1281 215 1281 q 363 1265 335 1281 q 419 1221 392 1249 q 447 1197 436 1204 q 472 1189 458 1189 q 521 1261 511 1189 l 653 1261 q 604 1117 650 1172 q 483 1063 558 1063 q 409 1078 438 1063 q 351 1124 381 1094 q 325 1147 336 1139 q 301 1154 314 1154 m 136 810 l 314 1029 l 458 1029 l 636 810 l 471 810 l 388 915 l 301 810 l 136 810 m 394 738 q 622 655 540 738 q 704 419 704 572 l 704 0 l 542 0 q 538 37 540 11 q 532 82 536 63 q 449 8 500 32 q 326 -17 399 -17 q 190 10 251 -17 q 92 87 128 36 q 56 207 56 138 q 97 333 56 279 q 207 415 138 386 q 360 444 276 444 q 514 419 435 444 q 378 579 510 579 q 224 485 272 579 l 86 564 q 206 691 125 644 q 394 738 286 738 m 514 292 q 393 308 444 308 q 288 284 325 308 q 250 215 250 260 q 280 153 250 175 q 357 131 310 131 q 467 166 419 131 q 514 264 514 201 l 514 292 z "},"ä":{"ha":783,"x_min":56,"x_max":704,"o":"m 232 817 q 160 849 190 817 q 129 924 129 881 q 159 999 129 968 q 232 1031 189 1031 q 307 999 276 1031 q 338 924 338 968 q 307 849 338 881 q 232 817 276 817 m 543 817 q 470 849 500 817 q 440 924 440 881 q 470 999 440 968 q 543 1031 500 1031 q 617 999 586 1031 q 649 924 649 968 q 617 849 649 881 q 543 817 586 817 m 394 738 q 622 655 540 738 q 704 419 704 572 l 704 0 l 542 0 q 538 37 540 11 q 532 82 536 63 q 449 8 500 32 q 326 -17 399 -17 q 190 10 251 -17 q 92 87 128 36 q 56 207 56 138 q 97 333 56 279 q 207 415 138 386 q 360 444 276 444 q 514 419 435 444 q 378 579 510 579 q 224 485 272 579 l 86 564 q 206 691 125 644 q 394 738 286 738 m 514 292 q 393 308 444 308 q 288 284 325 308 q 250 215 250 260 q 280 153 250 175 q 357 131 310 131 q 467 166 419 131 q 514 264 514 201 l 514 292 z "},"ạ":{"ha":783,"x_min":56,"x_max":704,"o":"m 394 738 q 622 655 540 738 q 704 419 704 572 l 704 0 l 542 0 q 538 37 540 11 q 532 82 536 63 q 449 8 500 32 q 326 -17 399 -17 q 190 10 251 -17 q 92 87 128 36 q 56 207 56 138 q 97 333 56 279 q 207 415 138 386 q 360 444 276 444 q 514 419 435 444 q 378 579 508 579 q 224 485 272 579 l 86 564 q 206 691 125 644 q 394 738 286 738 m 514 292 q 393 308 444 308 q 288 284 325 308 q 250 215 250 260 q 280 153 250 175 q 357 131 310 131 q 467 166 419 131 q 514 264 514 201 l 514 292 m 396 -82 q 477 -115 443 -82 q 511 -194 511 -149 q 477 -274 511 -240 q 396 -308 443 -308 q 315 -274 349 -308 q 282 -194 282 -240 q 315 -115 282 -149 q 396 -82 349 -82 z "},"à":{"ha":783,"x_min":56,"x_max":704,"o":"m 350 1039 l 475 810 l 324 810 l 156 1039 l 350 1039 m 394 738 q 622 655 540 738 q 704 419 704 572 l 704 0 l 542 0 q 538 37 540 11 q 532 82 536 63 q 449 8 500 32 q 326 -17 399 -17 q 190 10 251 -17 q 92 87 128 36 q 56 207 56 138 q 97 333 56 279 q 207 415 138 386 q 360 444 276 444 q 514 419 435 444 q 378 579 510 579 q 224 485 272 579 l 86 564 q 206 691 125 644 q 394 738 286 738 m 514 292 q 393 308 444 308 q 288 284 325 308 q 250 215 250 260 q 280 153 250 175 q 357 131 310 131 q 467 166 419 131 q 514 264 514 201 l 514 292 z "},"ả":{"ha":783,"x_min":56,"x_max":704,"o":"m 344 974 q 247 942 299 974 l 222 1044 q 288 1073 250 1063 q 365 1083 325 1083 q 492 1049 442 1083 q 542 946 542 1015 q 378 775 542 828 l 313 863 q 401 933 401 893 q 386 963 401 951 q 344 974 371 974 m 394 738 q 622 655 540 738 q 704 419 704 572 l 704 0 l 542 0 q 538 37 540 11 q 532 82 536 63 q 449 8 500 32 q 326 -17 399 -17 q 190 10 251 -17 q 92 87 128 36 q 56 207 56 138 q 97 333 56 279 q 207 415 138 386 q 360 444 276 444 q 514 419 435 444 q 378 579 510 579 q 224 485 272 579 l 86 564 q 206 691 125 644 q 394 738 286 738 m 514 292 q 393 308 444 308 q 288 284 325 308 q 250 215 250 260 q 280 153 250 175 q 357 131 310 131 q 467 166 419 131 q 514 264 514 201 l 514 292 z "},"ɑ":{"ha":874,"x_min":49,"x_max":783,"o":"m 783 719 l 783 0 l 614 0 q 603 108 607 81 q 505 15 565 46 q 374 -17 444 -17 q 211 28 285 -17 q 93 158 138 72 q 49 360 49 243 q 93 563 49 478 q 211 693 138 649 q 374 738 285 738 q 506 706 446 738 q 603 613 565 675 q 614 719 607 642 l 783 719 m 418 149 q 540 201 490 149 q 590 360 590 254 q 540 515 590 464 q 418 565 490 565 q 295 511 342 565 q 249 360 249 457 q 295 206 249 263 q 418 149 342 149 z "},"ā":{"ha":783,"x_min":56,"x_max":704,"o":"m 151 988 l 626 988 l 626 856 l 151 856 l 151 988 m 394 738 q 622 655 540 738 q 704 419 704 572 l 704 0 l 542 0 q 538 37 540 11 q 532 82 536 63 q 449 8 500 32 q 326 -17 399 -17 q 190 10 251 -17 q 92 87 128 36 q 56 207 56 138 q 97 333 56 279 q 207 415 138 386 q 360 444 276 444 q 514 419 435 444 q 378 579 510 579 q 224 485 272 579 l 86 564 q 206 691 125 644 q 394 738 286 738 m 514 292 q 393 308 444 308 q 288 284 325 308 q 250 215 250 260 q 280 153 250 175 q 357 131 310 131 q 467 166 419 131 q 514 264 514 201 l 514 292 z "},"ą":{"ha":783,"x_min":56,"x_max":790,"o":"m 790 -262 q 712 -319 756 -300 q 610 -339 668 -339 q 471 -298 525 -339 q 417 -179 417 -257 q 449 -74 417 -121 q 540 15 482 -26 q 532 82 539 49 q 449 8 500 32 q 326 -17 399 -17 q 190 10 251 -17 q 92 87 128 36 q 56 207 56 138 q 97 333 56 279 q 207 415 138 386 q 360 444 276 444 q 514 419 435 444 q 378 579 508 579 q 224 485 272 579 l 86 564 q 206 691 125 644 q 394 738 286 738 q 622 655 540 738 q 704 419 704 572 l 704 0 q 591 -77 628 -40 q 554 -157 554 -114 q 622 -218 554 -218 q 729 -169 681 -218 l 790 -262 m 514 292 q 393 308 444 308 q 288 284 325 308 q 250 215 250 260 q 280 153 250 175 q 357 131 310 131 q 467 166 419 131 q 514 264 514 201 l 514 292 z "},"å":{"ha":783,"x_min":56,"x_max":704,"o":"m 389 793 q 269 839 317 793 q 221 957 221 885 q 269 1076 221 1029 q 389 1122 317 1122 q 506 1076 460 1122 q 553 957 553 1029 q 506 839 553 885 q 389 793 460 793 m 389 1025 q 342 1006 360 1025 q 325 957 325 988 q 342 909 325 928 q 389 890 360 890 q 433 909 417 890 q 450 957 450 928 q 433 1006 450 988 q 389 1025 417 1025 m 394 738 q 622 655 540 738 q 704 419 704 572 l 704 0 l 542 0 q 538 37 540 11 q 532 82 536 63 q 449 8 500 32 q 326 -17 399 -17 q 190 10 251 -17 q 92 87 128 36 q 56 207 56 138 q 97 333 56 279 q 207 415 138 386 q 360 444 276 444 q 514 419 435 444 q 378 579 510 579 q 224 485 272 579 l 86 564 q 206 691 125 644 q 394 738 286 738 m 514 292 q 393 308 444 308 q 288 284 325 308 q 250 215 250 260 q 280 153 250 175 q 357 131 310 131 q 467 166 419 131 q 514 264 514 201 l 514 292 z "},"ǻ":{"ha":783,"x_min":56,"x_max":704,"o":"m 422 1289 l 613 1289 l 457 1119 l 306 1119 l 422 1289 m 389 790 q 279 829 324 790 q 235 929 235 868 q 279 1027 235 988 q 389 1067 324 1067 q 495 1028 453 1067 q 538 929 538 989 q 496 829 538 868 q 389 790 454 790 m 389 985 q 346 969 363 985 q 329 929 329 954 q 346 887 329 903 q 389 871 363 871 q 429 887 414 871 q 444 929 444 903 q 429 969 444 954 q 389 985 414 985 m 394 738 q 622 655 540 738 q 704 419 704 572 l 704 0 l 542 0 q 538 37 540 11 q 532 82 536 63 q 449 8 500 32 q 326 -17 399 -17 q 190 10 251 -17 q 92 87 128 36 q 56 207 56 138 q 97 333 56 279 q 207 415 138 386 q 360 444 276 444 q 514 419 435 444 q 378 579 510 579 q 224 485 272 579 l 86 564 q 206 691 125 644 q 394 738 286 738 m 514 292 q 393 308 444 308 q 288 284 325 308 q 250 215 250 260 q 280 153 250 175 q 357 131 310 131 q 467 166 419 131 q 514 264 514 201 l 514 292 z "},"ḁ":{"ha":783,"x_min":56,"x_max":704,"o":"m 394 738 q 622 655 540 738 q 704 419 704 572 l 704 0 l 542 0 q 538 37 540 11 q 532 82 536 63 q 449 8 500 32 q 326 -17 399 -17 q 190 10 251 -17 q 92 87 128 36 q 56 207 56 138 q 97 333 56 279 q 207 415 138 386 q 360 444 276 444 q 514 419 435 444 q 378 579 508 579 q 224 485 272 579 l 86 564 q 206 691 125 644 q 394 738 286 738 m 514 292 q 393 308 444 308 q 288 284 325 308 q 250 215 250 260 q 280 153 250 175 q 357 131 310 131 q 467 166 419 131 q 514 264 514 201 l 514 292 m 394 -46 q 513 -87 467 -46 q 560 -193 560 -128 q 513 -299 560 -258 q 394 -339 467 -339 q 276 -298 324 -339 q 228 -193 228 -257 q 276 -87 228 -128 q 394 -46 324 -46 m 394 -250 q 440 -234 422 -250 q 457 -193 457 -218 q 440 -151 457 -167 q 394 -136 422 -136 q 349 -151 365 -136 q 332 -193 332 -167 q 349 -234 332 -218 q 394 -250 365 -250 z "},"ã":{"ha":783,"x_min":56,"x_max":704,"o":"m 303 906 q 254 832 265 906 l 122 832 q 171 981 125 924 q 292 1039 217 1039 q 365 1022 338 1039 q 424 975 393 1006 q 451 951 440 958 q 474 943 461 943 q 524 1018 511 943 l 656 1018 q 606 869 653 926 q 485 811 560 811 q 412 828 440 811 q 356 872 383 844 q 326 898 338 890 q 303 906 315 906 m 394 738 q 622 655 540 738 q 704 419 704 572 l 704 0 l 542 0 q 538 37 540 11 q 532 82 536 63 q 449 8 500 32 q 326 -17 399 -17 q 190 10 251 -17 q 92 87 128 36 q 56 207 56 138 q 97 333 56 279 q 207 415 138 386 q 360 444 276 444 q 514 419 435 444 q 378 579 510 579 q 224 485 272 579 l 86 564 q 206 691 125 644 q 394 738 286 738 m 514 292 q 393 308 444 308 q 288 284 325 308 q 250 215 250 260 q 280 153 250 175 q 357 131 310 131 q 467 166 419 131 q 514 264 514 201 l 514 292 z "},"æ":{"ha":1239,"x_min":56,"x_max":1201,"o":"m 882 738 q 1049 695 976 738 q 1161 576 1121 653 q 1201 399 1201 499 q 1193 308 1201 354 l 715 308 q 774 187 728 228 q 888 146 819 146 q 974 167 936 146 q 1032 232 1011 189 l 1175 149 q 1063 26 1144 69 q 879 -17 981 -17 q 726 17 794 -17 q 614 114 658 50 q 354 -17 543 -17 q 140 43 224 -17 q 56 207 56 103 q 95 333 56 279 q 204 415 135 386 q 358 444 274 444 q 517 419 435 444 q 374 579 508 579 q 224 483 272 579 l 86 564 q 197 691 118 644 q 381 738 276 738 q 526 706 465 738 q 624 617 588 675 q 737 707 669 676 q 882 738 804 738 m 1004 443 q 962 545 999 510 q 869 581 925 581 q 772 544 813 581 q 717 443 731 508 l 1004 443 m 518 292 q 390 308 446 308 q 286 284 322 308 q 250 218 250 260 q 282 153 250 176 q 364 131 314 131 q 473 166 428 131 q 518 264 518 201 l 518 292 z "},"ǽ":{"ha":1239,"x_min":56,"x_max":1201,"o":"m 668 1039 l 863 1039 l 696 810 l 543 810 l 668 1039 m 882 738 q 1049 695 976 738 q 1161 576 1121 653 q 1201 399 1201 499 q 1193 308 1201 354 l 715 308 q 774 187 728 228 q 888 146 819 146 q 974 167 936 146 q 1032 232 1011 189 l 1175 149 q 1063 26 1144 69 q 879 -17 981 -17 q 726 17 794 -17 q 614 114 658 50 q 354 -17 543 -17 q 140 43 224 -17 q 56 207 56 103 q 95 333 56 279 q 204 415 135 386 q 358 444 274 444 q 517 419 435 444 q 374 579 508 579 q 224 483 272 579 l 86 564 q 197 691 118 644 q 381 738 276 738 q 526 706 465 738 q 624 617 588 675 q 737 707 669 676 q 882 738 804 738 m 1004 443 q 962 545 999 510 q 869 581 925 581 q 772 544 813 581 q 717 443 731 508 l 1004 443 m 518 292 q 390 308 446 308 q 286 284 322 308 q 250 218 250 260 q 282 153 250 176 q 364 131 314 131 q 473 166 428 131 q 518 264 518 201 l 518 292 z "},"b":{"ha":875,"x_min":90,"x_max":825,"o":"m 501 738 q 663 693 589 738 q 781 563 738 649 q 825 360 825 476 q 781 158 825 243 q 663 28 738 72 q 501 -17 589 -17 q 369 14 429 -17 q 271 108 308 44 q 260 0 261 29 l 90 0 l 90 1057 l 283 1057 l 283 629 q 378 710 322 683 q 501 738 435 738 m 457 149 q 578 206 532 149 q 625 360 625 263 q 579 511 625 457 q 457 565 533 565 q 333 515 383 565 q 283 360 283 464 q 334 202 283 256 q 457 149 385 149 z "},"c":{"ha":697,"x_min":49,"x_max":694,"o":"m 414 151 q 547 233 497 151 l 694 147 q 585 25 660 67 q 414 -17 510 -17 q 235 27 318 -17 q 100 156 151 71 q 49 360 49 242 q 100 565 49 479 q 235 694 151 650 q 414 738 318 738 q 585 696 510 738 q 694 574 660 654 l 547 488 q 414 568 499 568 q 294 512 339 568 q 249 360 249 456 q 294 208 249 265 q 414 151 340 151 z "},"ć":{"ha":697,"x_min":49,"x_max":694,"o":"m 308 810 l 433 1039 l 628 1039 l 460 810 l 308 810 m 414 151 q 547 233 497 151 l 694 147 q 585 25 660 67 q 414 -17 510 -17 q 235 27 318 -17 q 100 156 151 71 q 49 360 49 242 q 100 565 49 479 q 235 694 151 650 q 414 738 318 738 q 585 696 510 738 q 694 574 660 654 l 547 488 q 414 568 499 568 q 294 512 339 568 q 249 360 249 456 q 294 208 249 265 q 414 151 340 151 z "},"č":{"ha":697,"x_min":49,"x_max":694,"o":"m 311 1039 l 396 929 l 479 1039 l 644 1039 l 467 810 l 322 810 l 144 1039 l 311 1039 m 414 151 q 547 233 497 151 l 694 147 q 585 25 660 67 q 414 -17 510 -17 q 235 27 318 -17 q 100 156 151 71 q 49 360 49 242 q 100 565 49 479 q 235 694 151 650 q 414 738 318 738 q 585 696 510 738 q 694 574 660 654 l 547 488 q 414 568 499 568 q 294 512 339 568 q 249 360 249 456 q 294 208 249 265 q 414 151 340 151 z "},"ç":{"ha":697,"x_min":49,"x_max":694,"o":"m 414 151 q 547 233 497 151 l 694 147 q 603 37 664 78 q 461 -14 542 -4 l 433 -79 q 544 -111 500 -79 q 588 -203 588 -143 q 529 -306 588 -272 q 385 -339 471 -339 q 271 -322 331 -339 l 271 -224 q 378 -240 328 -240 q 453 -206 453 -240 q 433 -178 453 -187 q 379 -168 413 -168 q 303 -179 347 -168 l 290 -114 l 335 -8 q 190 55 254 7 q 87 181 125 103 q 49 360 49 258 q 100 565 49 479 q 235 694 151 650 q 414 738 318 738 q 585 696 510 738 q 694 574 660 654 l 547 488 q 414 568 499 568 q 294 512 339 568 q 249 360 249 456 q 294 208 249 265 q 414 151 340 151 z "},"ĉ":{"ha":697,"x_min":49,"x_max":694,"o":"m 322 1039 l 467 1039 l 644 810 l 479 810 l 394 919 l 310 810 l 143 810 l 322 1039 m 414 151 q 547 233 497 151 l 694 147 q 585 25 660 67 q 414 -17 510 -17 q 235 27 318 -17 q 100 156 151 71 q 49 360 49 242 q 100 565 49 479 q 235 694 151 650 q 414 738 318 738 q 585 696 510 738 q 694 574 660 654 l 547 488 q 414 568 499 568 q 294 512 339 568 q 249 360 249 456 q 294 208 249 265 q 414 151 340 151 z "},"ċ":{"ha":697,"x_min":49,"x_max":694,"o":"m 396 811 q 315 847 349 811 q 281 929 281 882 q 315 1013 281 978 q 396 1047 349 1047 q 476 1012 442 1047 q 511 929 511 976 q 477 847 511 882 q 396 811 443 811 m 414 151 q 547 233 497 151 l 694 147 q 585 25 660 67 q 414 -17 510 -17 q 235 27 318 -17 q 100 156 151 71 q 49 360 49 242 q 100 565 49 479 q 235 694 151 650 q 414 738 318 738 q 585 696 510 738 q 694 574 660 654 l 547 488 q 414 568 499 568 q 294 512 339 568 q 249 360 249 456 q 294 208 249 265 q 414 151 340 151 z "},"d":{"ha":874,"x_min":49,"x_max":783,"o":"m 590 1057 l 783 1057 l 783 0 l 614 0 q 603 108 607 81 q 505 15 565 46 q 374 -17 444 -17 q 211 28 285 -17 q 93 158 138 72 q 49 360 49 243 q 93 563 49 478 q 211 693 138 649 q 374 738 285 738 q 495 711 439 738 q 590 631 551 685 l 590 1057 m 418 149 q 540 201 490 149 q 590 360 590 254 q 540 515 590 464 q 418 565 490 565 q 295 511 342 565 q 249 360 249 457 q 295 206 249 263 q 418 149 342 149 z "},"ð":{"ha":833,"x_min":49,"x_max":785,"o":"m 557 893 q 726 661 668 790 q 785 390 785 532 q 735 170 785 263 q 601 31 685 78 q 418 -17 518 -17 q 233 28 318 -17 q 99 157 149 74 q 49 350 49 240 q 99 542 49 458 q 233 670 150 625 q 407 715 315 715 q 511 690 465 715 q 400 806 469 751 l 206 699 l 149 808 l 282 882 q 151 939 215 917 l 243 1075 q 450 975 360 1033 l 631 1075 l 690 965 l 557 893 m 418 143 q 538 199 492 143 q 583 349 583 256 q 537 497 583 442 q 418 553 490 553 q 297 497 344 553 q 249 349 249 442 q 297 199 249 256 q 418 143 344 143 z "},"ď":{"ha":951,"x_min":49,"x_max":1015,"o":"m 921 1063 q 989 1032 963 1063 q 1015 938 1015 1001 q 967 799 1015 850 q 838 735 918 747 l 838 814 q 922 881 908 829 l 917 881 q 858 907 881 881 q 835 974 835 933 q 859 1039 835 1015 q 921 1063 883 1063 m 590 1057 l 783 1057 l 783 0 l 614 0 q 603 108 607 81 q 505 15 565 46 q 374 -17 444 -17 q 211 28 285 -17 q 93 158 138 72 q 49 360 49 243 q 93 563 49 478 q 211 693 138 649 q 374 738 285 738 q 495 711 439 738 q 590 631 551 685 l 590 1057 m 418 149 q 540 201 490 149 q 590 360 590 254 q 540 515 590 464 q 418 565 490 565 q 295 511 342 565 q 249 360 249 457 q 295 206 249 263 q 418 149 342 149 z "},"đ":{"ha":874,"x_min":49,"x_max":886,"o":"m 783 938 l 886 938 l 886 800 l 783 800 l 783 0 l 614 0 q 603 108 607 81 q 505 15 565 46 q 374 -17 444 -17 q 211 28 285 -17 q 93 158 138 72 q 49 360 49 243 q 93 563 49 478 q 211 693 138 649 q 374 738 285 738 q 495 711 439 738 q 590 631 551 685 l 590 800 l 425 800 l 425 938 l 590 938 l 590 1057 l 783 1057 l 783 938 m 418 149 q 540 201 490 149 q 590 360 590 254 q 540 515 590 464 q 418 565 490 565 q 295 511 342 565 q 249 360 249 457 q 295 206 249 263 q 418 149 342 149 z "},"e":{"ha":774,"x_min":49,"x_max":736,"o":"m 410 738 q 580 695 506 738 q 695 576 654 653 q 736 399 736 499 q 728 308 736 354 l 250 308 q 308 187 263 228 q 422 146 354 146 q 509 167 471 146 q 568 232 547 189 l 710 149 q 598 26 681 69 q 414 -17 515 -17 q 233 26 317 -17 q 99 156 150 69 q 49 363 49 242 q 99 567 49 482 q 232 694 150 651 q 410 738 314 738 m 404 581 q 307 544 347 581 q 253 443 267 508 l 539 443 q 497 545 533 510 q 404 581 460 581 z "},"é":{"ha":774,"x_min":49,"x_max":736,"o":"m 318 810 l 443 1039 l 638 1039 l 471 810 l 318 810 m 410 738 q 580 695 506 738 q 695 576 654 653 q 736 399 736 499 q 728 308 736 354 l 250 308 q 308 187 263 228 q 422 146 354 146 q 509 167 471 146 q 568 232 547 189 l 710 149 q 598 26 681 69 q 414 -17 515 -17 q 233 26 317 -17 q 99 156 150 69 q 49 363 49 242 q 99 567 49 482 q 232 694 150 651 q 410 738 314 738 m 404 581 q 307 544 347 581 q 253 443 267 508 l 539 443 q 497 545 533 510 q 404 581 460 581 z "},"ĕ":{"ha":774,"x_min":49,"x_max":736,"o":"m 406 808 q 226 870 294 808 q 158 1038 158 932 l 310 1038 q 338 958 314 986 q 406 929 363 929 q 503 1038 492 929 l 653 1038 q 585 870 653 932 q 406 808 518 808 m 410 738 q 580 695 506 738 q 695 576 654 653 q 736 399 736 499 q 728 308 736 354 l 250 308 q 308 187 263 228 q 422 146 354 146 q 509 167 471 146 q 568 232 547 189 l 710 149 q 598 26 681 69 q 414 -17 515 -17 q 233 26 317 -17 q 99 156 150 69 q 49 363 49 242 q 99 567 49 482 q 232 694 150 651 q 410 738 314 738 m 404 581 q 307 544 347 581 q 253 443 267 508 l 539 443 q 497 545 533 510 q 404 581 460 581 z "},"ě":{"ha":774,"x_min":49,"x_max":736,"o":"m 321 1039 l 406 928 l 489 1039 l 654 1039 l 476 810 l 333 810 l 154 1039 l 321 1039 m 410 738 q 580 695 506 738 q 695 576 654 653 q 736 399 736 499 q 728 308 736 354 l 250 308 q 308 187 263 228 q 422 146 354 146 q 509 167 471 146 q 568 232 547 189 l 710 149 q 598 26 681 69 q 414 -17 515 -17 q 233 26 317 -17 q 99 156 150 69 q 49 363 49 242 q 99 567 49 482 q 232 694 150 651 q 410 738 314 738 m 404 581 q 307 544 347 581 q 253 443 267 508 l 539 443 q 497 545 533 510 q 404 581 460 581 z "},"ê":{"ha":774,"x_min":49,"x_max":736,"o":"m 332 1039 l 476 1039 l 654 810 l 489 810 l 404 919 l 319 810 l 154 810 l 332 1039 m 410 738 q 580 695 506 738 q 695 576 654 653 q 736 399 736 499 q 728 308 736 354 l 250 308 q 308 187 263 228 q 422 146 354 146 q 509 167 471 146 q 568 232 547 189 l 710 149 q 598 26 681 69 q 414 -17 515 -17 q 233 26 317 -17 q 99 156 150 69 q 49 363 49 242 q 99 567 49 482 q 232 694 150 651 q 410 738 314 738 m 404 581 q 307 544 347 581 q 253 443 267 508 l 539 443 q 497 545 533 510 q 404 581 460 581 z "},"ế":{"ha":774,"x_min":49,"x_max":811,"o":"m 492 1063 l 617 1285 l 811 1285 l 643 1063 l 492 1063 m 328 1031 l 472 1031 l 650 810 l 485 810 l 401 917 l 317 810 l 150 810 l 328 1031 m 410 738 q 580 695 506 738 q 695 576 654 653 q 736 399 736 499 q 728 308 736 354 l 250 308 q 308 187 263 228 q 422 146 354 146 q 509 167 471 146 q 568 232 547 189 l 710 149 q 598 26 681 69 q 414 -17 515 -17 q 233 26 317 -17 q 99 156 150 69 q 49 363 49 242 q 99 567 49 482 q 232 694 150 651 q 410 738 314 738 m 404 581 q 307 544 347 581 q 253 443 267 508 l 539 443 q 497 545 533 510 q 404 581 460 581 z "},"ệ":{"ha":774,"x_min":49,"x_max":736,"o":"m 332 1039 l 476 1039 l 654 810 l 489 810 l 404 919 l 319 810 l 154 810 l 332 1039 m 410 738 q 580 695 506 738 q 695 576 654 653 q 736 399 736 499 q 728 308 736 354 l 250 308 q 308 187 263 228 q 422 146 354 146 q 509 167 471 146 q 568 232 547 189 l 710 149 q 598 26 681 69 q 414 -17 515 -17 q 233 26 317 -17 q 99 156 150 69 q 49 363 49 242 q 99 567 49 482 q 232 694 150 651 q 410 738 314 738 m 404 581 q 307 544 347 581 q 253 443 267 508 l 539 443 q 497 545 533 510 q 404 581 460 581 m 414 -308 q 333 -274 367 -308 q 300 -194 300 -240 q 333 -115 300 -149 q 414 -82 367 -82 q 495 -115 461 -82 q 529 -194 529 -149 q 495 -274 529 -240 q 414 -308 461 -308 z "},"ề":{"ha":774,"x_min":49,"x_max":736,"o":"m 346 1285 l 539 1285 l 664 1063 l 513 1063 l 346 1285 m 328 1031 l 472 1031 l 650 810 l 485 810 l 401 917 l 317 810 l 150 810 l 328 1031 m 410 738 q 580 695 506 738 q 695 576 654 653 q 736 399 736 499 q 728 308 736 354 l 250 308 q 308 187 263 228 q 422 146 354 146 q 509 167 471 146 q 568 232 547 189 l 710 149 q 598 26 681 69 q 414 -17 515 -17 q 233 26 317 -17 q 99 156 150 69 q 49 363 49 242 q 99 567 49 482 q 232 694 150 651 q 410 738 314 738 m 404 581 q 307 544 347 581 q 253 443 267 508 l 539 443 q 497 545 533 510 q 404 581 460 581 z "},"ể":{"ha":774,"x_min":49,"x_max":746,"o":"m 428 1247 q 571 1285 488 1285 q 697 1251 647 1285 q 746 1154 746 1218 q 583 990 746 1040 l 517 1074 q 584 1104 561 1089 q 607 1140 607 1119 q 592 1169 607 1158 q 550 1181 576 1181 q 453 1149 507 1181 l 428 1247 m 328 1028 l 472 1028 l 650 810 l 485 810 l 401 915 l 317 810 l 150 810 l 328 1028 m 410 738 q 580 695 506 738 q 695 576 654 653 q 736 399 736 499 q 728 308 736 354 l 250 308 q 308 187 263 228 q 422 146 354 146 q 509 167 471 146 q 568 232 547 189 l 710 149 q 598 26 681 69 q 414 -17 515 -17 q 233 26 317 -17 q 99 156 150 69 q 49 363 49 242 q 99 567 49 482 q 232 694 150 651 q 410 738 314 738 m 404 581 q 307 544 347 581 q 253 443 267 508 l 539 443 q 497 545 533 510 q 404 581 460 581 z "},"ễ":{"ha":774,"x_min":49,"x_max":736,"o":"m 318 1154 q 269 1082 279 1154 l 136 1082 q 185 1225 139 1169 q 307 1281 232 1281 q 380 1265 351 1281 q 438 1221 408 1249 q 465 1197 454 1204 q 489 1189 476 1189 q 538 1261 528 1189 l 669 1261 q 621 1117 667 1172 q 500 1063 575 1063 q 427 1078 456 1063 q 369 1122 399 1094 q 342 1147 353 1139 q 318 1154 331 1154 m 331 1029 l 475 1029 l 653 810 l 488 810 l 404 915 l 319 810 l 153 810 l 331 1029 m 410 738 q 580 695 506 738 q 695 576 654 653 q 736 399 736 499 q 728 308 736 354 l 250 308 q 308 187 263 228 q 422 146 354 146 q 509 167 471 146 q 568 232 547 189 l 710 149 q 598 26 681 69 q 414 -17 515 -17 q 233 26 317 -17 q 99 156 150 69 q 49 363 49 242 q 99 567 49 482 q 232 694 150 651 q 410 738 314 738 m 404 581 q 307 544 347 581 q 253 443 267 508 l 539 443 q 497 545 533 510 q 404 581 460 581 z "},"ë":{"ha":774,"x_min":49,"x_max":736,"o":"m 249 817 q 176 849 207 817 q 146 924 146 881 q 176 999 146 968 q 249 1031 206 1031 q 324 999 293 1031 q 354 924 354 968 q 324 849 354 881 q 249 817 293 817 m 561 817 q 488 849 518 817 q 457 924 457 881 q 488 999 457 968 q 561 1031 518 1031 q 635 999 604 1031 q 665 924 665 968 q 635 849 665 881 q 561 817 604 817 m 410 738 q 580 695 506 738 q 695 576 654 653 q 736 399 736 499 q 728 308 736 354 l 250 308 q 308 187 263 228 q 422 146 354 146 q 509 167 471 146 q 568 232 547 189 l 710 149 q 598 26 681 69 q 414 -17 515 -17 q 233 26 317 -17 q 99 156 150 69 q 49 363 49 242 q 99 567 49 482 q 232 694 150 651 q 410 738 314 738 m 404 581 q 307 544 347 581 q 253 443 267 508 l 539 443 q 497 545 533 510 q 404 581 460 581 z "},"ė":{"ha":774,"x_min":49,"x_max":736,"o":"m 406 811 q 324 846 358 811 q 290 928 290 881 q 324 1011 290 976 q 406 1046 358 1046 q 487 1011 453 1046 q 521 928 521 976 q 487 846 521 881 q 406 811 453 811 m 410 738 q 580 695 506 738 q 695 576 654 653 q 736 399 736 499 q 728 308 736 354 l 250 308 q 308 187 263 228 q 422 146 354 146 q 509 167 471 146 q 568 232 547 189 l 710 149 q 598 26 681 69 q 414 -17 515 -17 q 233 26 317 -17 q 99 156 150 69 q 49 363 49 242 q 99 567 49 482 q 232 694 150 651 q 410 738 314 738 m 404 581 q 307 544 347 581 q 253 443 267 508 l 539 443 q 497 545 533 510 q 404 581 460 581 z "},"ẹ":{"ha":774,"x_min":49,"x_max":736,"o":"m 410 738 q 580 695 506 738 q 695 576 654 653 q 736 399 736 499 q 728 308 736 354 l 250 308 q 308 187 263 228 q 422 146 354 146 q 509 167 471 146 q 568 232 547 189 l 710 149 q 598 26 681 69 q 414 -17 515 -17 q 233 26 317 -17 q 99 156 150 69 q 49 363 49 242 q 99 567 49 482 q 232 694 150 651 q 410 738 314 738 m 404 581 q 307 544 347 581 q 253 443 267 508 l 539 443 q 497 545 533 510 q 404 581 460 581 m 414 -308 q 333 -274 367 -308 q 300 -194 300 -240 q 333 -115 300 -149 q 414 -82 367 -82 q 495 -115 461 -82 q 529 -194 529 -149 q 495 -274 529 -240 q 414 -308 461 -308 z "},"è":{"ha":774,"x_min":49,"x_max":736,"o":"m 172 1039 l 367 1039 l 492 810 l 340 810 l 172 1039 m 410 738 q 580 695 506 738 q 695 576 654 653 q 736 399 736 499 q 728 308 736 354 l 250 308 q 308 187 263 228 q 422 146 354 146 q 509 167 471 146 q 568 232 547 189 l 710 149 q 598 26 681 69 q 414 -17 515 -17 q 233 26 317 -17 q 99 156 150 69 q 49 363 49 242 q 99 567 49 482 q 232 694 150 651 q 410 738 314 738 m 404 581 q 307 544 347 581 q 253 443 267 508 l 539 443 q 497 545 533 510 q 404 581 460 581 z "},"ẻ":{"ha":774,"x_min":49,"x_max":736,"o":"m 239 1044 q 304 1073 267 1063 q 382 1083 342 1083 q 508 1049 458 1083 q 558 946 558 1015 q 394 775 558 828 l 329 863 q 418 933 418 892 q 403 963 418 951 q 361 974 388 974 q 264 942 315 974 l 239 1044 m 410 738 q 580 695 506 738 q 695 576 654 653 q 736 399 736 499 q 728 308 736 354 l 250 308 q 308 187 263 228 q 422 146 354 146 q 509 167 471 146 q 568 232 547 189 l 710 149 q 598 26 681 69 q 414 -17 515 -17 q 233 26 317 -17 q 99 156 150 69 q 49 363 49 242 q 99 567 49 482 q 232 694 150 651 q 410 738 314 738 m 404 581 q 307 544 347 581 q 253 443 267 508 l 539 443 q 497 545 533 510 q 404 581 460 581 z "},"ē":{"ha":774,"x_min":49,"x_max":736,"o":"m 168 856 l 168 988 l 643 988 l 643 856 l 168 856 m 410 738 q 580 695 506 738 q 695 576 654 653 q 736 399 736 499 q 728 308 736 354 l 250 308 q 308 187 263 228 q 422 146 354 146 q 509 167 471 146 q 568 232 547 189 l 710 149 q 598 26 681 69 q 414 -17 515 -17 q 233 26 317 -17 q 99 156 150 69 q 49 363 49 242 q 99 567 49 482 q 232 694 150 651 q 410 738 314 738 m 404 581 q 307 544 347 581 q 253 443 267 508 l 539 443 q 497 545 533 510 q 404 581 460 581 z "},"ę":{"ha":774,"x_min":49,"x_max":736,"o":"m 410 738 q 580 695 506 738 q 695 576 654 653 q 736 399 736 499 q 728 308 736 354 l 250 308 q 308 187 263 228 q 422 146 354 146 q 509 167 471 146 q 568 232 547 189 l 710 149 q 624 42 686 86 q 488 -71 524 -32 q 451 -153 451 -110 q 525 -217 451 -217 q 625 -174 575 -217 l 689 -265 q 508 -339 618 -339 q 369 -301 424 -339 q 315 -183 315 -262 q 336 -97 315 -136 q 397 -17 357 -57 q 224 32 303 -12 q 97 161 144 76 q 49 363 49 246 q 99 567 49 482 q 232 694 150 651 q 410 738 314 738 m 539 443 q 497 545 533 510 q 404 581 460 581 q 307 544 347 581 q 253 443 267 508 l 539 443 z "},"ẽ":{"ha":774,"x_min":49,"x_max":736,"o":"m 139 832 q 188 981 142 924 q 308 1039 233 1039 q 382 1022 354 1039 q 440 975 410 1006 q 467 951 457 958 q 490 943 478 943 q 540 1018 528 943 l 672 1018 q 623 869 669 926 q 501 811 576 811 q 429 827 457 811 q 372 872 401 843 q 344 898 356 890 q 319 906 332 906 q 271 832 283 906 l 139 832 m 410 738 q 580 695 506 738 q 695 576 654 653 q 736 399 736 499 q 728 308 736 354 l 250 308 q 308 187 263 228 q 422 146 354 146 q 509 167 471 146 q 568 232 547 189 l 710 149 q 598 26 681 69 q 414 -17 515 -17 q 233 26 317 -17 q 99 156 150 69 q 49 363 49 242 q 99 567 49 482 q 232 694 150 651 q 410 738 314 738 m 404 581 q 307 544 347 581 q 253 443 267 508 l 539 443 q 497 545 533 510 q 404 581 460 581 z "},"ə":{"ha":774,"x_min":38,"x_max":725,"o":"m 360 738 q 540 694 457 738 q 674 565 624 651 q 725 357 725 479 q 674 154 725 239 q 542 26 624 69 q 364 -17 460 -17 q 194 26 268 -17 q 78 147 119 69 q 38 324 38 224 q 46 413 38 367 l 524 413 q 465 533 511 492 q 351 575 419 575 q 265 553 303 575 q 207 489 228 532 l 64 572 q 176 694 94 651 q 360 738 258 738 m 369 140 q 467 176 426 140 q 522 276 508 211 l 235 276 q 278 176 240 211 q 369 140 315 140 z "},"ʒ":{"ha":711,"x_min":-33,"x_max":685,"o":"m 400 317 q 610 213 536 297 q 685 1 685 128 q 634 -183 685 -106 q 499 -299 583 -260 q 311 -339 414 -339 q 97 -280 188 -339 q -33 -107 6 -221 l 117 -21 q 194 -133 143 -94 q 315 -172 246 -172 q 439 -125 393 -172 q 485 -1 485 -78 q 429 122 485 78 q 268 167 374 167 q 171 158 224 167 l 171 306 l 397 560 l 28 560 l 28 719 l 651 719 l 651 583 l 400 317 z "},"ǯ":{"ha":711,"x_min":-33,"x_max":685,"o":"m 256 1039 l 340 929 l 425 1039 l 590 1039 l 413 810 l 268 810 l 90 1039 l 256 1039 m 400 317 q 610 213 536 297 q 685 1 685 128 q 634 -183 685 -106 q 499 -299 583 -260 q 311 -339 414 -339 q 97 -280 188 -339 q -33 -107 6 -221 l 117 -21 q 194 -133 143 -94 q 315 -172 246 -172 q 439 -125 393 -172 q 485 -1 485 -78 q 429 122 485 78 q 268 167 374 167 q 171 158 224 167 l 171 306 l 397 560 l 28 560 l 28 719 l 651 719 l 651 583 l 400 317 z "},"f":{"ha":532,"x_min":13,"x_max":600,"o":"m 433 907 q 356 869 382 907 q 329 747 329 832 l 329 719 l 517 719 l 517 558 l 329 558 l 329 0 l 136 0 l 136 558 l 13 558 l 13 719 l 136 719 l 136 754 q 214 996 136 917 q 417 1075 292 1075 q 525 1057 478 1075 q 600 1010 572 1039 l 526 871 q 433 907 483 907 z "},"g":{"ha":867,"x_min":49,"x_max":783,"o":"m 783 719 l 783 74 q 674 -242 783 -144 q 401 -339 564 -339 q 194 -289 283 -339 q 67 -150 104 -239 l 215 -65 q 401 -169 269 -169 q 547 -109 504 -169 q 590 86 589 -49 q 382 -17 518 -17 q 218 28 294 -17 q 95 159 142 74 q 49 360 49 244 q 95 562 49 476 q 218 692 142 647 q 382 738 294 738 q 510 707 453 738 q 603 614 567 676 q 614 719 613 671 l 783 719 m 418 149 q 540 201 490 149 q 590 360 590 254 q 540 515 590 464 q 418 565 490 565 q 295 511 342 565 q 249 360 249 457 q 295 206 249 263 q 418 149 342 149 z "},"ğ":{"ha":867,"x_min":49,"x_max":783,"o":"m 414 810 q 235 872 303 810 q 168 1039 168 933 l 318 1039 q 414 931 329 931 q 511 1039 503 931 l 663 1039 q 594 872 663 933 q 414 810 526 810 m 783 719 l 783 74 q 674 -242 783 -144 q 401 -339 564 -339 q 194 -289 283 -339 q 67 -150 104 -239 l 215 -65 q 401 -169 269 -169 q 547 -109 504 -169 q 590 86 589 -49 q 382 -17 518 -17 q 218 28 294 -17 q 95 159 142 74 q 49 360 49 244 q 95 562 49 476 q 218 692 142 647 q 382 738 294 738 q 510 707 453 738 q 603 614 567 676 q 614 719 613 671 l 783 719 m 418 149 q 540 201 490 149 q 590 360 590 254 q 540 515 590 464 q 418 565 490 565 q 295 511 342 565 q 249 360 249 457 q 295 206 249 263 q 418 149 342 149 z "},"ǧ":{"ha":867,"x_min":49,"x_max":783,"o":"m 664 1039 l 485 810 l 342 810 l 164 1039 l 329 1039 l 414 929 l 497 1039 l 664 1039 m 783 719 l 783 74 q 674 -242 783 -144 q 401 -339 564 -339 q 194 -289 283 -339 q 67 -150 104 -239 l 215 -65 q 401 -169 269 -169 q 547 -109 504 -169 q 590 86 589 -49 q 382 -17 518 -17 q 218 28 294 -17 q 95 159 142 74 q 49 360 49 244 q 95 562 49 476 q 218 692 142 647 q 382 738 294 738 q 510 707 453 738 q 603 614 567 676 q 614 719 613 671 l 783 719 m 418 149 q 540 201 490 149 q 590 360 590 254 q 540 515 590 464 q 418 565 490 565 q 295 511 342 565 q 249 360 249 457 q 295 206 249 263 q 418 149 342 149 z "},"ĝ":{"ha":867,"x_min":49,"x_max":783,"o":"m 497 810 l 414 919 l 329 810 l 163 810 l 342 1039 l 485 1039 l 664 810 l 497 810 m 783 719 l 783 74 q 674 -242 783 -144 q 401 -339 564 -339 q 194 -289 283 -339 q 67 -150 104 -239 l 215 -65 q 401 -169 269 -169 q 547 -109 504 -169 q 590 86 589 -49 q 382 -17 518 -17 q 218 28 294 -17 q 95 159 142 74 q 49 360 49 244 q 95 562 49 476 q 218 692 142 647 q 382 738 294 738 q 510 707 453 738 q 603 614 567 676 q 614 719 613 671 l 783 719 m 418 149 q 540 201 490 149 q 590 360 590 254 q 540 515 590 464 q 418 565 490 565 q 295 511 342 565 q 249 360 249 457 q 295 206 249 263 q 418 149 342 149 z "},"ģ":{"ha":867,"x_min":49,"x_max":783,"o":"m 415 811 q 331 850 365 811 q 296 963 296 889 q 356 1124 296 1060 q 513 1201 417 1188 l 513 1107 q 444 1081 469 1100 q 410 1028 418 1063 l 415 1028 q 488 997 460 1028 q 517 919 517 965 q 488 842 517 874 q 415 811 460 811 m 783 719 l 783 74 q 674 -242 783 -144 q 401 -339 564 -339 q 194 -289 283 -339 q 67 -150 104 -239 l 215 -65 q 401 -169 269 -169 q 547 -109 504 -169 q 590 86 589 -49 q 382 -17 518 -17 q 218 28 294 -17 q 95 159 142 74 q 49 360 49 244 q 95 562 49 476 q 218 692 142 647 q 382 738 294 738 q 510 707 453 738 q 603 614 567 676 q 614 719 613 671 l 783 719 m 418 149 q 540 201 490 149 q 590 360 590 254 q 540 515 590 464 q 418 565 490 565 q 295 511 342 565 q 249 360 249 457 q 295 206 249 263 q 418 149 342 149 z "},"ġ":{"ha":867,"x_min":49,"x_max":783,"o":"m 414 811 q 334 847 368 811 q 300 929 300 882 q 333 1013 300 978 q 414 1047 367 1047 q 496 1012 461 1047 q 531 929 531 976 q 496 847 531 882 q 414 811 461 811 m 783 719 l 783 74 q 674 -242 783 -144 q 401 -339 564 -339 q 194 -289 283 -339 q 67 -150 104 -239 l 215 -65 q 401 -169 269 -169 q 547 -109 504 -169 q 590 86 589 -49 q 382 -17 518 -17 q 218 28 294 -17 q 95 159 142 74 q 49 360 49 244 q 95 562 49 476 q 218 692 142 647 q 382 738 294 738 q 510 707 453 738 q 603 614 567 676 q 614 719 613 671 l 783 719 m 418 149 q 540 201 490 149 q 590 360 590 254 q 540 515 590 464 q 418 565 490 565 q 295 511 342 565 q 249 360 249 457 q 295 206 249 263 q 418 149 342 149 z "},"ɡ":{"ha":867,"x_min":49,"x_max":783,"o":"m 783 719 l 783 74 q 674 -242 783 -144 q 401 -339 564 -339 q 194 -289 283 -339 q 67 -150 104 -239 l 215 -65 q 401 -169 269 -169 q 547 -109 504 -169 q 590 86 589 -49 q 382 -17 518 -17 q 218 28 294 -17 q 95 159 142 74 q 49 360 49 244 q 95 562 49 476 q 218 692 142 647 q 382 738 294 738 q 510 707 453 738 q 603 614 567 676 q 614 719 613 671 l 783 719 m 418 149 q 540 201 490 149 q 590 360 590 254 q 540 515 590 464 q 418 565 490 565 q 295 511 342 565 q 249 360 249 457 q 295 206 249 263 q 418 149 342 149 z "},"ǥ":{"ha":928,"x_min":49,"x_max":908,"o":"m 783 435 l 908 435 l 908 286 l 783 286 l 783 74 q 674 -242 783 -144 q 401 -339 564 -339 q 194 -289 283 -339 q 67 -150 104 -239 l 215 -65 q 401 -169 269 -169 q 547 -109 504 -169 q 590 86 589 -49 q 382 -17 518 -17 q 218 28 294 -17 q 95 159 142 74 q 49 360 49 244 q 95 562 49 476 q 218 692 142 647 q 382 738 294 738 q 510 707 453 738 q 603 614 567 676 q 614 719 613 671 l 783 719 l 783 435 m 418 149 q 519 183 474 149 q 581 286 565 217 l 435 286 l 435 435 l 579 435 q 519 533 564 501 q 418 565 474 565 q 295 511 342 565 q 249 360 249 457 q 295 206 249 263 q 418 149 342 149 z "},"h":{"ha":839,"x_min":90,"x_max":761,"o":"m 503 738 q 691 659 621 738 q 761 431 761 581 l 761 0 l 568 0 l 568 368 q 438 565 568 565 q 326 512 368 565 q 283 361 283 458 l 283 0 l 90 0 l 90 1057 l 283 1057 l 283 624 q 503 738 353 738 z "},"ħ":{"ha":856,"x_min":4,"x_max":778,"o":"m 519 738 q 708 659 638 738 q 778 431 778 581 l 778 0 l 582 0 l 582 368 q 552 514 582 463 q 454 565 522 565 q 342 512 385 565 q 300 361 300 458 l 300 0 l 107 0 l 107 800 l 4 800 l 4 938 l 107 938 l 107 1057 l 300 1057 l 300 938 l 496 938 l 496 800 l 300 800 l 300 624 q 519 738 369 738 z "},"ȟ":{"ha":839,"x_min":-64,"x_max":761,"o":"m 103 1289 l 188 1214 l 269 1289 l 436 1289 l 258 1129 l 114 1129 l -64 1289 l 103 1289 m 503 738 q 691 659 621 738 q 761 431 761 581 l 761 0 l 568 0 l 568 368 q 438 565 568 565 q 326 512 368 565 q 283 361 283 458 l 283 0 l 90 0 l 90 1057 l 283 1057 l 283 624 q 503 738 353 738 z "},"ĥ":{"ha":839,"x_min":-64,"x_max":761,"o":"m 114 1289 l 258 1289 l 436 1129 l 269 1129 l 188 1204 l 103 1129 l -64 1129 l 114 1289 m 503 738 q 691 659 621 738 q 761 431 761 581 l 761 0 l 568 0 l 568 368 q 438 565 568 565 q 326 512 368 565 q 283 361 283 458 l 283 0 l 90 0 l 90 1057 l 283 1057 l 283 624 q 503 738 353 738 z "},"i":{"ha":372,"x_min":71,"x_max":301,"o":"m 185 811 q 105 847 139 811 q 71 929 71 882 q 104 1013 71 978 q 185 1047 138 1047 q 267 1012 232 1047 q 301 929 301 976 q 267 847 301 882 q 185 811 232 811 m 283 0 l 90 0 l 90 719 l 283 719 l 283 0 z "},"ı":{"ha":372,"x_min":90,"x_max":283,"o":"m 90 0 l 90 719 l 283 719 l 283 0 l 90 0 z "},"í":{"ha":372,"x_min":90,"x_max":419,"o":"m 100 810 l 225 1039 l 419 1039 l 253 810 l 100 810 m 90 0 l 90 719 l 283 719 l 283 0 l 90 0 z "},"ĭ":{"ha":372,"x_min":-60,"x_max":435,"o":"m 188 810 q 8 872 76 810 q -60 1039 -60 933 l 92 1039 q 188 931 101 931 q 285 1039 274 931 l 435 1039 q 367 872 435 933 q 188 810 300 810 m 90 0 l 90 719 l 283 719 l 283 0 l 90 0 z "},"ǐ":{"ha":372,"x_min":-64,"x_max":436,"o":"m 103 1039 l 188 929 l 271 1039 l 436 1039 l 258 810 l 114 810 l -64 1039 l 103 1039 m 90 0 l 90 719 l 283 719 l 283 0 l 90 0 z "},"î":{"ha":372,"x_min":-64,"x_max":436,"o":"m 114 1039 l 258 1039 l 436 810 l 271 810 l 186 919 l 101 810 l -64 810 l 114 1039 m 90 0 l 90 719 l 283 719 l 283 0 l 90 0 z "},"ï":{"ha":372,"x_min":-72,"x_max":447,"o":"m 31 818 q -42 849 -12 818 q -72 925 -72 881 q -42 1001 -72 969 q 31 1032 -12 1032 q 106 1001 75 1032 q 136 925 136 969 q 106 849 136 881 q 31 818 75 818 m 342 818 q 269 850 299 818 q 239 925 239 882 q 269 1001 239 969 q 342 1032 299 1032 q 416 1001 385 1032 q 447 925 447 969 q 416 849 447 881 q 342 818 385 818 m 90 0 l 90 719 l 283 719 l 283 0 l 90 0 z "},"ị":{"ha":372,"x_min":71,"x_max":303,"o":"m 185 811 q 105 847 139 811 q 71 929 71 882 q 104 1013 71 978 q 185 1047 138 1047 q 267 1012 232 1047 q 301 929 301 976 q 267 847 301 882 q 185 811 232 811 m 283 0 l 90 0 l 90 719 l 283 719 l 283 0 m 188 -308 q 106 -274 140 -308 q 72 -194 72 -240 q 106 -115 72 -149 q 188 -82 140 -82 q 269 -115 235 -82 q 303 -194 303 -149 q 269 -274 303 -240 q 188 -308 235 -308 z "},"ì":{"ha":372,"x_min":-46,"x_max":283,"o":"m -46 1039 l 149 1039 l 274 810 l 122 810 l -46 1039 m 90 0 l 90 719 l 283 719 l 283 0 l 90 0 z "},"ỉ":{"ha":372,"x_min":21,"x_max":340,"o":"m 21 1044 q 86 1074 49 1064 q 164 1085 124 1085 q 290 1050 240 1085 q 340 947 340 1015 q 176 775 340 828 l 111 863 q 178 894 156 878 q 200 933 200 911 q 185 964 200 953 q 143 975 169 975 q 46 942 99 975 l 21 1044 m 90 0 l 90 719 l 283 719 l 283 0 l 90 0 z "},"ĳ":{"ha":743,"x_min":71,"x_max":672,"o":"m 185 811 q 105 847 139 811 q 71 929 71 882 q 104 1013 71 978 q 185 1047 138 1047 q 267 1012 232 1047 q 301 929 301 976 q 267 847 301 882 q 185 811 232 811 m 556 811 q 476 847 510 811 q 443 929 443 882 q 476 1013 443 978 q 556 1047 508 1047 q 638 1013 603 1047 q 672 929 672 978 q 638 847 672 882 q 556 811 603 811 m 283 0 l 90 0 l 90 719 l 283 719 l 283 0 m 368 -339 q 256 -319 310 -339 q 165 -261 201 -299 l 269 -129 q 353 -171 304 -171 q 435 -131 408 -171 q 461 -3 461 -90 l 461 719 l 654 719 l 654 -18 q 615 -199 654 -126 q 510 -305 575 -271 q 368 -339 444 -339 z "},"ī":{"ha":372,"x_min":-50,"x_max":425,"o":"m -50 856 l -50 988 l 425 988 l 425 856 l -50 856 m 90 0 l 90 719 l 283 719 l 283 0 l 90 0 z "},"į":{"ha":372,"x_min":-4,"x_max":369,"o":"m 188 811 q 106 847 140 811 q 72 929 72 882 q 106 1013 72 978 q 188 1047 140 1047 q 269 1013 235 1047 q 303 929 303 978 q 269 847 303 882 q 188 811 235 811 m 369 -262 q 291 -319 335 -300 q 189 -339 247 -339 q 50 -298 104 -339 q -4 -179 -4 -257 q 100 0 -4 -81 l 90 0 l 90 719 l 283 719 l 283 0 q 169 -77 206 -40 q 132 -157 132 -114 q 201 -218 132 -218 q 308 -169 258 -218 l 369 -262 z "},"ĩ":{"ha":372,"x_min":-79,"x_max":454,"o":"m -79 832 q -31 981 -76 924 q 90 1039 15 1039 q 165 1022 136 1039 q 222 976 193 1006 q 248 953 236 961 q 272 944 260 944 q 322 1018 310 944 l 454 1018 q 405 869 451 926 q 283 811 358 811 q 210 828 239 811 q 154 874 182 844 q 125 899 136 892 q 101 907 114 907 q 53 832 63 907 l -79 832 m 90 0 l 90 719 l 283 719 l 283 0 l 90 0 z "},"j":{"ha":371,"x_min":-206,"x_max":300,"o":"m 183 811 q 104 847 138 811 q 71 929 71 882 q 104 1013 71 978 q 183 1047 138 1047 q 266 1013 232 1047 q 300 929 300 978 q 266 847 300 882 q 183 811 232 811 m -3 -339 q -116 -319 -61 -339 q -206 -261 -171 -299 l -101 -129 q -18 -171 -67 -171 q 63 -131 36 -171 q 90 -3 90 -90 l 90 719 l 283 719 l 283 -18 q 244 -199 283 -126 q 139 -305 204 -271 q -3 -339 74 -339 z "},"ȷ":{"ha":371,"x_min":-206,"x_max":283,"o":"m -3 -339 q -116 -319 -61 -339 q -206 -261 -171 -299 l -101 -129 q -18 -171 -67 -171 q 63 -131 36 -171 q 90 -3 90 -90 l 90 719 l 283 719 l 283 -18 q 244 -199 283 -126 q 139 -305 204 -271 q -3 -339 74 -339 z "},"ǰ":{"ha":371,"x_min":-206,"x_max":436,"o":"m 101 1039 l 186 929 l 269 1039 l 436 1039 l 257 810 l 114 810 l -65 1039 l 101 1039 m -3 -339 q -116 -319 -61 -339 q -206 -261 -171 -299 l -101 -129 q -18 -171 -67 -171 q 63 -131 36 -171 q 90 -3 90 -90 l 90 719 l 283 719 l 283 -18 q 244 -199 283 -126 q 139 -305 204 -271 q -3 -339 74 -339 z "},"ĵ":{"ha":371,"x_min":-206,"x_max":436,"o":"m 113 1039 l 257 1039 l 436 810 l 269 810 l 186 919 l 101 810 l -65 810 l 113 1039 m -3 -339 q -116 -319 -61 -339 q -206 -261 -171 -299 l -101 -129 q -18 -171 -67 -171 q 63 -131 36 -171 q 90 -3 90 -90 l 90 719 l 283 719 l 283 -18 q 244 -199 283 -126 q 139 -305 204 -271 q -3 -339 74 -339 z "},"k":{"ha":807,"x_min":90,"x_max":813,"o":"m 522 432 l 813 0 l 581 0 l 392 286 l 283 167 l 283 0 l 90 0 l 90 1057 l 283 1057 l 283 401 l 557 719 l 781 719 l 522 432 z "},"ǩ":{"ha":807,"x_min":-64,"x_max":813,"o":"m 103 1289 l 188 1214 l 269 1289 l 436 1289 l 258 1129 l 114 1129 l -64 1289 l 103 1289 m 522 432 l 813 0 l 581 0 l 392 286 l 283 167 l 283 0 l 90 0 l 90 1057 l 283 1057 l 283 401 l 557 719 l 781 719 l 522 432 z "},"ķ":{"ha":808,"x_min":90,"x_max":815,"o":"m 557 719 l 782 719 l 522 432 l 815 0 l 582 0 l 393 286 l 283 167 l 283 0 l 90 0 l 90 1057 l 283 1057 l 283 401 l 557 719 m 429 -46 q 515 -76 482 -46 q 547 -167 547 -107 q 492 -289 547 -244 q 332 -339 436 -333 l 332 -264 q 435 -207 419 -250 l 428 -207 q 354 -186 382 -207 q 326 -129 326 -165 q 356 -69 326 -92 q 429 -46 385 -46 z "},"ĸ":{"ha":807,"x_min":90,"x_max":813,"o":"m 522 432 l 813 0 l 581 0 l 392 286 l 283 167 l 283 0 l 90 0 l 90 719 l 283 719 l 283 401 l 557 719 l 781 719 l 522 432 z "},"l":{"ha":372,"x_min":90,"x_max":283,"o":"m 283 0 l 90 0 l 90 1057 l 283 1057 l 283 0 z "},"ĺ":{"ha":372,"x_min":90,"x_max":444,"o":"m 115 1133 l 244 1289 l 444 1289 l 272 1133 l 115 1133 m 283 0 l 90 0 l 90 1057 l 283 1057 l 283 0 z "},"ľ":{"ha":450,"x_min":90,"x_max":515,"o":"m 421 1063 q 489 1032 463 1063 q 515 938 515 1001 q 466 799 515 850 q 336 735 417 747 l 336 814 q 394 837 372 821 q 422 881 415 853 l 417 881 q 357 907 381 881 q 333 974 333 933 q 358 1038 333 1014 q 421 1063 382 1063 m 283 0 l 90 0 l 90 1057 l 283 1057 l 283 0 z "},"ļ":{"ha":372,"x_min":81,"x_max":301,"o":"m 90 0 l 90 1057 l 283 1057 l 283 0 l 90 0 m 182 -46 q 268 -76 235 -46 q 301 -167 301 -107 q 245 -289 301 -244 q 85 -339 189 -333 l 85 -264 q 188 -207 172 -251 l 181 -207 q 108 -186 135 -207 q 81 -129 81 -165 q 109 -69 81 -92 q 182 -46 138 -46 z "},"ŀ":{"ha":464,"x_min":90,"x_max":521,"o":"m 283 0 l 90 0 l 90 1057 l 283 1057 l 283 0 m 419 426 q 347 456 376 426 q 318 532 318 485 q 347 609 318 581 q 419 638 376 638 q 492 609 464 638 q 521 532 521 581 q 492 456 521 485 q 419 426 464 426 z "},"ł":{"ha":426,"x_min":17,"x_max":410,"o":"m 310 1057 l 310 688 l 410 747 l 410 553 l 310 493 l 310 0 l 117 0 l 117 376 l 17 317 l 17 511 l 117 571 l 117 1057 l 310 1057 z "},"m":{"ha":1214,"x_min":90,"x_max":1135,"o":"m 900 738 q 1069 659 1004 738 q 1135 433 1135 581 l 1135 0 l 946 0 l 946 368 q 836 565 946 565 q 741 511 776 565 q 706 361 706 457 l 706 0 l 518 0 l 518 368 q 408 565 518 565 q 314 511 349 565 q 279 361 279 457 l 279 0 l 90 0 l 90 719 l 256 719 q 267 614 263 640 q 472 738 338 738 q 599 700 544 738 q 681 589 653 663 q 772 701 715 665 q 900 738 829 738 z "},"ḿ":{"ha":1214,"x_min":90,"x_max":1135,"o":"m 539 810 l 664 1039 l 858 1039 l 690 810 l 539 810 m 900 738 q 1069 659 1004 738 q 1135 433 1135 581 l 1135 0 l 946 0 l 946 368 q 836 565 946 565 q 741 511 776 565 q 706 361 706 457 l 706 0 l 518 0 l 518 368 q 408 565 518 565 q 314 511 349 565 q 279 361 279 457 l 279 0 l 90 0 l 90 719 l 256 719 q 267 614 263 640 q 472 738 338 738 q 599 700 544 738 q 681 589 653 663 q 772 701 715 665 q 900 738 829 738 z "},"n":{"ha":839,"x_min":90,"x_max":761,"o":"m 503 738 q 692 659 622 738 q 761 431 761 581 l 761 0 l 568 0 l 568 368 q 438 565 568 565 q 326 512 368 565 q 283 361 283 458 l 283 0 l 90 0 l 90 719 l 260 719 q 272 604 267 635 q 503 738 342 738 z "},"ń":{"ha":839,"x_min":90,"x_max":761,"o":"m 339 810 l 464 1039 l 658 1039 l 490 810 l 339 810 m 503 738 q 692 659 622 738 q 761 431 761 581 l 761 0 l 568 0 l 568 368 q 438 565 568 565 q 326 512 368 565 q 283 361 283 458 l 283 0 l 90 0 l 90 719 l 260 719 q 272 604 267 635 q 503 738 342 738 z "},"ŉ":{"ha":839,"x_min":-10,"x_max":761,"o":"m -7 824 q 60 848 36 832 q 92 893 83 864 l 88 893 q 17 919 44 893 q -10 983 -10 944 q 17 1049 -10 1022 q 86 1075 44 1075 q 165 1042 132 1075 q 197 947 197 1010 q 141 811 197 865 q -7 746 85 757 l -7 824 m 503 738 q 692 659 622 738 q 761 431 761 581 l 761 0 l 567 0 l 567 368 q 438 565 567 565 q 326 512 368 565 q 283 361 283 458 l 283 0 l 90 0 l 90 719 l 260 719 q 272 604 267 635 q 503 738 342 738 z "},"ň":{"ha":839,"x_min":90,"x_max":761,"o":"m 340 1039 l 425 929 l 508 1039 l 675 1039 l 496 810 l 353 810 l 174 1039 l 340 1039 m 503 738 q 692 659 622 738 q 761 431 761 581 l 761 0 l 568 0 l 568 368 q 438 565 568 565 q 326 512 368 565 q 283 361 283 458 l 283 0 l 90 0 l 90 719 l 260 719 q 272 604 267 635 q 503 738 342 738 z "},"ņ":{"ha":839,"x_min":90,"x_max":761,"o":"m 503 738 q 692 659 622 738 q 761 431 761 581 l 761 0 l 568 0 l 568 368 q 438 565 568 565 q 326 512 368 565 q 283 361 283 458 l 283 0 l 90 0 l 90 719 l 260 719 q 272 604 267 635 q 503 738 342 738 m 424 -46 q 509 -76 476 -46 q 542 -167 542 -107 q 486 -288 542 -243 q 326 -339 431 -333 l 326 -264 q 395 -244 369 -257 q 429 -207 421 -231 l 422 -207 q 349 -186 376 -207 q 321 -129 321 -165 q 350 -69 321 -92 q 424 -46 379 -46 z "},"ǹ":{"ha":839,"x_min":90,"x_max":761,"o":"m 193 1039 l 388 1039 l 511 810 l 360 810 l 193 1039 m 503 738 q 692 659 622 738 q 761 431 761 581 l 761 0 l 568 0 l 568 368 q 438 565 568 565 q 326 512 368 565 q 283 361 283 458 l 283 0 l 90 0 l 90 719 l 260 719 q 272 604 267 635 q 503 738 342 738 z "},"ŋ":{"ha":839,"x_min":90,"x_max":761,"o":"m 503 738 q 692 659 622 738 q 761 431 761 581 l 761 -28 q 685 -260 761 -182 q 492 -339 608 -339 q 324 -283 393 -339 l 397 -144 q 474 -171 435 -171 q 568 -11 568 -171 l 568 368 q 438 565 568 565 q 326 512 368 565 q 283 361 283 458 l 283 0 l 90 0 l 90 719 l 260 719 q 272 604 267 635 q 503 738 342 738 z "},"ñ":{"ha":839,"x_min":90,"x_max":761,"o":"m 158 832 q 208 981 161 924 q 329 1039 254 1039 q 402 1023 374 1039 q 458 978 431 1007 q 488 953 476 961 q 511 944 499 944 q 560 1018 547 944 l 692 1018 q 642 868 689 925 q 521 811 596 811 q 448 828 476 811 q 392 874 419 844 q 363 899 375 890 q 339 907 351 907 q 290 832 303 907 l 158 832 m 503 738 q 692 659 622 738 q 761 431 761 581 l 761 0 l 568 0 l 568 368 q 438 565 568 565 q 326 512 368 565 q 283 361 283 458 l 283 0 l 90 0 l 90 719 l 260 719 q 272 604 267 635 q 503 738 342 738 z "},"o":{"ha":835,"x_min":49,"x_max":785,"o":"m 49 360 q 99 558 49 472 q 235 691 150 644 q 418 738 319 738 q 599 691 515 738 q 734 558 683 644 q 785 360 785 472 q 734 161 785 247 q 599 29 683 75 q 418 -17 515 -17 q 235 29 319 -17 q 99 161 150 75 q 49 360 49 247 m 249 360 q 297 208 249 264 q 417 151 344 151 q 536 208 489 151 q 583 360 583 264 q 536 513 583 456 q 417 569 489 569 q 297 513 344 569 q 249 360 249 456 z "},"ó":{"ha":835,"x_min":49,"x_max":785,"o":"m 332 810 l 456 1039 l 650 1039 l 483 810 l 332 810 m 49 360 q 99 558 49 472 q 235 691 150 644 q 418 738 319 738 q 599 691 515 738 q 734 558 683 644 q 785 360 785 472 q 734 161 785 247 q 599 29 683 75 q 418 -17 515 -17 q 235 29 319 -17 q 99 161 150 75 q 49 360 49 247 m 249 360 q 297 208 249 264 q 417 151 344 151 q 536 208 489 151 q 583 360 583 264 q 536 513 583 456 q 417 569 489 569 q 297 513 344 569 q 249 360 249 456 z "},"ŏ":{"ha":835,"x_min":49,"x_max":785,"o":"m 418 808 q 239 870 307 808 q 171 1038 171 932 l 322 1038 q 351 958 326 986 q 418 929 375 929 q 515 1038 504 929 l 665 1038 q 598 870 665 932 q 418 808 531 808 m 49 360 q 99 558 49 472 q 235 691 150 644 q 418 738 319 738 q 599 691 515 738 q 734 558 683 644 q 785 360 785 472 q 734 161 785 247 q 599 29 683 75 q 418 -17 515 -17 q 235 29 319 -17 q 99 161 150 75 q 49 360 49 247 m 249 360 q 297 208 249 264 q 417 151 344 151 q 536 208 489 151 q 583 360 583 264 q 536 513 583 456 q 417 569 489 569 q 297 513 344 569 q 249 360 249 456 z "},"ǒ":{"ha":835,"x_min":49,"x_max":785,"o":"m 333 1039 l 418 928 l 501 1039 l 668 1039 l 489 810 l 346 810 l 167 1039 l 333 1039 m 49 360 q 99 558 49 472 q 235 691 150 644 q 418 738 319 738 q 599 691 515 738 q 734 558 683 644 q 785 360 785 472 q 734 161 785 247 q 599 29 683 75 q 418 -17 515 -17 q 235 29 319 -17 q 99 161 150 75 q 49 360 49 247 m 249 360 q 297 208 249 264 q 417 151 344 151 q 536 208 489 151 q 583 360 583 264 q 536 513 583 456 q 417 569 489 569 q 297 513 344 569 q 249 360 249 456 z "},"ô":{"ha":835,"x_min":49,"x_max":785,"o":"m 344 1039 l 489 1039 l 668 810 l 501 810 l 418 919 l 332 810 l 167 810 l 344 1039 m 49 360 q 99 558 49 472 q 235 691 150 644 q 418 738 319 738 q 599 691 515 738 q 734 558 683 644 q 785 360 785 472 q 734 161 785 247 q 599 29 683 75 q 418 -17 515 -17 q 235 29 319 -17 q 99 161 150 75 q 49 360 49 247 m 249 360 q 297 208 249 264 q 417 151 344 151 q 536 208 489 151 q 583 360 583 264 q 536 513 583 456 q 417 569 489 569 q 297 513 344 569 q 249 360 249 456 z "},"ố":{"ha":835,"x_min":49,"x_max":807,"o":"m 504 1072 l 617 1269 l 807 1269 l 656 1072 l 504 1072 m 340 1039 l 485 1039 l 663 810 l 497 810 l 414 919 l 329 810 l 163 810 l 340 1039 m 49 360 q 99 558 49 472 q 235 691 150 644 q 418 738 319 738 q 599 691 515 738 q 734 558 683 644 q 785 360 785 472 q 734 161 785 247 q 599 29 683 75 q 418 -17 515 -17 q 235 29 319 -17 q 99 161 150 75 q 49 360 49 247 m 249 360 q 297 208 249 264 q 417 151 344 151 q 536 208 489 151 q 583 360 583 264 q 536 513 583 456 q 417 569 489 569 q 297 513 344 569 q 249 360 249 456 z "},"ộ":{"ha":835,"x_min":49,"x_max":785,"o":"m 344 1039 l 489 1039 l 668 810 l 501 810 l 418 919 l 332 810 l 167 810 l 344 1039 m 49 360 q 99 558 49 472 q 235 691 150 644 q 418 738 319 738 q 599 691 515 738 q 734 558 683 644 q 785 360 785 472 q 734 161 785 247 q 599 29 683 75 q 418 -17 515 -17 q 235 29 319 -17 q 99 161 150 75 q 49 360 49 247 m 249 360 q 297 208 249 264 q 417 151 344 151 q 536 208 489 151 q 583 360 583 264 q 536 513 583 456 q 417 569 489 569 q 297 513 344 569 q 249 360 249 456 m 418 -308 q 338 -274 371 -308 q 304 -194 304 -240 q 338 -115 304 -149 q 418 -82 371 -82 q 499 -115 465 -82 q 533 -194 533 -149 q 499 -274 533 -240 q 418 -308 465 -308 z "},"ồ":{"ha":835,"x_min":49,"x_max":785,"o":"m 375 1269 l 565 1269 l 678 1072 l 525 1072 l 375 1269 m 340 1039 l 485 1039 l 663 810 l 497 810 l 414 919 l 329 810 l 163 810 l 340 1039 m 49 360 q 99 558 49 472 q 235 691 150 644 q 418 738 319 738 q 599 691 515 738 q 734 558 683 644 q 785 360 785 472 q 734 161 785 247 q 599 29 683 75 q 418 -17 515 -17 q 235 29 319 -17 q 99 161 150 75 q 49 360 49 247 m 249 360 q 297 208 249 264 q 417 151 344 151 q 536 208 489 151 q 583 360 583 264 q 536 513 583 456 q 417 569 489 569 q 297 513 344 569 q 249 360 249 456 z "},"ổ":{"ha":835,"x_min":49,"x_max":785,"o":"m 440 1247 q 506 1275 468 1265 q 583 1285 544 1285 q 710 1251 660 1285 q 760 1154 760 1218 q 596 990 760 1040 l 531 1074 q 597 1104 574 1089 q 619 1140 619 1119 q 604 1169 619 1158 q 563 1181 589 1181 q 465 1149 519 1181 l 440 1247 m 340 1028 l 485 1028 l 663 810 l 497 810 l 414 915 l 329 810 l 163 810 l 340 1028 m 49 360 q 99 558 49 472 q 235 691 150 644 q 418 738 319 738 q 599 691 515 738 q 734 558 683 644 q 785 360 785 472 q 734 161 785 247 q 599 29 683 75 q 418 -17 515 -17 q 235 29 319 -17 q 99 161 150 75 q 49 360 49 247 m 249 360 q 297 208 249 264 q 417 151 344 151 q 536 208 489 151 q 583 360 583 264 q 536 513 583 456 q 417 569 489 569 q 297 513 344 569 q 249 360 249 456 z "},"ỗ":{"ha":835,"x_min":49,"x_max":785,"o":"m 331 1154 q 282 1082 292 1154 l 150 1082 q 199 1226 153 1171 q 319 1281 244 1281 q 392 1265 364 1281 q 450 1221 421 1249 q 478 1197 467 1204 q 501 1189 489 1189 q 550 1261 540 1189 l 682 1261 q 633 1117 679 1172 q 513 1063 588 1063 q 440 1078 468 1063 q 382 1122 411 1094 q 354 1147 365 1139 q 331 1154 343 1154 m 343 1029 l 488 1029 l 665 810 l 500 810 l 417 915 l 332 810 l 165 810 l 343 1029 m 49 360 q 99 558 49 472 q 235 691 150 644 q 418 738 319 738 q 599 691 515 738 q 734 558 683 644 q 785 360 785 472 q 734 161 785 247 q 599 29 683 75 q 418 -17 515 -17 q 235 29 319 -17 q 99 161 150 75 q 49 360 49 247 m 249 360 q 297 208 249 264 q 417 151 344 151 q 536 208 489 151 q 583 360 583 264 q 536 513 583 456 q 417 569 489 569 q 297 513 344 569 q 249 360 249 456 z "},"ö":{"ha":835,"x_min":49,"x_max":785,"o":"m 261 817 q 189 849 219 817 q 158 924 158 881 q 188 999 158 968 q 261 1031 218 1031 q 336 999 306 1031 q 367 924 367 968 q 336 849 367 881 q 261 817 306 817 m 574 817 q 500 849 531 817 q 469 924 469 881 q 500 999 469 968 q 574 1031 531 1031 q 647 999 617 1031 q 678 924 678 968 q 647 849 678 881 q 574 817 617 817 m 49 360 q 99 558 49 472 q 235 691 150 644 q 418 738 319 738 q 599 691 515 738 q 734 558 683 644 q 785 360 785 472 q 734 161 785 247 q 599 29 683 75 q 418 -17 515 -17 q 235 29 319 -17 q 99 161 150 75 q 49 360 49 247 m 249 360 q 297 208 249 264 q 417 151 344 151 q 536 208 489 151 q 583 360 583 264 q 536 513 583 456 q 417 569 489 569 q 297 513 344 569 q 249 360 249 456 z "},"ọ":{"ha":835,"x_min":49,"x_max":785,"o":"m 49 360 q 99 558 49 472 q 235 691 150 644 q 418 738 319 738 q 599 691 515 738 q 734 558 683 644 q 785 360 785 472 q 734 161 785 247 q 599 29 683 75 q 418 -17 515 -17 q 235 29 319 -17 q 99 161 150 75 q 49 360 49 247 m 249 360 q 297 208 249 264 q 417 151 344 151 q 536 208 489 151 q 583 360 583 264 q 536 513 583 456 q 417 569 489 569 q 297 513 344 569 q 249 360 249 456 m 418 -308 q 338 -274 371 -308 q 304 -194 304 -240 q 338 -115 304 -149 q 418 -82 371 -82 q 499 -115 465 -82 q 533 -194 533 -149 q 499 -274 533 -240 q 418 -308 465 -308 z "},"ò":{"ha":835,"x_min":49,"x_max":785,"o":"m 185 1039 l 379 1039 l 504 810 l 353 810 l 185 1039 m 49 360 q 99 558 49 472 q 235 691 150 644 q 418 738 319 738 q 599 691 515 738 q 734 558 683 644 q 785 360 785 472 q 734 161 785 247 q 599 29 683 75 q 418 -17 515 -17 q 235 29 319 -17 q 99 161 150 75 q 49 360 49 247 m 249 360 q 297 208 249 264 q 417 151 344 151 q 536 208 489 151 q 583 360 583 264 q 536 513 583 456 q 417 569 489 569 q 297 513 344 569 q 249 360 249 456 z "},"ỏ":{"ha":835,"x_min":49,"x_max":785,"o":"m 253 1044 q 317 1073 279 1063 q 394 1083 354 1083 q 521 1049 471 1083 q 571 946 571 1015 q 407 775 571 828 l 342 863 q 431 933 431 892 q 415 963 431 951 q 374 974 400 974 q 276 942 329 974 l 253 1044 m 49 360 q 99 558 49 472 q 235 691 150 644 q 418 738 319 738 q 599 691 515 738 q 734 558 683 644 q 785 360 785 472 q 734 161 785 247 q 599 29 683 75 q 418 -17 515 -17 q 235 29 319 -17 q 99 161 150 75 q 49 360 49 247 m 249 360 q 297 208 249 264 q 417 151 344 151 q 536 208 489 151 q 583 360 583 264 q 536 513 583 456 q 417 569 489 569 q 297 513 344 569 q 249 360 249 456 z "},"ơ":{"ha":858,"x_min":49,"x_max":853,"o":"m 853 801 q 816 647 853 693 q 694 594 779 601 q 761 488 738 550 q 785 353 785 426 q 734 159 785 243 q 599 29 683 75 q 418 -17 515 -17 q 235 29 319 -17 q 99 161 150 75 q 49 360 49 247 q 101 559 49 474 q 241 691 153 644 q 436 738 329 738 q 540 728 469 738 q 619 719 593 719 q 675 738 658 719 q 692 811 692 756 q 682 897 692 854 l 843 897 q 853 801 853 850 m 418 151 q 537 208 490 151 q 583 360 583 264 q 537 513 583 457 q 418 569 490 569 q 297 513 344 569 q 249 360 249 456 q 297 208 249 264 q 418 151 344 151 z "},"ớ":{"ha":858,"x_min":49,"x_max":853,"o":"m 456 1039 l 650 1039 l 483 810 l 332 810 l 456 1039 m 853 801 q 816 647 853 693 q 694 594 779 601 q 761 488 738 550 q 785 353 785 426 q 734 159 785 243 q 599 29 683 75 q 418 -17 515 -17 q 235 29 319 -17 q 99 161 150 75 q 49 360 49 247 q 101 559 49 474 q 241 691 153 644 q 436 738 329 738 q 540 728 469 738 q 619 719 593 719 q 675 738 658 719 q 692 811 692 756 q 682 897 692 854 l 843 897 q 853 801 853 850 m 418 151 q 537 208 490 151 q 583 360 583 264 q 537 513 583 457 q 418 569 490 569 q 297 513 344 569 q 249 360 249 456 q 297 208 249 264 q 418 151 344 151 z "},"ợ":{"ha":858,"x_min":49,"x_max":853,"o":"m 853 801 q 816 647 853 693 q 694 594 779 601 q 761 488 738 550 q 785 353 785 426 q 734 159 785 243 q 599 29 683 75 q 418 -17 515 -17 q 235 29 319 -17 q 99 161 150 75 q 49 360 49 247 q 101 559 49 474 q 241 691 153 644 q 436 738 329 738 q 540 728 469 738 q 619 719 593 719 q 675 738 658 719 q 692 811 692 756 q 682 897 692 854 l 843 897 q 853 801 853 850 m 418 151 q 537 208 490 151 q 583 360 583 264 q 537 513 583 457 q 418 569 490 569 q 297 513 344 569 q 249 360 249 456 q 297 208 249 264 q 418 151 344 151 m 418 -82 q 499 -115 465 -82 q 533 -194 533 -149 q 499 -274 533 -240 q 418 -308 465 -308 q 338 -274 371 -308 q 304 -194 304 -240 q 338 -115 304 -149 q 418 -82 371 -82 z "},"ờ":{"ha":858,"x_min":49,"x_max":853,"o":"m 379 1039 l 504 810 l 353 810 l 185 1039 l 379 1039 m 853 801 q 816 647 853 693 q 694 594 779 601 q 761 488 738 550 q 785 353 785 426 q 734 159 785 243 q 599 29 683 75 q 418 -17 515 -17 q 235 29 319 -17 q 99 161 150 75 q 49 360 49 247 q 101 559 49 474 q 241 691 153 644 q 436 738 329 738 q 540 728 469 738 q 619 719 593 719 q 675 738 658 719 q 692 811 692 756 q 682 897 692 854 l 843 897 q 853 801 853 850 m 418 151 q 537 208 490 151 q 583 360 583 264 q 537 513 583 457 q 418 569 490 569 q 297 513 344 569 q 249 360 249 456 q 297 208 249 264 q 418 151 344 151 z "},"ở":{"ha":858,"x_min":49,"x_max":853,"o":"m 374 974 q 276 942 329 974 l 253 1044 q 317 1073 279 1063 q 394 1083 354 1083 q 521 1049 471 1083 q 571 946 571 1015 q 407 775 571 828 l 342 863 q 431 933 431 892 q 415 963 431 951 q 374 974 400 974 m 853 801 q 816 647 853 693 q 694 594 779 601 q 761 488 738 550 q 785 353 785 426 q 734 159 785 243 q 599 29 683 75 q 418 -17 515 -17 q 235 29 319 -17 q 99 161 150 75 q 49 360 49 247 q 101 559 49 474 q 241 691 153 644 q 436 738 329 738 q 540 728 469 738 q 619 719 593 719 q 675 738 658 719 q 692 811 692 756 q 682 897 692 854 l 843 897 q 853 801 853 850 m 418 151 q 537 208 490 151 q 583 360 583 264 q 537 513 583 457 q 418 569 490 569 q 297 513 344 569 q 249 360 249 456 q 297 208 249 264 q 418 151 344 151 z "},"ỡ":{"ha":858,"x_min":49,"x_max":853,"o":"m 332 906 q 283 832 296 906 l 151 832 q 201 981 154 924 q 322 1039 247 1039 q 395 1022 367 1039 q 451 976 424 1006 q 481 951 469 958 q 504 943 492 943 q 553 1018 540 943 l 685 1018 q 635 869 682 926 q 514 811 589 811 q 441 828 469 811 q 385 872 413 844 q 356 898 367 890 q 332 906 344 906 m 853 801 q 816 647 853 693 q 694 594 779 601 q 761 488 738 550 q 785 353 785 426 q 734 159 785 243 q 599 29 683 75 q 418 -17 515 -17 q 235 29 319 -17 q 99 161 150 75 q 49 360 49 247 q 101 559 49 474 q 241 691 153 644 q 436 738 329 738 q 540 728 469 738 q 619 719 593 719 q 675 738 658 719 q 692 811 692 756 q 682 897 692 854 l 843 897 q 853 801 853 850 m 418 151 q 537 208 490 151 q 583 360 583 264 q 537 513 583 457 q 418 569 490 569 q 297 513 344 569 q 249 360 249 456 q 297 208 249 264 q 418 151 344 151 z "},"ő":{"ha":835,"x_min":49,"x_max":785,"o":"m 222 810 l 347 1039 l 529 1039 l 361 810 l 222 810 m 469 810 l 594 1039 l 776 1039 l 608 810 l 469 810 m 49 360 q 99 558 49 472 q 235 691 150 644 q 418 738 319 738 q 599 691 515 738 q 734 558 683 644 q 785 360 785 472 q 734 161 785 247 q 599 29 683 75 q 418 -17 515 -17 q 235 29 319 -17 q 99 161 150 75 q 49 360 49 247 m 249 360 q 297 208 249 264 q 417 151 344 151 q 536 208 489 151 q 583 360 583 264 q 536 513 583 456 q 417 569 489 569 q 297 513 344 569 q 249 360 249 456 z "},"ō":{"ha":835,"x_min":49,"x_max":785,"o":"m 181 856 l 181 988 l 656 988 l 656 856 l 181 856 m 49 360 q 99 558 49 472 q 235 691 150 644 q 418 738 319 738 q 599 691 515 738 q 734 558 683 644 q 785 360 785 472 q 734 161 785 247 q 599 29 683 75 q 418 -17 515 -17 q 235 29 319 -17 q 99 161 150 75 q 49 360 49 247 m 249 360 q 297 208 249 264 q 417 151 344 151 q 536 208 489 151 q 583 360 583 264 q 536 513 583 456 q 417 569 489 569 q 297 513 344 569 q 249 360 249 456 z "},"ø":{"ha":829,"x_min":49,"x_max":785,"o":"m 621 768 l 785 768 l 685 625 q 758 508 732 575 q 785 360 785 440 q 734 161 785 247 q 599 29 683 75 q 418 -17 515 -17 q 260 18 336 -17 l 213 -49 l 49 -49 l 150 96 q 75 212 101 144 q 49 360 49 279 q 99 558 49 472 q 235 691 150 644 q 418 738 319 738 q 575 703 499 738 l 621 768 m 238 360 q 261 254 238 299 l 472 558 q 418 569 447 569 q 289 513 340 569 q 238 360 238 456 m 594 360 q 572 467 594 424 l 361 164 q 418 151 386 151 q 544 208 494 151 q 594 360 594 264 z "},"ǿ":{"ha":829,"x_min":49,"x_max":785,"o":"m 332 810 l 456 1039 l 650 1039 l 483 810 l 332 810 m 621 768 l 785 768 l 685 625 q 758 508 732 575 q 785 360 785 440 q 734 161 785 247 q 599 29 683 75 q 418 -17 515 -17 q 260 18 336 -17 l 213 -49 l 49 -49 l 150 96 q 75 212 101 144 q 49 360 49 279 q 99 558 49 472 q 235 691 150 644 q 418 738 319 738 q 575 703 499 738 l 621 768 m 238 360 q 261 254 238 299 l 472 558 q 418 569 447 569 q 289 513 340 569 q 238 360 238 456 m 594 360 q 572 467 594 424 l 361 164 q 418 151 386 151 q 544 208 494 151 q 594 360 594 264 z "},"õ":{"ha":835,"x_min":49,"x_max":785,"o":"m 151 832 q 201 981 154 924 q 322 1039 247 1039 q 395 1022 367 1039 q 451 976 424 1006 q 481 951 469 958 q 504 943 492 943 q 553 1018 540 943 l 685 1018 q 635 869 682 926 q 514 811 589 811 q 441 828 469 811 q 385 872 413 844 q 356 898 367 890 q 332 906 344 906 q 283 832 296 906 l 151 832 m 49 360 q 99 558 49 472 q 235 691 150 644 q 418 738 319 738 q 599 691 515 738 q 734 558 683 644 q 785 360 785 472 q 734 161 785 247 q 599 29 683 75 q 418 -17 515 -17 q 235 29 319 -17 q 99 161 150 75 q 49 360 49 247 m 249 360 q 297 208 249 264 q 417 151 344 151 q 536 208 489 151 q 583 360 583 264 q 536 513 583 456 q 417 569 489 569 q 297 513 344 569 q 249 360 249 456 z "},"œ":{"ha":1308,"x_min":49,"x_max":1271,"o":"m 949 738 q 1116 695 1043 738 q 1230 576 1189 653 q 1271 399 1271 499 q 1263 308 1271 354 l 785 308 q 843 187 797 228 q 957 146 889 146 q 1044 167 1006 146 q 1103 232 1082 189 l 1244 149 q 1135 26 1215 69 q 956 -17 1054 -17 q 794 20 867 -17 q 679 129 722 57 q 566 21 636 58 q 413 -17 496 -17 q 233 30 317 -17 q 99 162 150 76 q 49 360 49 247 q 99 558 49 472 q 233 691 150 644 q 413 738 317 738 q 566 700 496 738 q 678 592 636 663 q 792 701 721 664 q 949 738 863 738 m 939 581 q 842 544 882 581 q 788 443 801 508 l 1074 443 q 1031 545 1068 510 q 939 581 994 581 m 418 151 q 537 208 490 151 q 583 360 583 264 q 537 513 583 457 q 418 569 490 569 q 297 513 344 569 q 249 360 249 456 q 297 208 249 264 q 418 151 344 151 z "},"p":{"ha":875,"x_min":90,"x_max":825,"o":"m 501 738 q 663 693 589 738 q 781 563 738 649 q 825 360 825 476 q 781 158 825 243 q 663 28 738 72 q 501 -17 589 -17 q 378 10 435 -17 q 283 90 321 36 l 283 -322 l 90 -322 l 90 719 l 260 719 l 264 672 q 267 643 265 658 q 271 611 268 628 q 369 706 308 675 q 501 738 429 738 m 457 154 q 578 209 532 154 q 625 360 625 264 q 579 515 625 458 q 457 572 533 572 q 334 519 385 572 q 283 360 283 465 q 333 205 283 256 q 457 154 383 154 z "},"þ":{"ha":875,"x_min":90,"x_max":825,"o":"m 501 738 q 663 693 589 738 q 781 563 738 649 q 825 360 825 476 q 781 158 825 243 q 663 28 738 72 q 501 -17 589 -17 q 378 10 435 -17 q 283 90 321 36 l 283 -322 l 90 -322 l 90 1057 l 283 1057 l 283 629 q 378 710 322 683 q 501 738 435 738 m 457 154 q 578 209 532 154 q 625 360 625 264 q 579 515 625 458 q 457 572 533 572 q 334 519 385 572 q 283 360 283 465 q 333 205 283 256 q 457 154 383 154 z "},"q":{"ha":874,"x_min":49,"x_max":783,"o":"m 783 719 l 783 -322 l 590 -322 l 590 90 q 496 10 553 36 q 374 -17 439 -17 q 211 28 285 -17 q 93 158 138 72 q 49 360 49 243 q 93 563 49 478 q 211 693 138 649 q 374 738 285 738 q 506 706 446 738 q 603 613 565 675 q 614 719 613 693 l 783 719 m 418 154 q 540 205 490 154 q 590 360 590 256 q 540 518 590 464 q 418 572 489 572 q 295 515 342 572 q 249 360 249 457 q 295 209 249 264 q 418 154 342 154 z "},"r":{"ha":597,"x_min":90,"x_max":606,"o":"m 472 738 q 550 725 514 738 q 606 693 586 713 l 531 544 q 449 569 494 569 q 328 507 374 569 q 283 335 283 444 l 283 0 l 90 0 l 90 719 l 260 719 q 272 606 267 636 q 356 704 304 671 q 472 738 407 738 z "},"ŕ":{"ha":597,"x_min":90,"x_max":606,"o":"m 250 810 l 375 1039 l 569 1039 l 401 810 l 250 810 m 472 738 q 550 725 514 738 q 606 693 586 713 l 531 544 q 449 569 494 569 q 328 507 374 569 q 283 335 283 444 l 283 0 l 90 0 l 90 719 l 260 719 q 272 606 267 636 q 356 704 304 671 q 472 738 407 738 z "},"ř":{"ha":597,"x_min":86,"x_max":606,"o":"m 251 1039 l 336 928 l 419 1039 l 586 1039 l 407 810 l 264 810 l 86 1039 l 251 1039 m 472 738 q 550 725 514 738 q 606 693 586 713 l 531 544 q 449 569 494 569 q 328 507 374 569 q 283 335 283 444 l 283 0 l 90 0 l 90 719 l 260 719 q 272 606 267 636 q 356 704 304 671 q 472 738 407 738 z "},"ŗ":{"ha":597,"x_min":81,"x_max":606,"o":"m 472 738 q 550 725 514 738 q 606 693 586 713 l 531 544 q 449 569 494 569 q 328 507 374 569 q 283 335 283 444 l 283 0 l 90 0 l 90 719 l 260 719 q 272 606 267 636 q 356 704 304 671 q 472 738 407 738 m 182 -46 q 268 -76 235 -46 q 301 -167 301 -107 q 245 -288 301 -243 q 85 -339 189 -333 l 85 -264 q 154 -244 129 -257 q 188 -207 179 -231 l 181 -207 q 108 -186 135 -207 q 81 -129 81 -165 q 109 -69 81 -92 q 182 -46 138 -46 z "},"s":{"ha":650,"x_min":18,"x_max":624,"o":"m 624 214 q 541 45 624 107 q 326 -17 458 -17 q 130 32 213 -17 q 18 167 47 81 l 158 249 q 224 169 179 197 q 328 140 268 140 q 399 157 372 140 q 425 204 425 174 q 390 258 425 239 q 282 297 356 276 q 162 340 208 319 q 81 401 115 361 q 47 504 47 440 q 87 629 47 576 q 193 710 126 682 q 339 738 260 738 q 522 691 447 738 q 617 568 597 644 l 476 489 q 336 579 435 579 q 269 563 294 579 q 244 518 244 547 q 278 467 244 485 q 382 431 311 450 q 506 389 457 410 q 589 326 554 368 q 624 214 624 283 z "},"ś":{"ha":650,"x_min":18,"x_max":624,"o":"m 249 810 l 374 1039 l 568 1039 l 401 810 l 249 810 m 624 214 q 541 45 624 107 q 326 -17 458 -17 q 130 32 213 -17 q 18 167 47 81 l 158 249 q 224 169 179 197 q 328 140 268 140 q 399 157 372 140 q 425 204 425 174 q 390 258 425 239 q 282 297 356 276 q 162 340 208 319 q 81 401 115 361 q 47 504 47 440 q 87 629 47 576 q 193 710 126 682 q 339 738 260 738 q 522 691 447 738 q 617 568 597 644 l 476 489 q 336 579 435 579 q 269 563 294 579 q 244 518 244 547 q 278 467 244 485 q 382 431 311 450 q 506 389 457 410 q 589 326 554 368 q 624 214 624 283 z "},"š":{"ha":650,"x_min":18,"x_max":624,"o":"m 251 1039 l 336 929 l 419 1039 l 586 1039 l 407 810 l 264 810 l 85 1039 l 251 1039 m 624 214 q 541 45 624 107 q 326 -17 458 -17 q 130 32 213 -17 q 18 167 47 81 l 158 249 q 224 169 179 197 q 328 140 268 140 q 399 157 372 140 q 425 204 425 174 q 390 258 425 239 q 282 297 356 276 q 162 340 208 319 q 81 401 115 361 q 47 504 47 440 q 87 629 47 576 q 193 710 126 682 q 339 738 260 738 q 522 691 447 738 q 617 568 597 644 l 476 489 q 336 579 435 579 q 269 563 294 579 q 244 518 244 547 q 278 467 244 485 q 382 431 311 450 q 506 389 457 410 q 589 326 554 368 q 624 214 624 283 z "},"ş":{"ha":650,"x_min":18,"x_max":624,"o":"m 624 214 q 552 54 624 115 q 364 -15 481 -7 l 336 -79 q 447 -111 403 -79 q 490 -203 490 -143 q 432 -306 490 -272 q 289 -339 374 -339 q 175 -322 235 -339 l 175 -224 q 281 -240 229 -240 q 357 -206 357 -240 q 337 -179 357 -189 q 283 -169 317 -169 q 206 -181 250 -169 l 193 -114 l 239 -8 q 99 53 157 7 q 18 167 42 99 l 158 249 q 224 169 179 197 q 328 140 268 140 q 399 157 372 140 q 425 204 425 174 q 390 258 425 239 q 282 297 356 276 q 162 340 208 319 q 81 401 115 361 q 47 504 47 440 q 87 629 47 576 q 193 710 126 682 q 339 738 260 738 q 522 691 447 738 q 617 568 597 644 l 476 489 q 336 579 435 579 q 269 563 294 579 q 244 518 244 547 q 278 467 244 485 q 382 431 311 450 q 506 389 457 410 q 589 326 554 368 q 624 214 624 283 z "},"ŝ":{"ha":650,"x_min":18,"x_max":624,"o":"m 263 1039 l 407 1039 l 586 810 l 419 810 l 335 919 l 250 810 l 85 810 l 263 1039 m 624 214 q 541 45 624 107 q 326 -17 458 -17 q 130 32 213 -17 q 18 167 47 81 l 158 249 q 224 169 179 197 q 328 140 268 140 q 399 157 372 140 q 425 204 425 174 q 390 258 425 239 q 282 297 356 276 q 162 340 208 319 q 81 401 115 361 q 47 504 47 440 q 87 629 47 576 q 193 710 126 682 q 339 738 260 738 q 522 691 447 738 q 617 568 597 644 l 476 489 q 336 579 435 579 q 269 563 294 579 q 244 518 244 547 q 278 467 244 485 q 382 431 311 450 q 506 389 457 410 q 589 326 554 368 q 624 214 624 283 z "},"ș":{"ha":650,"x_min":18,"x_max":624,"o":"m 244 518 q 278 467 244 485 q 382 431 311 450 q 506 389 457 410 q 589 326 554 368 q 624 214 624 283 q 541 45 624 107 q 326 -17 458 -17 q 130 32 213 -17 q 18 167 47 81 l 158 249 q 224 169 179 197 q 328 140 268 140 q 399 157 372 140 q 425 204 425 174 q 390 258 425 239 q 282 297 356 276 q 162 340 208 319 q 81 401 115 361 q 47 504 47 440 q 87 629 47 576 q 193 710 126 682 q 339 738 260 738 q 522 691 447 738 q 617 568 597 644 l 476 489 q 336 579 435 579 q 269 563 294 579 q 244 518 244 547 m 318 -46 q 404 -76 371 -46 q 438 -167 438 -107 q 381 -288 438 -243 q 221 -339 325 -333 l 221 -264 q 290 -244 264 -257 q 324 -207 315 -231 l 317 -207 q 244 -186 271 -207 q 217 -129 217 -165 q 245 -69 217 -92 q 318 -46 274 -46 z "},"ß":{"ha":867,"x_min":90,"x_max":831,"o":"m 635 542 q 777 451 724 514 q 831 283 831 388 q 740 64 831 144 q 496 -17 649 -17 q 363 3 418 -17 l 363 174 q 471 151 415 151 q 586 189 542 151 q 631 300 631 226 q 572 416 631 381 q 436 451 514 451 l 381 451 l 381 613 l 406 613 q 529 650 488 613 q 571 760 571 688 q 537 864 571 826 q 440 901 503 901 q 320 832 357 901 q 283 649 283 763 l 283 0 l 90 0 l 90 664 q 137 892 90 800 q 263 1028 183 983 q 444 1072 343 1072 q 613 1034 539 1072 q 729 927 688 996 q 771 771 771 858 q 736 633 771 692 q 635 542 701 575 z "},"ſ":{"ha":532,"x_min":13,"x_max":600,"o":"m 422 1075 q 526 1057 481 1075 q 600 1010 572 1039 l 526 871 q 438 907 486 907 q 329 738 329 907 l 329 0 l 133 0 l 133 558 l 13 558 l 13 719 l 133 719 l 133 754 q 173 935 133 863 q 278 1041 213 1007 q 422 1075 344 1075 z "},"t":{"ha":588,"x_min":6,"x_max":590,"o":"m 590 42 q 393 -17 519 -17 q 205 45 276 -17 q 133 267 133 107 l 133 557 l 6 557 l 6 719 l 133 719 l 133 940 l 326 940 l 326 719 l 543 719 l 543 557 l 326 557 l 326 299 q 351 189 326 226 q 432 151 376 151 q 524 181 481 151 l 590 42 z "},"ŧ":{"ha":588,"x_min":6,"x_max":590,"o":"m 590 42 q 393 -17 519 -17 q 205 46 276 -17 q 133 269 133 108 l 133 299 l 6 299 l 6 449 l 133 449 l 133 571 l 6 571 l 6 719 l 133 719 l 133 940 l 328 940 l 328 719 l 543 719 l 543 571 l 328 571 l 328 449 l 543 449 l 543 299 l 328 299 l 328 297 q 352 188 328 224 q 432 151 376 151 q 524 181 481 151 l 590 42 z "},"ť":{"ha":588,"x_min":6,"x_max":632,"o":"m 513 1190 q 597 1151 563 1190 q 632 1039 632 1113 q 572 878 632 942 q 415 800 511 814 l 415 894 q 484 922 458 903 q 518 974 510 940 l 513 974 q 440 1006 468 974 q 411 1082 411 1038 q 440 1159 411 1128 q 513 1190 468 1190 m 432 151 q 524 181 481 151 l 590 42 q 393 -17 519 -17 q 205 45 276 -17 q 133 267 133 107 l 133 557 l 6 557 l 6 719 l 133 719 l 133 940 l 326 940 l 326 719 l 543 719 l 543 557 l 326 557 l 326 299 q 351 189 326 226 q 432 151 376 151 z "},"ţ":{"ha":588,"x_min":6,"x_max":590,"o":"m 374 -81 q 483 -112 440 -81 q 526 -203 526 -144 q 468 -306 526 -272 q 325 -339 410 -339 q 211 -322 271 -339 l 211 -224 q 318 -242 263 -242 q 393 -207 393 -242 q 373 -181 393 -190 q 318 -171 353 -171 q 242 -181 281 -171 l 229 -115 l 279 0 q 133 267 133 51 l 133 557 l 6 557 l 6 719 l 133 719 l 133 940 l 326 940 l 326 719 l 543 719 l 543 557 l 326 557 l 326 299 q 351 189 326 226 q 432 151 376 151 q 524 181 481 151 l 590 42 q 400 -17 521 -15 l 374 -81 z "},"ț":{"ha":588,"x_min":6,"x_max":590,"o":"m 590 42 q 393 -17 519 -17 q 205 45 276 -17 q 133 267 133 107 l 133 557 l 6 557 l 6 719 l 133 719 l 133 940 l 326 940 l 326 719 l 543 719 l 543 557 l 326 557 l 326 299 q 351 189 326 226 q 432 151 376 151 q 524 181 481 151 l 590 42 m 353 -46 q 440 -76 407 -46 q 472 -167 472 -107 q 416 -288 472 -243 q 256 -339 360 -333 l 256 -264 q 326 -244 300 -257 q 360 -207 351 -231 l 351 -207 q 278 -186 306 -207 q 251 -129 251 -165 q 280 -69 251 -92 q 353 -46 308 -46 z "},"u":{"ha":839,"x_min":79,"x_max":749,"o":"m 556 719 l 749 719 l 749 0 l 578 0 q 567 113 572 83 q 472 15 531 47 q 339 -17 414 -17 q 149 61 218 -17 q 79 289 79 139 l 79 719 l 272 719 l 272 353 q 400 154 272 154 q 513 208 469 154 q 556 360 556 263 l 556 719 z "},"ú":{"ha":839,"x_min":79,"x_max":749,"o":"m 331 810 l 456 1039 l 650 1039 l 482 810 l 331 810 m 556 719 l 749 719 l 749 0 l 578 0 q 567 113 572 83 q 472 15 531 47 q 339 -17 414 -17 q 149 61 218 -17 q 79 289 79 139 l 79 719 l 272 719 l 272 353 q 400 154 272 154 q 513 208 469 154 q 556 360 556 263 l 556 719 z "},"ŭ":{"ha":839,"x_min":79,"x_max":749,"o":"m 417 810 q 238 872 306 810 q 171 1039 171 933 l 322 1039 q 417 931 332 931 q 514 1039 506 931 l 665 1039 q 597 872 665 933 q 417 810 529 810 m 556 719 l 749 719 l 749 0 l 578 0 q 567 113 572 83 q 472 15 531 47 q 339 -17 414 -17 q 149 61 218 -17 q 79 289 79 139 l 79 719 l 272 719 l 272 353 q 400 154 272 154 q 513 208 469 154 q 556 360 556 263 l 556 719 z "},"ǔ":{"ha":839,"x_min":79,"x_max":749,"o":"m 332 1039 l 417 929 l 500 1039 l 667 1039 l 489 810 l 344 810 l 167 1039 l 332 1039 m 556 719 l 749 719 l 749 0 l 578 0 q 567 113 572 83 q 472 15 531 47 q 339 -17 414 -17 q 149 61 218 -17 q 79 289 79 139 l 79 719 l 272 719 l 272 353 q 400 154 272 154 q 513 208 469 154 q 556 360 556 263 l 556 719 z "},"û":{"ha":839,"x_min":79,"x_max":749,"o":"m 344 1039 l 489 1039 l 667 810 l 500 810 l 417 919 l 332 810 l 165 810 l 344 1039 m 556 719 l 749 719 l 749 0 l 578 0 q 567 113 572 83 q 472 15 531 47 q 339 -17 414 -17 q 149 61 218 -17 q 79 289 79 139 l 79 719 l 272 719 l 272 353 q 400 154 272 154 q 513 208 469 154 q 556 360 556 263 l 556 719 z "},"ü":{"ha":839,"x_min":79,"x_max":749,"o":"m 261 818 q 188 849 218 818 q 158 925 158 881 q 188 1001 158 969 q 261 1032 218 1032 q 336 1001 306 1032 q 367 925 367 969 q 336 849 367 881 q 261 818 306 818 m 572 818 q 499 850 529 818 q 469 925 469 882 q 499 1001 469 969 q 572 1032 529 1032 q 647 1001 615 1032 q 678 925 678 969 q 647 849 678 881 q 572 818 615 818 m 556 719 l 749 719 l 749 0 l 578 0 q 567 113 572 83 q 472 15 531 47 q 339 -17 414 -17 q 149 61 218 -17 q 79 289 79 139 l 79 719 l 272 719 l 272 353 q 400 154 272 154 q 513 208 469 154 q 556 360 556 263 l 556 719 z "},"ǘ":{"ha":839,"x_min":79,"x_max":749,"o":"m 331 1072 l 443 1269 l 633 1269 l 482 1072 l 331 1072 m 261 818 q 188 849 218 818 q 158 925 158 881 q 188 1001 158 969 q 261 1032 218 1032 q 336 1001 306 1032 q 367 925 367 969 q 336 849 367 881 q 261 818 306 818 m 572 818 q 499 850 529 818 q 469 925 469 882 q 499 1001 469 969 q 572 1032 529 1032 q 647 1001 615 1032 q 678 925 678 969 q 647 849 678 881 q 572 818 615 818 m 556 719 l 749 719 l 749 0 l 578 0 q 567 113 572 83 q 472 15 531 47 q 339 -17 414 -17 q 149 61 218 -17 q 79 289 79 139 l 79 719 l 272 719 l 272 353 q 400 154 272 154 q 513 208 469 154 q 556 360 556 263 l 556 719 z "},"ǚ":{"ha":839,"x_min":79,"x_max":749,"o":"m 333 1269 l 417 1175 l 500 1269 l 667 1269 l 489 1072 l 344 1072 l 167 1269 l 333 1269 m 261 818 q 188 849 218 818 q 158 925 158 881 q 188 1001 158 969 q 261 1032 218 1032 q 336 1001 306 1032 q 367 925 367 969 q 336 849 367 881 q 261 818 306 818 m 572 818 q 499 850 529 818 q 469 925 469 882 q 499 1001 469 969 q 572 1032 529 1032 q 647 1001 615 1032 q 678 925 678 969 q 647 849 678 881 q 572 818 615 818 m 556 719 l 749 719 l 749 0 l 578 0 q 567 113 572 83 q 472 15 531 47 q 339 -17 414 -17 q 149 61 218 -17 q 79 289 79 139 l 79 719 l 272 719 l 272 353 q 400 154 272 154 q 513 208 469 154 q 556 360 556 263 l 556 719 z "},"ǜ":{"ha":839,"x_min":79,"x_max":749,"o":"m 201 1269 l 392 1269 l 504 1072 l 351 1072 l 201 1269 m 261 818 q 188 849 218 818 q 158 925 158 881 q 188 1001 158 969 q 261 1032 218 1032 q 336 1001 306 1032 q 367 925 367 969 q 336 849 367 881 q 261 818 306 818 m 572 818 q 499 850 529 818 q 469 925 469 882 q 499 1001 469 969 q 572 1032 529 1032 q 647 1001 615 1032 q 678 925 678 969 q 647 849 678 881 q 572 818 615 818 m 556 719 l 749 719 l 749 0 l 578 0 q 567 113 572 83 q 472 15 531 47 q 339 -17 414 -17 q 149 61 218 -17 q 79 289 79 139 l 79 719 l 272 719 l 272 353 q 400 154 272 154 q 513 208 469 154 q 556 360 556 263 l 556 719 z "},"ǖ":{"ha":839,"x_min":79,"x_max":749,"o":"m 179 1106 l 179 1238 l 654 1238 l 654 1106 l 179 1106 m 261 818 q 188 849 218 818 q 158 925 158 881 q 188 1001 158 969 q 261 1032 218 1032 q 336 1001 306 1032 q 367 925 367 969 q 336 849 367 881 q 261 818 306 818 m 572 818 q 499 850 529 818 q 469 925 469 882 q 499 1001 469 969 q 572 1032 529 1032 q 647 1001 615 1032 q 678 925 678 969 q 647 849 678 881 q 572 818 615 818 m 556 719 l 749 719 l 749 0 l 578 0 q 567 113 572 83 q 472 15 531 47 q 339 -17 414 -17 q 149 61 218 -17 q 79 289 79 139 l 79 719 l 272 719 l 272 353 q 400 154 272 154 q 513 208 469 154 q 556 360 556 263 l 556 719 z "},"ụ":{"ha":839,"x_min":79,"x_max":749,"o":"m 556 719 l 749 719 l 749 0 l 578 0 q 567 113 572 83 q 472 15 531 47 q 339 -17 414 -17 q 149 61 218 -17 q 79 289 79 139 l 79 719 l 272 719 l 272 353 q 400 154 272 154 q 513 208 469 154 q 556 360 556 263 l 556 719 m 422 -308 q 342 -274 375 -308 q 308 -194 308 -240 q 342 -115 308 -149 q 422 -82 375 -82 q 503 -115 469 -82 q 538 -194 538 -149 q 503 -274 538 -240 q 422 -308 469 -308 z "},"ù":{"ha":839,"x_min":79,"x_max":749,"o":"m 185 1039 l 379 1039 l 504 810 l 351 810 l 185 1039 m 556 719 l 749 719 l 749 0 l 578 0 q 567 113 572 83 q 472 15 531 47 q 339 -17 414 -17 q 149 61 218 -17 q 79 289 79 139 l 79 719 l 272 719 l 272 353 q 400 154 272 154 q 513 208 469 154 q 556 360 556 263 l 556 719 z "},"ủ":{"ha":839,"x_min":79,"x_max":749,"o":"m 251 1044 q 394 1085 308 1085 q 520 1050 471 1085 q 569 947 569 1015 q 407 775 569 828 l 340 863 q 408 894 385 878 q 431 933 431 911 q 415 964 431 953 q 374 975 400 975 q 276 942 329 975 l 251 1044 m 556 719 l 749 719 l 749 0 l 578 0 q 567 113 572 83 q 472 15 531 47 q 339 -17 414 -17 q 149 61 218 -17 q 79 289 79 139 l 79 719 l 272 719 l 272 353 q 400 154 272 154 q 513 208 469 154 q 556 360 556 263 l 556 719 z "},"ư":{"ha":903,"x_min":79,"x_max":944,"o":"m 944 800 q 900 647 944 693 q 749 593 856 601 l 749 0 l 578 0 q 567 113 572 83 q 472 15 531 47 q 339 -17 414 -17 q 149 61 218 -17 q 79 289 79 139 l 79 719 l 272 719 l 272 353 q 400 154 272 154 q 513 208 469 154 q 556 360 556 263 l 556 719 l 650 719 q 733 728 706 721 q 771 753 760 735 q 782 811 782 772 q 772 897 782 854 l 935 897 q 944 800 944 850 z "},"ứ":{"ha":903,"x_min":79,"x_max":944,"o":"m 331 810 l 456 1039 l 650 1039 l 482 810 l 331 810 m 944 800 q 900 647 944 693 q 749 593 856 601 l 749 0 l 578 0 q 567 113 572 83 q 472 15 531 47 q 339 -17 414 -17 q 149 61 218 -17 q 79 289 79 139 l 79 719 l 272 719 l 272 353 q 400 154 272 154 q 513 208 469 154 q 556 360 556 263 l 556 719 l 650 719 q 733 728 706 721 q 771 753 760 735 q 782 811 782 772 q 772 897 782 854 l 935 897 q 944 800 944 850 z "},"ự":{"ha":903,"x_min":79,"x_max":944,"o":"m 944 800 q 900 647 944 693 q 749 593 856 601 l 749 0 l 578 0 q 567 113 572 83 q 472 15 531 47 q 339 -17 414 -17 q 149 61 218 -17 q 79 289 79 139 l 79 719 l 272 719 l 272 353 q 400 154 272 154 q 513 208 469 154 q 556 360 556 263 l 556 719 l 650 719 q 733 728 706 721 q 771 753 760 735 q 782 811 782 772 q 772 897 782 854 l 935 897 q 944 800 944 850 m 422 -308 q 342 -274 375 -308 q 308 -194 308 -240 q 342 -115 308 -149 q 422 -82 375 -82 q 503 -115 469 -82 q 538 -194 538 -149 q 503 -274 538 -240 q 422 -308 469 -308 z "},"ừ":{"ha":903,"x_min":79,"x_max":944,"o":"m 185 1039 l 379 1039 l 504 810 l 351 810 l 185 1039 m 944 800 q 900 647 944 693 q 749 593 856 601 l 749 0 l 578 0 q 567 113 572 83 q 472 15 531 47 q 339 -17 414 -17 q 149 61 218 -17 q 79 289 79 139 l 79 719 l 272 719 l 272 353 q 400 154 272 154 q 513 208 469 154 q 556 360 556 263 l 556 719 l 650 719 q 733 728 706 721 q 771 753 760 735 q 782 811 782 772 q 772 897 782 854 l 935 897 q 944 800 944 850 z "},"ử":{"ha":903,"x_min":79,"x_max":944,"o":"m 251 1044 q 394 1085 308 1085 q 520 1050 471 1085 q 569 947 569 1015 q 407 775 569 828 l 340 863 q 408 894 385 878 q 431 933 431 911 q 415 964 431 953 q 374 975 400 975 q 276 942 329 975 l 251 1044 m 944 800 q 900 647 944 693 q 749 593 856 601 l 749 0 l 578 0 q 567 113 572 83 q 472 15 531 47 q 339 -17 414 -17 q 149 61 218 -17 q 79 289 79 139 l 79 719 l 272 719 l 272 353 q 400 154 272 154 q 513 208 469 154 q 556 360 556 263 l 556 719 l 650 719 q 733 728 706 721 q 771 753 760 735 q 782 811 782 772 q 772 897 782 854 l 935 897 q 944 800 944 850 z "},"ữ":{"ha":903,"x_min":79,"x_max":944,"o":"m 150 832 q 199 981 153 924 q 321 1039 246 1039 q 394 1022 365 1039 q 451 976 422 1006 q 480 952 469 960 q 503 944 490 944 q 551 1018 540 944 l 683 1018 q 635 869 681 926 q 514 811 589 811 q 441 828 469 811 q 383 874 413 844 q 356 899 367 892 q 332 907 344 907 q 283 832 293 907 l 150 832 m 944 800 q 900 647 944 693 q 749 593 856 601 l 749 0 l 578 0 q 567 113 572 83 q 472 15 531 47 q 339 -17 414 -17 q 149 61 218 -17 q 79 289 79 139 l 79 719 l 272 719 l 272 353 q 400 154 272 154 q 513 208 469 154 q 556 360 556 263 l 556 719 l 650 719 q 733 728 706 721 q 771 753 760 735 q 782 811 782 772 q 772 897 782 854 l 935 897 q 944 800 944 850 z "},"ű":{"ha":839,"x_min":79,"x_max":775,"o":"m 222 810 l 347 1039 l 528 1039 l 361 810 l 222 810 m 469 810 l 594 1039 l 775 1039 l 608 810 l 469 810 m 556 719 l 749 719 l 749 0 l 578 0 q 567 113 572 83 q 472 15 531 47 q 339 -17 414 -17 q 149 61 218 -17 q 79 289 79 139 l 79 719 l 272 719 l 272 353 q 400 154 272 154 q 513 208 469 154 q 556 360 556 263 l 556 719 z "},"ū":{"ha":839,"x_min":79,"x_max":749,"o":"m 179 856 l 179 988 l 654 988 l 654 856 l 179 856 m 556 719 l 749 719 l 749 0 l 578 0 q 567 113 572 83 q 472 15 531 47 q 339 -17 414 -17 q 149 61 218 -17 q 79 289 79 139 l 79 719 l 272 719 l 272 353 q 400 154 272 154 q 513 208 469 154 q 556 360 556 263 l 556 719 z "},"ų":{"ha":839,"x_min":79,"x_max":835,"o":"m 835 -262 q 756 -319 800 -300 q 654 -339 713 -339 q 515 -298 569 -339 q 461 -179 461 -257 q 578 8 461 -75 q 567 113 572 86 q 472 15 531 47 q 339 -17 414 -17 q 149 61 218 -17 q 79 289 79 139 l 79 719 l 272 719 l 272 353 q 400 154 272 154 q 513 208 469 154 q 556 360 556 263 l 556 719 l 749 719 l 749 0 q 635 -77 672 -40 q 599 -157 599 -114 q 668 -218 599 -218 q 774 -169 725 -218 l 835 -262 z "},"ů":{"ha":839,"x_min":79,"x_max":749,"o":"m 250 958 q 298 1076 250 1029 q 417 1124 346 1124 q 534 1077 488 1124 q 581 958 581 1031 q 534 840 581 886 q 417 793 488 793 q 298 840 346 793 q 250 958 250 886 m 353 958 q 370 910 353 929 q 417 890 388 890 q 462 910 444 890 q 479 958 479 929 q 462 1007 479 989 q 417 1025 444 1025 q 370 1007 388 1025 q 353 958 353 989 m 556 719 l 749 719 l 749 0 l 578 0 q 567 113 572 83 q 472 15 531 47 q 339 -17 414 -17 q 149 61 218 -17 q 79 289 79 139 l 79 719 l 272 719 l 272 353 q 400 154 272 154 q 513 208 469 154 q 556 360 556 263 l 556 719 z "},"ũ":{"ha":839,"x_min":79,"x_max":749,"o":"m 150 832 q 199 981 153 924 q 321 1039 246 1039 q 394 1022 365 1039 q 451 976 422 1006 q 480 952 469 960 q 503 944 490 944 q 551 1018 540 944 l 683 1018 q 635 869 681 926 q 514 811 589 811 q 441 828 469 811 q 383 874 413 844 q 356 899 367 892 q 332 907 344 907 q 283 832 293 907 l 150 832 m 556 719 l 749 719 l 749 0 l 578 0 q 567 113 572 83 q 472 15 531 47 q 339 -17 414 -17 q 149 61 218 -17 q 79 289 79 139 l 79 719 l 272 719 l 272 353 q 400 154 272 154 q 513 208 469 154 q 556 360 556 263 l 556 719 z "},"v":{"ha":786,"x_min":6,"x_max":781,"o":"m 219 719 l 406 244 l 579 719 l 781 719 l 476 1 l 319 1 l 6 719 l 219 719 z "},"w":{"ha":1142,"x_min":6,"x_max":1138,"o":"m 658 719 l 808 271 l 950 719 l 1138 719 l 875 1 l 738 1 l 574 439 l 417 1 l 278 1 l 6 719 l 204 719 l 356 265 l 497 719 l 658 719 z "},"ẃ":{"ha":1142,"x_min":6,"x_max":1138,"o":"m 506 810 l 631 1039 l 825 1039 l 657 810 l 506 810 m 658 719 l 808 271 l 950 719 l 1138 719 l 875 1 l 738 1 l 574 439 l 417 1 l 278 1 l 6 719 l 204 719 l 356 265 l 497 719 l 658 719 z "},"ŵ":{"ha":1142,"x_min":6,"x_max":1138,"o":"m 519 1039 l 664 1039 l 842 810 l 675 810 l 592 919 l 507 810 l 340 810 l 519 1039 m 658 719 l 808 271 l 950 719 l 1138 719 l 875 1 l 738 1 l 574 439 l 417 1 l 278 1 l 6 719 l 204 719 l 356 265 l 497 719 l 658 719 z "},"ẅ":{"ha":1142,"x_min":6,"x_max":1138,"o":"m 436 818 q 363 849 393 818 q 333 925 333 881 q 363 1001 333 969 q 436 1032 393 1032 q 510 1001 481 1032 q 540 925 540 969 q 510 849 540 881 q 436 818 481 818 m 747 818 q 674 850 704 818 q 644 925 644 882 q 674 1001 644 969 q 747 1032 704 1032 q 821 1001 790 1032 q 851 925 851 969 q 821 849 851 881 q 747 818 790 818 m 658 719 l 808 271 l 950 719 l 1138 719 l 875 1 l 738 1 l 574 439 l 417 1 l 278 1 l 6 719 l 204 719 l 356 265 l 497 719 l 658 719 z "},"ẁ":{"ha":1142,"x_min":6,"x_max":1138,"o":"m 360 1039 l 554 1039 l 679 810 l 526 810 l 360 1039 m 658 719 l 808 271 l 950 719 l 1138 719 l 875 1 l 738 1 l 574 439 l 417 1 l 278 1 l 6 719 l 204 719 l 356 265 l 497 719 l 658 719 z "},"x":{"ha":749,"x_min":6,"x_max":742,"o":"m 378 506 l 531 719 l 742 719 l 478 364 l 742 0 l 521 0 l 369 215 l 219 0 l 6 0 l 269 356 l 6 719 l 229 719 l 378 506 z "},"y":{"ha":790,"x_min":0,"x_max":785,"o":"m 583 719 l 785 719 l 461 -94 q 341 -281 410 -224 q 169 -339 272 -339 q 76 -324 119 -339 q 0 -285 32 -310 l 76 -137 q 168 -168 118 -168 q 223 -155 200 -168 q 267 -109 246 -142 q 315 -12 288 -76 l 3 719 l 219 719 l 410 224 l 583 719 z "},"ý":{"ha":790,"x_min":0,"x_max":785,"o":"m 436 1039 l 631 1039 l 464 810 l 313 810 l 436 1039 m 583 719 l 785 719 l 461 -94 q 341 -281 410 -224 q 169 -339 272 -339 q 76 -324 119 -339 q 0 -285 32 -310 l 76 -137 q 168 -168 118 -168 q 223 -155 200 -168 q 267 -109 246 -142 q 315 -12 288 -76 l 3 719 l 219 719 l 410 224 l 583 719 z "},"ŷ":{"ha":790,"x_min":0,"x_max":785,"o":"m 482 810 l 397 919 l 313 810 l 147 810 l 325 1039 l 469 1039 l 649 810 l 482 810 m 583 719 l 785 719 l 461 -94 q 341 -281 410 -224 q 169 -339 272 -339 q 76 -324 119 -339 q 0 -285 32 -310 l 76 -137 q 168 -168 118 -168 q 223 -155 200 -168 q 267 -109 246 -142 q 315 -12 288 -76 l 3 719 l 219 719 l 410 224 l 583 719 z "},"ÿ":{"ha":790,"x_min":0,"x_max":785,"o":"m 242 818 q 169 849 199 818 q 139 925 139 881 q 169 1001 139 969 q 242 1032 199 1032 q 317 1001 286 1032 q 347 925 347 969 q 317 849 347 881 q 242 818 286 818 m 554 818 q 481 850 511 818 q 450 925 450 882 q 481 1001 450 969 q 554 1032 511 1032 q 628 1001 597 1032 q 658 925 658 969 q 628 849 658 881 q 554 818 597 818 m 583 719 l 785 719 l 461 -94 q 341 -281 410 -224 q 169 -339 272 -339 q 76 -324 119 -339 q 0 -285 32 -310 l 76 -137 q 168 -168 118 -168 q 223 -155 200 -168 q 267 -109 246 -142 q 315 -12 288 -76 l 3 719 l 219 719 l 410 224 l 583 719 z "},"ỵ":{"ha":790,"x_min":0,"x_max":785,"o":"m 583 719 l 785 719 l 461 -94 q 341 -281 410 -224 q 169 -339 272 -339 q 76 -324 119 -339 q 0 -285 32 -310 l 76 -137 q 168 -168 118 -168 q 223 -155 200 -168 q 267 -109 246 -142 q 315 -12 288 -76 l 3 719 l 219 719 l 410 224 l 583 719 m 650 -82 q 731 -115 697 -82 q 765 -194 765 -149 q 731 -274 765 -240 q 650 -308 697 -308 q 569 -274 603 -308 q 536 -194 536 -240 q 569 -115 536 -149 q 650 -82 603 -82 z "},"ỳ":{"ha":790,"x_min":0,"x_max":785,"o":"m 360 1039 l 485 810 l 333 810 l 165 1039 l 360 1039 m 583 719 l 785 719 l 461 -94 q 341 -281 410 -224 q 169 -339 272 -339 q 76 -324 119 -339 q 0 -285 32 -310 l 76 -137 q 168 -168 118 -168 q 223 -155 200 -168 q 267 -109 246 -142 q 315 -12 288 -76 l 3 719 l 219 719 l 410 224 l 583 719 z "},"ỷ":{"ha":790,"x_min":0,"x_max":785,"o":"m 354 975 q 257 942 313 975 l 232 1044 q 297 1074 260 1064 q 375 1085 335 1085 q 501 1050 451 1085 q 551 947 551 1015 q 388 775 551 828 l 322 863 q 389 894 367 878 q 411 933 411 911 q 396 964 411 953 q 354 975 381 975 m 583 719 l 785 719 l 461 -94 q 341 -281 410 -224 q 169 -339 272 -339 q 76 -324 119 -339 q 0 -285 32 -310 l 76 -137 q 168 -168 118 -168 q 223 -155 200 -168 q 267 -109 246 -142 q 315 -12 288 -76 l 3 719 l 219 719 l 410 224 l 583 719 z "},"ỹ":{"ha":790,"x_min":0,"x_max":785,"o":"m 313 907 q 264 832 276 907 l 132 832 q 181 982 135 925 q 303 1039 228 1039 q 376 1023 347 1039 q 432 978 404 1007 q 461 953 450 961 q 485 944 472 944 q 533 1018 521 944 l 665 1018 q 616 869 663 926 q 494 811 569 811 q 422 828 450 811 q 365 874 393 844 q 336 899 347 892 q 313 907 325 907 m 583 719 l 785 719 l 461 -94 q 341 -281 410 -224 q 169 -339 272 -339 q 76 -324 119 -339 q 0 -285 32 -310 l 76 -137 q 168 -168 118 -168 q 223 -155 200 -168 q 267 -109 246 -142 q 315 -12 288 -76 l 3 719 l 219 719 l 410 224 l 583 719 z "},"z":{"ha":671,"x_min":38,"x_max":636,"o":"m 615 718 l 615 607 l 288 154 l 636 154 l 636 0 l 38 0 l 38 113 l 365 565 l 61 565 l 61 718 l 615 718 z "},"ź":{"ha":671,"x_min":38,"x_max":636,"o":"m 257 810 l 382 1039 l 576 1039 l 408 810 l 257 810 m 615 718 l 615 607 l 288 154 l 636 154 l 636 0 l 38 0 l 38 113 l 365 565 l 71 565 l 71 718 l 615 718 z "},"ž":{"ha":671,"x_min":38,"x_max":636,"o":"m 258 1039 l 343 929 l 426 1039 l 593 1039 l 415 810 l 271 810 l 93 1039 l 258 1039 m 615 718 l 615 607 l 288 154 l 636 154 l 636 0 l 38 0 l 38 113 l 365 565 l 71 565 l 71 718 l 615 718 z "},"ż":{"ha":671,"x_min":38,"x_max":636,"o":"m 343 811 q 263 847 297 811 q 229 929 229 882 q 263 1013 229 978 q 343 1047 296 1047 q 425 1012 390 1047 q 460 929 460 976 q 425 847 460 882 q 343 811 390 811 m 615 718 l 615 607 l 288 154 l 636 154 l 636 0 l 38 0 l 38 113 l 365 565 l 71 565 l 71 718 l 615 718 z "},"ª":{"ha":604,"x_min":44,"x_max":536,"o":"m 296 1026 q 472 958 408 1026 q 536 771 536 889 l 536 467 l 410 467 q 401 525 408 496 q 250 454 354 454 q 103 499 163 454 q 44 624 44 544 q 111 754 44 704 q 275 804 178 804 q 388 786 333 804 q 283 903 383 903 q 174 832 210 903 l 67 893 q 157 990 96 954 q 296 1026 218 1026 m 272 568 q 353 594 318 568 q 389 665 389 619 l 389 675 q 288 697 332 697 q 222 679 246 697 q 197 631 197 661 q 219 585 197 601 q 272 568 240 568 z "},"º":{"ha":633,"x_min":38,"x_max":596,"o":"m 38 739 q 76 890 38 825 q 179 991 115 956 q 318 1026 243 1026 q 456 992 392 1026 q 558 892 519 957 q 596 739 596 826 q 558 588 596 653 q 456 489 519 524 q 318 454 392 454 q 179 489 243 454 q 76 588 115 524 q 38 739 38 653 m 194 739 q 229 626 194 668 q 317 583 264 583 q 403 626 369 583 q 438 739 438 668 q 403 855 438 813 q 317 897 369 897 q 228 855 263 897 q 194 739 194 813 z "},"ⁿ":{"ha":654,"x_min":76,"x_max":586,"o":"m 389 1026 q 533 967 481 1026 q 586 793 586 907 l 586 467 l 433 467 l 433 744 q 336 894 433 894 q 257 854 286 894 q 228 740 228 814 l 228 467 l 76 467 l 76 1011 l 208 1011 q 217 928 211 967 q 389 1026 268 1026 z "},"А":{"ha":1003,"x_min":8,"x_max":994,"o":"m 583 1017 l 994 0 l 781 0 l 692 232 l 296 232 l 210 0 l 8 0 l 407 1017 l 583 1017 m 626 404 l 490 761 l 358 404 l 626 404 z "},"Б":{"ha":944,"x_min":107,"x_max":896,"o":"m 513 611 q 794 530 693 611 q 896 304 896 449 q 795 80 896 160 q 513 0 694 0 l 107 0 l 107 1017 l 806 1017 l 806 842 l 308 842 l 308 611 l 513 611 m 494 175 q 636 210 588 175 q 685 306 685 244 q 636 401 685 367 q 494 436 588 436 l 308 436 l 308 175 l 494 175 z "},"В":{"ha":944,"x_min":107,"x_max":896,"o":"m 728 528 q 896 293 896 468 q 795 78 896 156 q 513 0 694 0 l 107 0 l 107 1017 l 475 1017 q 740 942 638 1017 q 842 733 842 868 q 728 528 842 593 m 304 842 l 304 601 l 456 601 q 585 635 538 601 q 632 726 632 669 q 585 812 632 782 q 456 842 539 842 l 304 842 m 494 175 q 636 208 588 175 q 685 303 685 242 q 636 399 685 364 q 494 433 588 433 l 304 433 l 304 175 l 494 175 z "},"Г":{"ha":781,"x_min":107,"x_max":769,"o":"m 107 1017 l 769 1017 l 769 838 l 308 838 l 308 0 l 107 0 l 107 1017 z "},"Ѓ":{"ha":779,"x_min":107,"x_max":769,"o":"m 367 1108 l 492 1289 l 686 1289 l 518 1108 l 367 1108 m 107 1017 l 769 1017 l 769 838 l 308 838 l 308 0 l 107 0 l 107 1017 z "},"Ґ":{"ha":789,"x_min":107,"x_max":797,"o":"m 107 1017 l 596 1017 l 624 1225 l 797 1225 l 772 838 l 308 838 l 308 0 l 107 0 l 107 1017 z "},"Д":{"ha":1136,"x_min":18,"x_max":1108,"o":"m 972 179 l 1108 179 l 1094 -239 l 921 -239 l 914 0 l 213 0 l 206 -239 l 32 -239 l 18 179 l 75 179 q 178 213 139 179 q 239 322 217 246 q 272 533 261 399 l 311 1017 l 972 1017 l 972 179 m 771 179 l 771 838 l 494 838 l 469 508 q 441 312 461 393 q 385 179 421 231 l 771 179 z "},"Е":{"ha":844,"x_min":107,"x_max":785,"o":"m 721 429 l 308 429 l 308 176 l 785 176 l 785 0 l 107 0 l 107 1017 l 769 1017 l 769 842 l 308 842 l 308 603 l 721 603 l 721 429 z "},"Ѐ":{"ha":844,"x_min":107,"x_max":785,"o":"m 178 1289 l 378 1289 l 507 1111 l 349 1111 l 178 1289 m 721 429 l 308 429 l 308 176 l 785 176 l 785 0 l 107 0 l 107 1017 l 769 1017 l 769 842 l 308 842 l 308 603 l 721 603 l 721 429 z "},"Ё":{"ha":844,"x_min":107,"x_max":785,"o":"m 278 1113 q 205 1139 235 1113 q 175 1201 175 1165 q 205 1263 175 1238 q 278 1289 235 1289 q 353 1263 322 1289 q 383 1201 383 1238 q 353 1139 383 1165 q 278 1113 322 1113 m 589 1113 q 516 1139 546 1113 q 486 1201 486 1165 q 516 1263 486 1238 q 589 1289 546 1289 q 663 1263 632 1289 q 694 1201 694 1238 q 663 1139 694 1165 q 589 1113 632 1113 m 721 429 l 308 429 l 308 176 l 785 176 l 785 0 l 107 0 l 107 1017 l 769 1017 l 769 842 l 308 842 l 308 603 l 721 603 l 721 429 z "},"Ж":{"ha":1519,"x_min":0,"x_max":1513,"o":"m 1167 519 l 1513 0 l 1267 0 l 994 422 l 857 422 l 857 0 l 656 0 l 656 422 l 515 422 l 243 0 l 0 0 l 346 519 l 18 1017 l 247 1017 l 514 601 l 656 601 l 656 1017 l 857 1017 l 857 601 l 1000 601 l 1267 1017 l 1494 1017 l 1167 519 z "},"З":{"ha":836,"x_min":33,"x_max":786,"o":"m 601 531 q 739 435 692 499 q 786 281 786 372 q 683 63 786 142 q 408 -17 581 -17 q 33 219 114 -17 l 193 313 q 404 163 249 163 q 526 199 481 163 q 572 300 572 235 q 513 403 572 368 q 338 439 454 439 l 300 439 l 301 606 l 356 606 q 490 643 444 606 q 535 739 535 681 q 497 824 535 792 q 396 856 460 856 q 200 706 261 856 l 47 794 q 180 975 85 914 q 411 1036 275 1036 q 590 1001 514 1036 q 708 901 667 965 q 749 756 749 838 q 712 621 749 679 q 601 531 675 563 z "},"И":{"ha":1056,"x_min":107,"x_max":950,"o":"m 786 1017 l 950 1017 l 950 0 l 763 0 l 763 685 l 269 0 l 107 0 l 107 1017 l 292 1017 l 292 332 l 786 1017 z "},"Й":{"ha":1056,"x_min":107,"x_max":950,"o":"m 528 1110 q 351 1158 417 1110 q 285 1289 285 1206 l 435 1289 q 463 1226 439 1249 q 528 1204 486 1204 q 624 1289 613 1204 l 774 1289 q 708 1158 774 1206 q 528 1110 642 1110 m 786 1017 l 950 1017 l 950 0 l 763 0 l 763 685 l 269 0 l 107 0 l 107 1017 l 292 1017 l 292 332 l 786 1017 z "},"Ѝ":{"ha":1056,"x_min":107,"x_max":950,"o":"m 296 1289 l 490 1289 l 615 1107 l 463 1107 l 296 1289 m 786 1017 l 950 1017 l 950 0 l 763 0 l 763 685 l 269 0 l 107 0 l 107 1017 l 292 1017 l 292 332 l 786 1017 z "},"К":{"ha":1003,"x_min":107,"x_max":996,"o":"m 619 519 l 996 0 l 747 0 l 451 422 l 308 422 l 308 0 l 107 0 l 107 1017 l 308 1017 l 308 601 l 457 601 l 747 1017 l 976 1017 l 619 519 z "},"Ќ":{"ha":1003,"x_min":107,"x_max":996,"o":"m 442 1111 l 571 1289 l 771 1289 l 599 1111 l 442 1111 m 619 519 l 996 0 l 747 0 l 451 422 l 308 422 l 308 0 l 107 0 l 107 1017 l 308 1017 l 308 601 l 457 601 l 747 1017 l 976 1017 l 619 519 z "},"Л":{"ha":1064,"x_min":22,"x_max":958,"o":"m 958 1017 l 958 0 l 756 0 l 756 838 l 407 838 l 382 361 q 334 128 374 210 q 221 15 294 47 q 22 -17 147 -17 l 22 168 q 118 188 85 168 q 165 253 151 207 q 183 385 179 299 l 218 1017 l 958 1017 z "},"М":{"ha":1219,"x_min":107,"x_max":1113,"o":"m 960 1017 l 1113 1017 l 1113 0 l 921 0 l 921 656 l 663 271 l 557 271 l 297 658 l 297 0 l 107 0 l 107 1017 l 267 1017 l 614 490 l 960 1017 z "},"Н":{"ha":1075,"x_min":107,"x_max":969,"o":"m 308 617 l 767 617 l 767 1017 l 969 1017 l 969 0 l 767 0 l 767 438 l 308 438 l 308 0 l 107 0 l 107 1017 l 308 1017 l 308 617 z "},"О":{"ha":1088,"x_min":58,"x_max":1029,"o":"m 58 510 q 122 789 58 669 q 297 972 186 908 q 543 1035 407 1035 q 790 972 679 1035 q 965 789 900 908 q 1029 510 1029 669 q 965 229 1029 349 q 790 47 900 110 q 543 -17 679 -17 q 297 47 407 -17 q 122 229 186 110 q 58 510 58 349 m 271 510 q 305 331 271 408 q 401 210 339 253 q 543 168 463 168 q 685 210 624 168 q 781 331 747 253 q 814 510 814 408 q 780 688 814 611 q 685 808 746 765 q 543 850 624 850 q 401 808 463 850 q 305 688 339 765 q 271 510 271 611 z "},"П":{"ha":1068,"x_min":107,"x_max":961,"o":"m 107 1017 l 961 1017 l 961 0 l 760 0 l 760 838 l 308 838 l 308 0 l 107 0 l 107 1017 z "},"Р":{"ha":885,"x_min":107,"x_max":857,"o":"m 457 1017 q 668 975 578 1017 q 808 858 758 933 q 857 681 857 782 q 808 505 857 581 q 668 388 758 429 q 457 347 578 347 l 308 347 l 308 0 l 107 0 l 107 1017 l 457 1017 m 433 518 q 585 559 528 518 q 643 681 643 600 q 585 803 643 761 q 433 846 528 846 l 308 846 l 308 518 l 433 518 z "},"С":{"ha":946,"x_min":58,"x_max":922,"o":"m 542 168 q 669 207 615 168 q 754 315 722 246 l 922 218 q 785 49 885 115 q 546 -17 685 -17 q 300 49 411 -17 q 124 234 189 114 q 58 510 58 354 q 123 785 58 665 q 299 969 188 904 q 546 1035 411 1035 q 785 969 685 1035 q 922 800 885 903 l 754 703 q 669 811 722 772 q 542 850 615 850 q 403 808 464 850 q 306 690 342 767 q 271 510 271 613 q 306 329 271 407 q 403 210 342 251 q 542 168 464 168 z "},"Т":{"ha":844,"x_min":11,"x_max":833,"o":"m 11 1017 l 833 1017 l 833 838 l 524 838 l 524 0 l 319 0 l 319 838 l 11 838 l 11 1017 z "},"У":{"ha":942,"x_min":8,"x_max":933,"o":"m 489 501 l 719 1017 l 933 1017 l 578 283 q 483 118 529 182 q 374 19 436 54 q 224 -17 311 -17 q 74 19 136 -17 l 74 207 q 214 168 143 168 q 306 194 268 168 q 386 289 344 221 l 8 1017 l 239 1017 l 489 501 z "},"Ў":{"ha":942,"x_min":8,"x_max":933,"o":"m 479 1110 q 302 1158 368 1110 q 236 1289 236 1206 l 386 1289 q 414 1226 390 1249 q 479 1204 438 1204 q 575 1289 564 1204 l 725 1289 q 659 1158 725 1206 q 479 1110 593 1110 m 489 501 l 719 1017 l 933 1017 l 578 283 q 483 118 529 182 q 374 19 436 54 q 224 -17 311 -17 q 74 19 136 -17 l 74 207 q 214 168 143 168 q 306 194 268 168 q 386 289 344 221 l 8 1017 l 239 1017 l 489 501 z "},"Ф":{"ha":1174,"x_min":44,"x_max":1129,"o":"m 1129 510 q 1070 311 1129 397 q 911 173 1011 225 q 686 106 811 121 l 686 0 l 489 0 l 489 106 q 263 171 364 119 q 103 309 163 222 q 44 510 44 396 q 103 708 44 622 q 263 847 163 794 q 489 913 364 899 l 489 1017 l 686 1017 l 686 913 q 912 846 811 897 q 1071 708 1013 794 q 1129 510 1129 622 m 254 510 q 317 364 254 418 q 489 293 379 310 l 489 726 q 317 656 381 710 q 254 510 254 601 m 686 293 q 856 364 794 310 q 918 510 918 418 q 856 655 918 600 q 686 726 793 710 l 686 293 z "},"Х":{"ha":993,"x_min":7,"x_max":986,"o":"m 969 1017 l 613 521 l 986 0 l 736 0 l 489 357 l 240 0 l 7 0 l 379 517 l 24 1017 l 269 1017 l 503 681 l 736 1017 l 969 1017 z "},"Ч":{"ha":983,"x_min":56,"x_max":878,"o":"m 675 1017 l 878 1017 l 878 0 l 675 0 l 675 415 q 424 331 582 331 q 155 422 254 331 q 56 696 56 513 l 56 1017 l 258 1017 l 258 739 q 305 568 258 621 q 453 515 351 515 q 613 567 551 515 q 675 740 675 619 l 675 1017 z "},"Ц":{"ha":1142,"x_min":107,"x_max":1097,"o":"m 961 1017 l 961 179 l 1097 179 l 1082 -239 l 910 -239 l 901 0 l 107 0 l 107 1017 l 308 1017 l 308 179 l 760 179 l 760 1017 l 961 1017 z "},"Ш":{"ha":1444,"x_min":107,"x_max":1338,"o":"m 824 179 l 1136 179 l 1136 1017 l 1338 1017 l 1338 0 l 107 0 l 107 1017 l 308 1017 l 308 179 l 621 179 l 621 1017 l 824 1017 l 824 179 z "},"Щ":{"ha":1517,"x_min":107,"x_max":1468,"o":"m 1135 1017 l 1338 1017 l 1338 179 l 1468 179 l 1454 -239 l 1281 -239 l 1274 0 l 107 0 l 107 1017 l 308 1017 l 308 179 l 621 179 l 621 1017 l 824 1017 l 824 179 l 1135 179 l 1135 1017 z "},"Џ":{"ha":1068,"x_min":107,"x_max":961,"o":"m 308 179 l 760 179 l 760 1017 l 961 1017 l 961 0 l 629 0 l 621 -239 l 449 -239 l 440 0 l 107 0 l 107 1017 l 308 1017 l 308 179 z "},"Ь":{"ha":936,"x_min":107,"x_max":896,"o":"m 513 629 q 795 547 694 629 q 896 313 896 464 q 796 81 896 163 q 513 0 696 0 l 107 0 l 107 1017 l 308 1017 l 308 629 l 513 629 m 494 175 q 635 212 586 175 q 685 313 685 249 q 635 416 685 378 q 494 454 586 454 l 308 454 l 308 175 l 494 175 z "},"Ъ":{"ha":1122,"x_min":11,"x_max":1083,"o":"m 700 629 q 983 547 882 629 q 1083 313 1083 464 q 983 81 1083 163 q 700 0 883 0 l 294 0 l 294 842 l 11 842 l 11 1017 l 496 1017 l 496 629 l 700 629 m 682 175 q 823 212 774 175 q 872 313 872 249 q 823 416 872 378 q 682 454 774 454 l 496 454 l 496 175 l 682 175 z "},"Ы":{"ha":1331,"x_min":107,"x_max":1225,"o":"m 513 629 q 795 547 694 629 q 896 313 896 464 q 796 81 896 163 q 513 0 696 0 l 107 0 l 107 1017 l 308 1017 l 308 629 l 513 629 m 1225 0 l 1024 0 l 1024 1017 l 1225 1017 l 1225 0 m 494 175 q 635 212 586 175 q 685 313 685 249 q 635 416 685 378 q 494 454 586 454 l 308 454 l 308 175 l 494 175 z "},"Љ":{"ha":1586,"x_min":22,"x_max":1546,"o":"m 1163 629 q 1445 547 1344 629 q 1546 313 1546 464 q 1446 81 1546 163 q 1163 0 1346 0 l 757 0 l 757 838 l 407 838 l 382 357 q 334 127 374 208 q 220 15 294 46 q 22 -17 146 -17 l 22 168 q 118 188 85 168 q 165 252 151 207 q 183 382 179 297 l 218 1017 l 958 1017 l 958 629 l 1163 629 m 1146 175 q 1286 212 1238 175 q 1335 313 1335 249 q 1285 416 1335 378 q 1146 454 1236 454 l 958 454 l 958 175 l 1146 175 z "},"Њ":{"ha":1600,"x_min":107,"x_max":1561,"o":"m 1178 617 q 1460 537 1360 617 q 1561 307 1561 457 q 1461 78 1561 157 q 1178 0 1361 0 l 767 0 l 767 438 l 308 438 l 308 0 l 107 0 l 107 1017 l 308 1017 l 308 617 l 767 617 l 767 1017 l 969 1017 l 969 617 l 1178 617 m 1160 175 q 1301 210 1251 175 q 1350 307 1350 246 q 1300 405 1350 368 q 1160 442 1250 442 l 969 442 l 969 175 l 1160 175 z "},"Ѕ":{"ha":822,"x_min":11,"x_max":793,"o":"m 793 292 q 740 119 793 188 q 601 17 686 50 q 418 -17 515 -17 q 163 49 276 -17 q 11 236 49 115 l 175 329 q 272 208 208 251 q 425 165 336 165 q 540 194 497 165 q 582 278 582 222 q 554 349 582 321 q 485 395 526 378 q 368 436 443 413 q 205 497 267 468 q 99 583 143 526 q 54 732 54 640 q 106 899 54 831 q 244 1001 158 967 q 428 1035 329 1035 q 658 974 563 1035 q 782 808 754 913 l 618 715 q 543 817 593 781 q 418 854 493 854 q 307 824 349 854 q 265 742 265 793 q 292 677 265 703 q 358 635 318 651 q 469 596 397 618 q 635 534 571 564 q 747 445 700 504 q 793 292 793 386 z "},"Є":{"ha":940,"x_min":58,"x_max":922,"o":"m 539 161 q 754 313 686 161 l 922 218 q 785 49 885 115 q 546 -17 685 -17 q 300 49 411 -17 q 124 234 189 114 q 58 510 58 354 q 123 785 58 665 q 299 969 188 904 q 546 1035 411 1035 q 785 969 685 1035 q 922 800 885 903 l 754 706 q 539 857 686 857 q 368 790 439 857 q 278 600 297 722 l 628 600 l 628 433 l 276 433 q 365 233 293 304 q 539 161 436 161 z "},"Э":{"ha":940,"x_min":19,"x_max":882,"o":"m 415 1035 q 663 970 557 1035 q 825 787 768 906 q 882 510 882 668 q 825 232 882 351 q 663 48 768 113 q 415 -17 557 -17 q 161 50 267 -17 q 19 218 56 117 l 188 313 q 276 201 218 240 q 415 161 333 161 q 587 231 522 161 q 665 433 651 301 l 314 433 l 314 600 l 664 600 q 583 791 647 725 q 415 857 518 857 q 276 817 333 857 q 188 706 218 778 l 19 800 q 161 968 56 901 q 415 1035 267 1035 z "},"І":{"ha":414,"x_min":107,"x_max":308,"o":"m 308 0 l 107 0 l 107 1017 l 308 1017 l 308 0 z "},"Ї":{"ha":414,"x_min":-51,"x_max":467,"o":"m 50 1113 q -22 1139 8 1113 q -51 1201 -51 1165 q -22 1263 -51 1238 q 50 1289 8 1289 q 125 1263 94 1289 q 156 1201 156 1238 q 125 1139 156 1165 q 50 1113 94 1113 m 363 1113 q 290 1139 319 1113 q 260 1201 260 1165 q 290 1263 260 1238 q 363 1289 319 1289 q 436 1263 406 1289 q 467 1201 467 1238 q 436 1139 467 1165 q 363 1113 406 1113 m 308 0 l 107 0 l 107 1017 l 308 1017 l 308 0 z "},"Ј":{"ha":726,"x_min":0,"x_max":631,"o":"m 300 -17 q 107 38 188 -17 q 0 203 26 92 l 167 292 q 216 199 183 229 q 301 168 249 168 q 399 219 371 168 q 428 376 428 269 l 428 1017 l 631 1017 l 631 357 q 538 71 631 158 q 300 -17 444 -17 z "},"Ћ":{"ha":1199,"x_min":11,"x_max":1143,"o":"m 775 635 q 1044 544 944 635 q 1143 269 1143 453 l 1143 0 l 942 0 l 942 226 q 895 397 942 344 q 749 450 849 450 q 587 398 650 450 q 524 225 524 346 l 524 0 l 319 0 l 319 838 l 11 838 l 11 1017 l 833 1017 l 833 838 l 524 838 l 524 550 q 775 635 617 635 z "},"Ю":{"ha":1453,"x_min":107,"x_max":1393,"o":"m 940 1035 q 1170 974 1067 1035 q 1333 794 1274 913 q 1393 510 1393 675 q 1333 224 1393 343 q 1171 44 1274 106 q 940 -17 1068 -17 q 725 36 822 -17 q 565 191 628 89 q 490 438 503 293 l 308 438 l 308 0 l 107 0 l 107 1017 l 308 1017 l 308 617 l 494 617 q 575 844 513 750 q 732 986 638 938 q 940 1035 826 1035 m 940 168 q 1115 258 1050 168 q 1181 510 1181 349 q 1115 760 1181 669 q 940 850 1050 850 q 764 760 831 850 q 697 510 697 669 q 763 258 697 349 q 940 168 829 168 z "},"Я":{"ha":951,"x_min":0,"x_max":846,"o":"m 286 408 q 147 521 197 447 q 97 692 97 594 q 146 863 97 789 q 285 976 194 936 q 494 1017 375 1017 l 846 1017 l 846 0 l 644 0 l 644 367 l 497 367 l 489 367 l 242 1 l 0 0 l 286 408 m 518 846 q 370 808 428 846 q 313 692 313 771 q 371 576 313 614 q 518 538 429 538 l 644 538 l 644 846 l 518 846 z "},"Ђ":{"ha":1218,"x_min":11,"x_max":1179,"o":"m 803 635 q 996 597 911 635 q 1130 484 1081 560 q 1179 300 1179 408 q 1083 65 1179 146 q 819 -17 986 -17 q 756 -14 800 -17 l 756 160 q 968 301 968 149 q 922 415 968 374 q 785 456 876 456 q 601 399 678 456 q 524 213 524 342 l 524 0 l 319 0 l 319 838 l 11 838 l 11 1017 l 833 1017 l 833 838 l 524 838 l 524 540 q 803 635 626 635 z "},"Ѣ":{"ha":1053,"x_min":-6,"x_max":1013,"o":"m 629 597 q 913 522 813 597 q 1013 300 1013 446 q 913 76 1013 153 q 629 0 813 0 l 224 0 l 224 728 l -6 728 l -6 885 l 224 885 l 224 1017 l 425 1017 l 425 885 l 736 885 l 736 728 l 425 728 l 425 597 l 629 597 m 613 168 q 753 202 704 168 q 801 300 801 236 q 753 399 801 364 q 613 435 704 435 l 425 435 l 425 168 l 613 168 z "},"Ѳ":{"ha":1088,"x_min":60,"x_max":1031,"o":"m 544 1035 q 790 969 679 1035 q 966 785 901 904 q 1031 510 1031 665 q 966 233 1031 353 q 790 49 901 114 q 544 -17 679 -17 q 299 49 410 -17 q 124 233 189 114 q 60 510 60 353 q 124 785 60 665 q 299 969 189 904 q 544 1035 410 1035 m 544 854 q 371 785 442 854 q 281 599 300 717 l 807 599 q 717 785 788 717 q 544 854 647 854 m 544 164 q 719 235 649 164 q 807 426 789 306 l 279 426 q 369 235 299 306 q 544 164 440 164 z "},"Ѵ":{"ha":1082,"x_min":8,"x_max":1119,"o":"m 954 1035 q 1119 975 1054 1035 l 1054 818 q 978 850 1019 850 q 922 828 944 850 q 875 750 899 807 l 575 0 l 419 0 l 8 1017 l 238 1017 l 506 303 l 686 792 q 800 982 738 929 q 954 1035 863 1035 z "},"Ғ":{"ha":786,"x_min":0,"x_max":774,"o":"m 111 1017 l 774 1017 l 774 840 l 314 840 l 314 581 l 490 581 l 490 406 l 314 406 l 314 0 l 111 0 l 111 406 l 0 406 l 0 581 l 111 581 l 111 1017 z "},"Қ":{"ha":994,"x_min":107,"x_max":1022,"o":"m 976 1017 l 619 519 l 868 179 l 1022 179 l 1008 -239 l 836 -239 l 828 0 l 747 0 l 451 422 l 308 422 l 308 0 l 107 0 l 107 1017 l 308 1017 l 308 601 l 457 601 l 747 1017 l 976 1017 z "},"Ҝ":{"ha":1010,"x_min":107,"x_max":1011,"o":"m 694 521 l 1011 0 l 779 0 l 532 422 l 500 422 l 500 231 l 361 231 l 361 422 l 296 422 l 296 0 l 107 0 l 107 1017 l 296 1017 l 296 601 l 361 601 l 361 793 l 500 793 l 500 601 l 538 601 l 779 1017 l 993 1017 l 694 521 z "},"Ң":{"ha":1150,"x_min":107,"x_max":1104,"o":"m 969 1017 l 969 179 l 1104 179 l 1090 -239 l 917 -239 l 910 0 l 767 0 l 767 438 l 308 438 l 308 0 l 107 0 l 107 1017 l 308 1017 l 308 617 l 767 617 l 767 1017 l 969 1017 z "},"Ү":{"ha":942,"x_min":8,"x_max":933,"o":"m 485 600 l 715 1017 l 933 1017 l 581 401 l 581 0 l 376 0 l 376 401 l 8 1017 l 246 1017 l 485 600 z "},"Ұ":{"ha":942,"x_min":8,"x_max":933,"o":"m 485 600 l 715 1017 l 933 1017 l 654 531 l 842 531 l 842 351 l 581 351 l 581 0 l 376 0 l 376 351 l 115 351 l 115 531 l 300 531 l 8 1017 l 246 1017 l 485 600 z "},"Ҳ":{"ha":993,"x_min":7,"x_max":1006,"o":"m 969 1017 l 610 524 l 857 179 l 1006 179 l 990 -239 l 818 -239 l 810 0 l 739 0 l 490 358 l 238 0 l 7 0 l 382 514 l 24 1017 l 268 1017 l 500 679 l 739 1017 l 969 1017 z "},"Ҹ":{"ha":983,"x_min":56,"x_max":878,"o":"m 679 1017 l 878 1017 l 878 0 l 675 0 l 675 415 q 539 344 621 361 l 539 151 l 401 151 l 401 331 q 149 428 242 338 q 56 696 56 519 l 56 1017 l 254 1017 l 254 739 q 290 585 254 638 q 401 519 325 532 l 401 715 l 539 715 l 539 524 q 679 740 679 556 l 679 1017 z "},"Һ":{"ha":983,"x_min":107,"x_max":928,"o":"m 308 0 l 107 0 l 107 1017 l 308 1017 l 308 601 q 560 686 401 686 q 828 595 729 686 q 928 321 928 504 l 928 0 l 726 0 l 726 278 q 679 449 726 396 q 531 501 632 501 q 370 449 432 501 q 308 276 308 397 l 308 0 z "}}}
